SplineFontDB: 3.0
FontName: Revalia-Regular
FullName: Revalia
FamilyName: Revalia
Weight: Normal
Copyright: Copyright (c) 2011, Johan Kallas (johankallas@gmail.com), Copyright (c) 2011, Mihkel Virkus (mihkelvirkus@gmail.com), with Reserved Font Name Revalia.
Version: 001.001
ItalicAngle: 0
UnderlinePosition: -100
UnderlineWidth: 100
Ascent: 1536
Descent: 512
sfntRevision: 0x00010000
LayerCount: 2
Layer: 0 1 "Back"  1
Layer: 1 1 "Fore"  0
XUID: [1021 137 31885 13998]
FSType: 0
OS2Version: 3
OS2_WeightWidthSlopeOnly: 0
OS2_UseTypoMetrics: 1
CreationTime: 1328546747
ModificationTime: 1329349110
PfmFamily: 81
TTFWeight: 400
TTFWidth: 5
LineGap: 0
VLineGap: 0
Panose: 0 0 0 0 0 0 0 0 0 0
OS2TypoAscent: 2146
OS2TypoAOffset: 0
OS2TypoDescent: 382
OS2TypoDOffset: 0
OS2TypoLinegap: 0
OS2WinAscent: 2146
OS2WinAOffset: 0
OS2WinDescent: 382
OS2WinDOffset: 0
HheadAscent: 2146
HheadAOffset: 0
HheadDescent: 382
HheadDOffset: 0
OS2SubXSize: 1434
OS2SubYSize: 1331
OS2SubXOff: 0
OS2SubYOff: 287
OS2SupXSize: 1434
OS2SupYSize: 1331
OS2SupXOff: 0
OS2SupYOff: 977
OS2StrikeYSize: 102
OS2StrikeYPos: 512
OS2Vendor: 'pyrs'
OS2CodePages: 20000111.40000000
OS2UnicodeRanges: 80000027.00000041.00000000.00000000
MarkAttachClasses: 1
DEI: 91125
TtTable: prep
PUSHW_1
 511
SCANCTRL
PUSHB_1
 1
SCANTYPE
SVTCA[y-axis]
MPPEM
PUSHB_1
 8
LT
IF
PUSHB_2
 1
 1
INSTCTRL
EIF
PUSHB_2
 70
 6
CALL
IF
POP
PUSHB_1
 16
EIF
MPPEM
PUSHB_1
 20
GT
IF
POP
PUSHB_1
 128
EIF
SCVTCI
PUSHB_1
 6
CALL
NOT
IF
EIF
PUSHB_1
 20
CALL
EndTTInstrs
TtTable: fpgm
PUSHB_1
 0
FDEF
PUSHB_1
 0
SZP0
MPPEM
PUSHB_1
 42
LT
IF
PUSHB_1
 74
SROUND
EIF
PUSHB_1
 0
SWAP
MIAP[rnd]
RTG
PUSHB_1
 6
CALL
IF
RTDG
EIF
MPPEM
PUSHB_1
 42
LT
IF
RDTG
EIF
DUP
MDRP[rp0,rnd,grey]
PUSHB_1
 1
SZP0
MDAP[no-rnd]
RTG
ENDF
PUSHB_1
 1
FDEF
DUP
MDRP[rp0,min,white]
PUSHB_1
 12
CALL
ENDF
PUSHB_1
 2
FDEF
MPPEM
GT
IF
RCVT
SWAP
EIF
POP
ENDF
PUSHB_1
 3
FDEF
ROUND[Black]
RTG
DUP
PUSHB_1
 64
LT
IF
POP
PUSHB_1
 64
EIF
ENDF
PUSHB_1
 4
FDEF
PUSHB_1
 6
CALL
IF
POP
SWAP
POP
ROFF
IF

StartChar: F
Encoding: 70 70 4
Width: 1542
Flags: W
HStem: 0 21G<154 400> 656 246<400 1274> 1296 226<404.271 1367.43>
VStem: 154 246<0 656 902 1272.08>
DStem2: 1163.5 1511 1181.5 1278 0.989194 -0.14661<-287.829 362.909>
LayerCount: 2
Fore
SplineSet
838 1522 m 0,0,1
 992 1522 992 1522 1163.5 1511 c 128,-1,2
 1335 1500 1335 1500 1524 1468 c 1,3,-1
 1524 1214 l 1,4,5
 1440 1238 1440 1238 1354 1253.5 c 128,-1,6
 1268 1269 1268 1269 1181.5 1278 c 128,-1,7
 1095 1287 1095 1287 1009 1291 c 128,-1,8
 923 1295 923 1295 838 1296 c 0,9,10
 797 1296 797 1296 747.5 1294.5 c 128,-1,11
 698 1293 698 1293 641.5 1290 c 128,-1,12
 585 1287 585 1287 524 1281 c 128,-1,13
 463 1275 463 1275 400 1266 c 1,14,-1
 400 902 l 1,15,-1
 1274 902 l 1,16,-1
 1274 656 l 1,17,-1
 400 656 l 1,18,-1
 400 0 l 1,19,-1
 154 0 l 1,20,-1
 154 1468 l 1,21,22
 341 1500 341 1500 513.5 1511 c 128,-1,23
 686 1522 686 1522 838 1522 c 0,0,1
EndSplineSet
EndChar

StartChar: G
Encoding: 71 71 5
Width: 1706
Flags: W
HStem: -2 222<550.824 1154.21> 580 224<960.777 1327.96> 1300 224<550.824 1154.21>
VStem: 114 260<342.661 1179.4> 1330 260<342.661 580 998 1177.34>
LayerCount: 2
Fore
SplineSet
852 1524 m 256,0,1
 1003 1524 1003 1524 1137 1497 c 128,-1,2
 1271 1470 1271 1470 1371.5 1422 c 128,-1,3
 1472 1374 1472 1374 1531 1307 c 128,-1,4
 1590 1240 1590 1240 1590 1160 c 2,5,-1
 1590 998 l 1,6,-1
 1330 998 l 1,7,-1
 1330 1084 l 2,8,9
 1330 1127 1330 1127 1297 1166 c 128,-1,10
 1264 1205 1264 1205 1202.5 1235 c 128,-1,11
 1141 1265 1141 1265 1052.5 1282.5 c 128,-1,12
 964 1300 964 1300 852 1300 c 0,13,14
 744 1300 744 1300 656 1283 c 128,-1,15
 568 1266 568 1266 505 1237 c 128,-1,16
 442 1208 442 1208 408 1168.5 c 128,-1,17
 374 1129 374 1129 374 1084 c 2,18,-1
 374 436 l 2,19,20
 374 392 374 392 408 352.5 c 128,-1,21
 442 313 442 313 505 283.5 c 128,-1,22
 568 254 568 254 656 237 c 128,-1,23
 744 220 744 220 852 220 c 0,24,25
 964 220 964 220 1052.5 237.5 c 128,-1,26
 1141 255 1141 255 1202.5 285 c 128,-1,27
 1264 315 1264 315 1297 354 c 128,-1,28
 1330 393 1330 393 1330 436 c 2,29,-1
 1330 580 l 1,30,31
 1237 580 1237 580 1163.5 575 c 128,-1,32
 1090 570 1090 570 1038 565 c 0,33,34
 977 558 977 558 930 550 c 1,35,-1
 956 792 l 1,36,37
 1109 804 1109 804 1244 804 c 0,38,39
 1425 804 1425 804 1590 786 c 1,40,-1
 1590 360 l 2,41,42
 1590 280 1590 280 1531 213.5 c 128,-1,43
 1472 147 1472 147 1371.5 99 c 128,-1,44
 1271 51 1271 51 1137 24.5 c 128,-1,45
 1003 -2 1003 -2 852 -2 c 256,46,47
 701 -2 701 -2 567 24.5 c 128,-1,48
 433 51 433 51 332.5 99 c 128,-1,49
 232 147 232 147 173 213.5 c 128,-1,50
 114 280 114 280 114 360 c 2,51,-1
 114 1160 l 2,52,53
 114 1240 114 1240 173 1307 c 128,-1,54
 232 1374 232 1374 332.5 1422 c 128,-1,55
 433 1470 433 1470 567 1497 c 128,-1,56
 701 1524 701 1524 852 1524 c 256,0,1
EndSplineSet
EndChar

StartChar: H
Encoding: 72 72 6
Width: 1880
Flags: W
HStem: 0 21G<1276 1296.5> 636 242<604 1276> 1206 256<1517.59 1700>
VStem: 180 424<38.8906 300 1248 1469.36> 364 240<258 636 878 1248> 1276 424<38.8906 300 1248 1469.06> 1276 240<258 636 878 1248>
LayerCount: 2
Fore
SplineSet
604 878 m 1,0,-1
 1276 878 l 1,1,-1
 1276 1506 l 1,2,3
 1362 1503 1362 1503 1438 1496 c 128,-1,4
 1514 1489 1514 1489 1573 1481 c 0,5,6
 1641 1472 1641 1472 1700 1462 c 1,7,-1
 1700 1206 l 1,8,9
 1661 1218 1661 1218 1614 1228.5 c 128,-1,10
 1567 1239 1567 1239 1516 1248 c 1,11,-1
 1516 258 l 1,12,13
 1626 276 1626 276 1700 300 c 1,14,-1
 1700 46 l 1,15,16
 1628 34 1628 34 1568 26 c 128,-1,17
 1508 18 1508 18 1457 13 c 128,-1,18
 1406 8 1406 8 1361.5 5 c 128,-1,19
 1317 2 1317 2 1276 0 c 1,20,-1
 1276 636 l 1,21,-1
 604 636 l 1,22,-1
 604 0 l 1,23,24
 563 2 563 2 518.5 5 c 128,-1,25
 474 8 474 8 423 13 c 128,-1,26
 372 18 372 18 312 26 c 128,-1,27
 252 34 252 34 180 46 c 1,28,-1
 180 300 l 1,29,30
 219 288 219 288 264.5 277.5 c 128,-1,31
 310 267 310 267 364 258 c 1,32,-1
 364 1248 l 1,33,34
 260 1230 260 1230 180 1206 c 1,35,-1
 180 1462 l 1,36,37
 237 1472 237 1472 306 1481 c 0,38,39
 364 1489 364 1489 441 1496 c 128,-1,40
 518 1503 518 1503 604 1506 c 1,41,-1
 604 878 l 1,0,-1
EndSplineSet
EndChar

StartChar: I
Encoding: 73 73 7
Width: 1674
Flags: W
HStem: 0 228<298.757 714 952 1367.68> 1294 228<298.757 714 952 1367.68>
VStem: 714 238<228 1294>
DStem2: 301 272 148 54 0.989207 -0.146526<-119.406 410.157> 1159 1511 1187 1277 0.989025 -0.147748<-168.606 361.413>
LayerCount: 2
Fore
SplineSet
832 1522 m 0,0,1
 987 1522 987 1522 1159 1511 c 128,-1,2
 1331 1500 1331 1500 1518 1468 c 1,3,-1
 1518 1214 l 1,4,5
 1451 1233 1451 1233 1365 1250 c 0,6,7
 1291 1264 1291 1264 1187 1277 c 128,-1,8
 1083 1290 1083 1290 952 1294 c 1,9,-1
 952 228 l 1,10,11
 1083 232 1083 232 1187 245 c 128,-1,12
 1291 258 1291 258 1365 272 c 0,13,14
 1451 289 1451 289 1518 308 c 1,15,-1
 1518 54 l 1,16,17
 1331 22 1331 22 1159 11 c 128,-1,18
 987 0 987 0 832 0 c 0,19,20
 681 0 681 0 509 11 c 128,-1,21
 337 22 337 22 148 54 c 1,22,-1
 148 308 l 1,23,24
 215 289 215 289 301 272 c 0,25,26
 375 258 375 258 479 245 c 128,-1,27
 583 232 583 232 714 228 c 1,28,-1
 714 1294 l 1,29,30
 583 1290 583 1290 479 1277 c 128,-1,31
 375 1264 375 1264 301 1250 c 0,32,33
 215 1233 215 1233 148 1214 c 1,34,-1
 148 1468 l 1,35,36
 337 1500 337 1500 509 1511 c 128,-1,37
 681 1522 681 1522 832 1522 c 0,0,1
EndSplineSet
EndChar

StartChar: K
Encoding: 75 75 8
Width: 1674
Flags: W
HStem: 700 230<543.219 917.099>
VStem: 296 246<4 662 936.582 1260> 1258 234<4 414.719>
LayerCount: 2
Fore
SplineSet
542 944 m 1,0,1
 581 936 581 936 621 933 c 128,-1,2
 661 930 661 930 702 930 c 0,3,4
 834 930 834 930 918 975 c 128,-1,5
 1002 1020 1002 1020 1050 1099 c 128,-1,6
 1098 1178 1098 1178 1117 1285.5 c 128,-1,7
 1136 1393 1136 1393 1138 1518 c 1,8,9
 1224 1514 1224 1514 1300 1506.5 c 128,-1,10
 1376 1499 1376 1499 1435 1491 c 0,11,12
 1503 1482 1503 1482 1562 1472 c 1,13,-1
 1562 1218 l 1,14,15
 1547 1223 1547 1223 1523.5 1229 c 128,-1,16
 1500 1235 1500 1235 1471.5 1241.5 c 128,-1,17
 1443 1248 1443 1248 1410.5 1254.5 c 128,-1,18
 1378 1261 1378 1261 1344 1268 c 1,19,20
 1337 1204 1337 1204 1323.5 1141.5 c 128,-1,21
 1310 1079 1310 1079 1286 1022 c 128,-1,22
 1262 965 1262 965 1225.5 917.5 c 128,-1,23
 1189 870 1189 870 1136 836 c 1,24,25
 1206 813 1206 813 1260 768 c 128,-1,26
 1314 723 1314 723 1353.5 664.5 c 128,-1,27
 1393 606 1393 606 1419.5 537 c 128,-1,28
 1446 468 1446 468 1462 397 c 128,-1,29
 1478 326 1478 326 1485 255.5 c 128,-1,30
 1492 185 1492 185 1492 124 c 0,31,32
 1492 91 1492 91 1490.5 60.5 c 128,-1,33
 1489 30 1489 30 1486 4 c 1,34,-1
 1250 4 l 1,35,36
 1255 40 1255 40 1256.5 73.5 c 128,-1,37
 1258 107 1258 107 1258 140 c 0,38,39
 1258 270 1258 270 1227 374 c 128,-1,40
 1196 478 1196 478 1140 550.5 c 128,-1,41
 1084 623 1084 623 1006.5 661.5 c 128,-1,42
 929 700 929 700 836 700 c 0,43,44
 773 700 773 700 729 697 c 128,-1,45
 685 694 685 694 652 688.5 c 128,-1,46
 619 683 619 683 593.5 676 c 128,-1,47
 568 669 568 669 542 662 c 1,48,-1
 542 4 l 1,49,-1
 296 4 l 1,50,-1
 296 1260 l 1,51,52
 239 1248 239 1248 190.5 1237.5 c 128,-1,53
 142 1227 142 1227 118 1218 c 1,54,-1
 118 1472 l 1,55,56
 175 1482 175 1482 244 1491 c 0,57,58
 302 1499 302 1499 379 1506.5 c 128,-1,59
 456 1514 456 1514 542 1518 c 1,60,-1
 542 944 l 1,0,1
EndSplineSet
EndChar

StartChar: L
Encoding: 76 76 9
Width: 1578
Flags: W
HStem: 2 226<402.508 1310.5>
VStem: 152 246<250.309 1273.7>
LayerCount: 2
Fore
SplineSet
600 1290 m 1,0,1
 541 1285 541 1285 492 1279.5 c 128,-1,2
 443 1274 443 1274 398 1268 c 1,3,-1
 398 256 l 1,4,5
 464 247 464 247 544 240 c 128,-1,6
 624 233 624 233 718 230 c 1,7,8
 748 228 748 228 777 228 c 128,-1,9
 806 228 806 228 836 228 c 256,10,11
 866 228 866 228 896 228 c 128,-1,12
 926 228 926 228 956 230 c 1,13,14
 1068 233 1068 233 1155.5 241.5 c 128,-1,15
 1243 250 1243 250 1314 264 c 1,16,17
 1332 363 1332 363 1344 504 c 1,18,-1
 1572 504 l 1,19,20
 1566 397 1566 397 1555 285.5 c 128,-1,21
 1544 174 1544 174 1524 56 c 1,22,23
 1334 24 1334 24 1162.5 13 c 128,-1,24
 991 2 991 2 840 2 c 0,25,26
 685 2 685 2 512 13 c 128,-1,27
 339 24 339 24 152 56 c 1,28,-1
 152 1470 l 1,29,30
 271 1491 271 1491 382.5 1501.5 c 128,-1,31
 494 1512 494 1512 600 1518 c 1,32,-1
 600 1290 l 1,0,1
EndSplineSet
EndChar

StartChar: Z
Encoding: 90 90 10
Width: 1640
Flags: W
HStem: 0 226<496.724 1281.15> 1296 226<331.313 1219.78>
VStem: 1312 228<263.565 502>
DStem2: 124 1468 330 1260 0.987001 0.160711<155.915 605.889> 416.5 498.5 687.5 384.5 0.758051 0.652195<-106.202 962.259> 705 730 880 545.5 0.723171 0.690669<-457.811 742.58> 977.5 991.5 1232 888.5 0.636436 0.771329<-351.489 369.768> 1132.5 1511 1072 1287.5 0.994703 -0.102786<-294.066 113.592>
LayerCount: 2
Fore
SplineSet
806 1522 m 0,0,1
 960 1522 960 1522 1132.5 1511 c 128,-1,2
 1305 1500 1305 1500 1494 1468 c 1,3,-1
 1494 1214 l 1,4,5
 1445 1139 1445 1139 1378 1056.5 c 128,-1,6
 1311 974 1311 974 1232 888.5 c 128,-1,7
 1153 803 1153 803 1064 716 c 128,-1,8
 975 629 975 629 880 545.5 c 128,-1,9
 785 462 785 462 687.5 384.5 c 128,-1,10
 590 307 590 307 494 240 c 1,11,12
 581 231 581 231 690 228 c 1,13,14
 719 226 719 226 748.5 226 c 128,-1,15
 778 226 778 226 808 226 c 256,16,17
 838 226 838 226 867 226 c 128,-1,18
 896 226 896 226 928 228 c 1,19,20
 1038 231 1038 231 1126.5 240.5 c 128,-1,21
 1215 250 1215 250 1284 262 c 1,22,23
 1293 312 1293 312 1300 371.5 c 128,-1,24
 1307 431 1307 431 1312 502 c 1,25,-1
 1540 502 l 1,26,27
 1535 395 1535 395 1524.5 283.5 c 128,-1,28
 1514 172 1514 172 1494 54 c 1,29,30
 1305 22 1305 22 1133 11 c 128,-1,31
 961 0 961 0 812 0 c 0,32,33
 657 0 657 0 484 11 c 128,-1,34
 311 22 311 22 124 54 c 1,35,-1
 124 308 l 1,36,37
 269 391 269 391 416.5 498.5 c 128,-1,38
 564 606 564 606 705 730 c 128,-1,39
 846 854 846 854 977.5 991.5 c 128,-1,40
 1109 1129 1109 1129 1222 1272 c 1,41,42
 1191 1276 1191 1276 1155.5 1280 c 128,-1,43
 1120 1284 1120 1284 1072 1287.5 c 128,-1,44
 1024 1291 1024 1291 960.5 1293.5 c 128,-1,45
 897 1296 897 1296 812 1296 c 0,46,47
 713 1296 713 1296 641 1293 c 128,-1,48
 569 1290 569 1290 514 1285 c 128,-1,49
 459 1280 459 1280 415.5 1273.5 c 128,-1,50
 372 1267 372 1267 330 1260 c 1,51,52
 322 1210 322 1210 315.5 1149.5 c 128,-1,53
 309 1089 309 1089 304 1020 c 1,54,-1
 76 1020 l 1,55,56
 82 1126 82 1126 92.5 1237.5 c 128,-1,57
 103 1349 103 1349 124 1468 c 1,58,59
 311 1500 311 1500 483 1511 c 128,-1,60
 655 1522 655 1522 806 1522 c 0,0,1
EndSplineSet
EndChar

StartChar: Y
Encoding: 89 89 11
Width: 1654
Flags: W
HStem: -6 228<292.839 708 946 1361.68>
VStem: 142 400<1248.38 1469.5> 316 226<1105.78 1248> 708 238<222 696> 1114 398<1248.38 1469.5> 1114 226<1109.46 1248>
DStem2: 295 266 142 48 0.989219 -0.146442<-119.426 410.929>
LayerCount: 2
Fore
SplineSet
554 1508 m 1,0,1
 549 1463 549 1463 545.5 1412 c 128,-1,2
 542 1361 542 1361 542 1310 c 0,3,4
 542 1224 542 1224 564.5 1158.5 c 128,-1,5
 587 1093 587 1093 626 1041.5 c 128,-1,6
 665 990 665 990 716.5 949.5 c 128,-1,7
 768 909 768 909 826 874 c 1,8,9
 884 909 884 909 936 949.5 c 128,-1,10
 988 990 988 990 1027.5 1041.5 c 128,-1,11
 1067 1093 1067 1093 1090.5 1158.5 c 128,-1,12
 1114 1224 1114 1224 1114 1310 c 0,13,14
 1114 1361 1114 1361 1110 1412 c 128,-1,15
 1106 1463 1106 1463 1100 1508 c 1,16,17
 1182 1505 1182 1505 1256.5 1497.5 c 128,-1,18
 1331 1490 1331 1490 1388 1482 c 0,19,20
 1455 1472 1455 1472 1512 1462 c 1,21,-1
 1512 1208 l 1,22,23
 1498 1212 1498 1212 1475 1218 c 128,-1,24
 1452 1224 1452 1224 1427 1230 c 128,-1,25
 1402 1236 1402 1236 1378.5 1241 c 128,-1,26
 1355 1246 1355 1246 1340 1248 c 1,27,28
 1339 1150 1339 1150 1315 1074 c 128,-1,29
 1291 998 1291 998 1249.5 938 c 128,-1,30
 1208 878 1208 878 1153 832 c 128,-1,31
 1098 786 1098 786 1036 748 c 1,32,-1
 946 696 l 1,33,-1
 946 222 l 1,34,35
 1077 226 1077 226 1181 239 c 128,-1,36
 1285 252 1285 252 1359 266 c 0,37,38
 1445 283 1445 283 1512 302 c 1,39,-1
 1512 48 l 1,40,41
 1325 16 1325 16 1153 5 c 128,-1,42
 981 -6 981 -6 830 -6 c 0,43,44
 676 -6 676 -6 503.5 5 c 128,-1,45
 331 16 331 16 142 48 c 1,46,-1
 142 302 l 1,47,48
 209 283 209 283 295 266 c 0,49,50
 369 252 369 252 473 239 c 128,-1,51
 577 226 577 226 708 222 c 1,52,-1
 708 696 l 1,53,-1
 620 748 l 2,54,55
 557 786 557 786 502 832 c 128,-1,56
 447 878 447 878 406 938 c 128,-1,57
 365 998 365 998 341 1074 c 128,-1,58
 317 1150 317 1150 316 1248 c 1,59,60
 301 1246 301 1246 277.5 1241 c 128,-1,61
 254 1236 254 1236 228.5 1230 c 128,-1,62
 203 1224 203 1224 179.5 1218 c 128,-1,63
 156 1212 156 1212 142 1208 c 1,64,-1
 142 1462 l 1,65,66
 199 1472 199 1472 266 1482 c 0,67,68
 323 1490 323 1490 397.5 1497.5 c 128,-1,69
 472 1505 472 1505 554 1508 c 1,0,1
EndSplineSet
EndChar

StartChar: X
Encoding: 88 88 12
Width: 1626
Flags: W
HStem: 42 254<92 283.846> 1212 254<1339.38 1536>
DStem2: 514 1512 392 1276 0.490261 -0.871576<145.88 609.013 1006.45 1484.43> 392 232 514 -4 0.490261 0.871576<-15.8934 463.133 860.572 1322.72> 1234 232 1409 23 0.982487 0.186334<0 261.308>
LayerCount: 2
Fore
SplineSet
814 982 m 1,0,-1
 1112 1512 l 1,1,2
 1198 1508 1198 1508 1274 1500.5 c 128,-1,3
 1350 1493 1350 1493 1409 1485 c 0,4,5
 1477 1476 1477 1476 1536 1466 c 1,6,-1
 1536 1212 l 1,7,8
 1516 1219 1516 1219 1482.5 1227 c 128,-1,9
 1449 1235 1449 1235 1408 1243.5 c 128,-1,10
 1367 1252 1367 1252 1322 1260 c 128,-1,11
 1277 1268 1277 1268 1234 1276 c 1,12,-1
 940 754 l 1,13,-1
 1234 232 l 1,14,15
 1277 239 1277 239 1322 247.5 c 128,-1,16
 1367 256 1367 256 1408 265 c 128,-1,17
 1449 274 1449 274 1482.5 282 c 128,-1,18
 1516 290 1516 290 1536 296 c 1,19,-1
 1536 42 l 1,20,21
 1477 32 1477 32 1409 23 c 0,22,23
 1350 15 1350 15 1274 7.5 c 128,-1,24
 1198 0 1198 0 1112 -4 c 1,25,-1
 814 526 l 1,26,-1
 514 -4 l 1,27,28
 428 0 428 0 351.5 7.5 c 128,-1,29
 275 15 275 15 217 23 c 0,30,31
 149 32 149 32 92 42 c 1,32,-1
 92 296 l 1,33,34
 110 290 110 290 143 282 c 128,-1,35
 176 274 176 274 217 265 c 128,-1,36
 258 256 258 256 303.5 247.5 c 128,-1,37
 349 239 349 239 392 232 c 1,38,-1
 684 754 l 1,39,-1
 392 1276 l 1,40,41
 349 1268 349 1268 303.5 1260 c 128,-1,42
 258 1252 258 1252 217 1243.5 c 128,-1,43
 176 1235 176 1235 143 1227 c 128,-1,44
 110 1219 110 1219 92 1212 c 1,45,-1
 92 1466 l 1,46,47
 149 1476 149 1476 217 1485 c 0,48,49
 275 1493 275 1493 351.5 1500.5 c 128,-1,50
 428 1508 428 1508 514 1512 c 1,51,-1
 814 982 l 1,0,-1
EndSplineSet
EndChar

StartChar: V
Encoding: 86 86 13
Width: 1554
Flags: W
VStem: 94 368<1248.63 1468> 228 234<905.613 1246> 1092 370<1247.75 1475.06> 1092 244<900.494 1246>
LayerCount: 2
Fore
SplineSet
474 1512 m 1,0,1
 462 1422 462 1422 462 1324 c 0,2,3
 462 1191 462 1191 481 1051 c 128,-1,4
 500 911 500 911 539 780 c 128,-1,5
 578 649 578 649 637.5 535 c 128,-1,6
 697 421 697 421 778 342 c 1,7,8
 861 433 861 433 920.5 548 c 128,-1,9
 980 663 980 663 1018 789 c 128,-1,10
 1056 915 1056 915 1074 1047.5 c 128,-1,11
 1092 1180 1092 1180 1092 1308 c 0,12,13
 1092 1362 1092 1362 1089.5 1413 c 128,-1,14
 1087 1464 1087 1464 1082 1514 c 1,15,16
 1169 1510 1169 1510 1238.5 1502 c 128,-1,17
 1308 1494 1308 1494 1358 1486 c 0,18,19
 1416 1476 1416 1476 1462 1466 c 1,20,-1
 1462 1214 l 1,21,22
 1430 1225 1430 1225 1399 1231.5 c 128,-1,23
 1368 1238 1368 1238 1336 1246 c 1,24,25
 1336 1031 1336 1031 1294.5 847.5 c 128,-1,26
 1253 664 1253 664 1179 505 c 128,-1,27
 1105 346 1105 346 1002.5 210 c 128,-1,28
 900 74 900 74 778 -44 c 1,29,30
 655 74 655 74 553.5 210 c 128,-1,31
 452 346 452 346 380 505 c 128,-1,32
 308 664 308 664 268 847.5 c 128,-1,33
 228 1031 228 1031 228 1246 c 1,34,35
 192 1238 192 1238 159 1231.5 c 128,-1,36
 126 1225 126 1225 94 1214 c 1,37,-1
 94 1468 l 2,38,39
 94 1467 94 1467 120.5 1472 c 128,-1,40
 147 1477 147 1477 196.5 1484.5 c 128,-1,41
 246 1492 246 1492 316 1499.5 c 128,-1,42
 386 1507 386 1507 474 1512 c 1,0,1
EndSplineSet
EndChar

StartChar: O
Encoding: 79 79 14
Width: 1730
Flags: W
HStem: -30 222<574.383 1171.78> 1326 222<571.926 1173.13>
VStem: 136 262<312.229 1206.77> 1348 262<313.676 1205.31>
LayerCount: 2
Fore
SplineSet
872 1548 m 256,0,1
 972 1548 972 1548 1066 1536 c 128,-1,2
 1160 1524 1160 1524 1242 1501.5 c 128,-1,3
 1324 1479 1324 1479 1392 1447.5 c 128,-1,4
 1460 1416 1460 1416 1508 1376 c 128,-1,5
 1556 1336 1556 1336 1583 1288.5 c 128,-1,6
 1610 1241 1610 1241 1610 1188 c 2,7,-1
 1610 330 l 2,8,9
 1610 277 1610 277 1583 229.5 c 128,-1,10
 1556 182 1556 182 1508 142 c 128,-1,11
 1460 102 1460 102 1392 70.5 c 128,-1,12
 1324 39 1324 39 1242 16.5 c 128,-1,13
 1160 -6 1160 -6 1066 -18 c 128,-1,14
 972 -30 972 -30 872 -30 c 256,15,16
 772 -30 772 -30 678.5 -18 c 128,-1,17
 585 -6 585 -6 503.5 16.5 c 128,-1,18
 422 39 422 39 354 70.5 c 128,-1,19
 286 102 286 102 237.5 142 c 128,-1,20
 189 182 189 182 162.5 229.5 c 128,-1,21
 136 277 136 277 136 330 c 2,22,-1
 136 1188 l 2,23,24
 136 1241 136 1241 162.5 1288.5 c 128,-1,25
 189 1336 189 1336 237.5 1376 c 128,-1,26
 286 1416 286 1416 354 1447.5 c 128,-1,27
 422 1479 422 1479 503.5 1501.5 c 128,-1,28
 585 1524 585 1524 678.5 1536 c 128,-1,29
 772 1548 772 1548 872 1548 c 256,0,1
1348 1112 m 2,30,31
 1348 1155 1348 1155 1315 1193.5 c 128,-1,32
 1282 1232 1282 1232 1220.5 1261.5 c 128,-1,33
 1159 1291 1159 1291 1071 1308.5 c 128,-1,34
 983 1326 983 1326 872 1326 c 0,35,36
 765 1326 765 1326 678 1309.5 c 128,-1,37
 591 1293 591 1293 528.5 1264 c 128,-1,38
 466 1235 466 1235 432 1196 c 128,-1,39
 398 1157 398 1157 398 1112 c 2,40,-1
 398 406 l 2,41,42
 398 362 398 362 432 323 c 128,-1,43
 466 284 466 284 528.5 255 c 128,-1,44
 591 226 591 226 678 209 c 128,-1,45
 765 192 765 192 872 192 c 0,46,47
 983 192 983 192 1071 209.5 c 128,-1,48
 1159 227 1159 227 1220.5 257 c 128,-1,49
 1282 287 1282 287 1315 325.5 c 128,-1,50
 1348 364 1348 364 1348 406 c 2,51,-1
 1348 1112 l 2,30,31
EndSplineSet
EndChar

StartChar: P
Encoding: 80 80 15
Width: 1562
Flags: W
HStem: 346 218<420.219 1038.59> 360 228<418 658.439 662.033 697.781 703.53 1100.81> 1308 220<419.408 1059.16>
VStem: 170 248<2 360 579.674 1280.94> 1300 264<768.522 1117.55>
LayerCount: 2
Fore
SplineSet
676 1528 m 0,0,1
 776 1528 776 1528 880.5 1518.5 c 128,-1,2
 985 1509 985 1509 1084 1485.5 c 128,-1,3
 1183 1462 1183 1462 1270 1420.5 c 128,-1,4
 1357 1379 1357 1379 1422.5 1315.5 c 128,-1,5
 1488 1252 1488 1252 1526 1163.5 c 128,-1,6
 1564 1075 1564 1075 1564 956 c 0,7,8
 1564 835 1564 835 1531.5 743 c 128,-1,9
 1499 651 1499 651 1440.5 583 c 128,-1,10
 1382 515 1382 515 1301.5 469.5 c 128,-1,11
 1221 424 1221 424 1125 396.5 c 128,-1,12
 1029 369 1029 369 921 357.5 c 128,-1,13
 813 346 813 346 700 346 c 0,14,15
 629 346 629 346 559 350 c 128,-1,16
 489 354 489 354 418 360 c 1,17,-1
 418 2 l 1,18,-1
 170 2 l 1,19,-1
 170 1470 l 1,20,21
 192 1477 192 1477 240.5 1487 c 128,-1,22
 289 1497 289 1497 355.5 1506 c 128,-1,23
 422 1515 422 1515 504 1521.5 c 128,-1,24
 586 1528 586 1528 676 1528 c 0,0,1
748 1308 m 0,25,26
 682 1308 682 1308 622 1302.5 c 128,-1,27
 562 1297 562 1297 517 1290 c 0,28,29
 463 1282 463 1282 418 1272 c 1,30,-1
 418 588 l 1,31,32
 450 581 450 581 489 576 c 0,33,34
 522 571 522 571 566 567.5 c 128,-1,35
 610 564 610 564 660 564 c 0,36,37
 725 564 725 564 797.5 567.5 c 128,-1,38
 870 571 870 571 941.5 584 c 128,-1,39
 1013 597 1013 597 1077.5 622.5 c 128,-1,40
 1142 648 1142 648 1191.5 690.5 c 128,-1,41
 1241 733 1241 733 1270.5 796 c 128,-1,42
 1300 859 1300 859 1300 948 c 0,43,44
 1300 1022 1300 1022 1276 1078 c 128,-1,45
 1252 1134 1252 1134 1211 1174 c 128,-1,46
 1170 1214 1170 1214 1115.5 1240 c 128,-1,47
 1061 1266 1061 1266 999.5 1281 c 128,-1,48
 938 1296 938 1296 873.5 1302 c 128,-1,49
 809 1308 809 1308 748 1308 c 0,25,26
EndSplineSet
EndChar

StartChar: Q
Encoding: 81 81 16
Width: 1734
Flags: W
HStem: 0 222<573.423 1044.69> 1300 222<573.329 1173.72>
VStem: 134 262<342.229 1178.43> 1348 264<342.302 1178.43>
DStem2: 1264 52 1046 10 0.251634 -0.967822<-2.10224 309.974>
LayerCount: 2
Fore
SplineSet
872 1522 m 0,0,1
 972 1522 972 1522 1066 1510 c 128,-1,2
 1160 1498 1160 1498 1242.5 1475.5 c 128,-1,3
 1325 1453 1325 1453 1393 1421.5 c 128,-1,4
 1461 1390 1461 1390 1509.5 1350 c 128,-1,5
 1558 1310 1558 1310 1585 1262.5 c 128,-1,6
 1612 1215 1612 1215 1612 1162 c 2,7,-1
 1612 360 l 2,8,9
 1612 308 1612 308 1586.5 262 c 128,-1,10
 1561 216 1561 216 1515 177 c 128,-1,11
 1469 138 1469 138 1405 106 c 128,-1,12
 1341 74 1341 74 1264 52 c 1,13,14
 1287 -23 1287 -23 1305.5 -97 c 128,-1,15
 1324 -171 1324 -171 1342 -248 c 1,16,-1
 1118 -338 l 1,17,18
 1114 -296 1114 -296 1104 -242 c 0,19,20
 1096 -196 1096 -196 1082 -132 c 128,-1,21
 1068 -68 1068 -68 1046 10 c 1,22,23
 1004 4 1004 4 960 2 c 128,-1,24
 916 0 916 0 872 0 c 0,25,26
 771 0 771 0 677.5 12 c 128,-1,27
 584 24 584 24 502 46.5 c 128,-1,28
 420 69 420 69 352.5 100.5 c 128,-1,29
 285 132 285 132 236.5 172 c 128,-1,30
 188 212 188 212 161 259.5 c 128,-1,31
 134 307 134 307 134 360 c 2,32,-1
 134 1162 l 2,33,34
 134 1215 134 1215 161 1262.5 c 128,-1,35
 188 1310 188 1310 236 1350 c 128,-1,36
 284 1390 284 1390 352 1421.5 c 128,-1,37
 420 1453 420 1453 502 1475.5 c 128,-1,38
 584 1498 584 1498 677.5 1510 c 128,-1,39
 771 1522 771 1522 872 1522 c 0,0,1
1348 1084 m 2,40,41
 1348 1127 1348 1127 1315.5 1166 c 128,-1,42
 1283 1205 1283 1205 1221.5 1235 c 128,-1,43
 1160 1265 1160 1265 1072 1282.5 c 128,-1,44
 984 1300 984 1300 872 1300 c 0,45,46
 765 1300 765 1300 677.5 1283 c 128,-1,47
 590 1266 590 1266 527.5 1237 c 128,-1,48
 465 1208 465 1208 430.5 1168.5 c 128,-1,49
 396 1129 396 1129 396 1084 c 2,50,-1
 396 436 l 2,51,52
 396 392 396 392 430.5 353 c 128,-1,53
 465 314 465 314 527.5 285 c 128,-1,54
 590 256 590 256 677.5 239 c 128,-1,55
 765 222 765 222 872 222 c 0,56,57
 984 222 984 222 1072 239.5 c 128,-1,58
 1160 257 1160 257 1221.5 286.5 c 128,-1,59
 1283 316 1283 316 1315.5 354.5 c 128,-1,60
 1348 393 1348 393 1348 436 c 2,61,-1
 1348 1084 l 2,40,41
EndSplineSet
EndChar

StartChar: R
Encoding: 82 82 17
Width: 1686
Flags: W
HStem: 346 218<462.157 1079.89> 360 228<460 700.439 704.033 737.843 743.592 1141.09> 1308 220<461.408 1101.16>
VStem: 212 248<2 360 579.674 1280.94> 1292 256<-2 235.319> 1342 264<767.303 1117.55>
LayerCount: 2
Fore
SplineSet
718 1528 m 0,0,1
 818 1528 818 1528 922.5 1518.5 c 128,-1,2
 1027 1509 1027 1509 1126 1485.5 c 128,-1,3
 1225 1462 1225 1462 1312 1420.5 c 128,-1,4
 1399 1379 1399 1379 1464.5 1315.5 c 128,-1,5
 1530 1252 1530 1252 1568 1163.5 c 128,-1,6
 1606 1075 1606 1075 1606 956 c 0,7,8
 1606 792 1606 792 1547 679.5 c 128,-1,9
 1488 567 1488 567 1386 498 c 1,10,11
 1429 432 1429 432 1460 360 c 128,-1,12
 1491 288 1491 288 1510.5 220.5 c 128,-1,13
 1530 153 1530 153 1539 95 c 128,-1,14
 1548 37 1548 37 1548 -2 c 1,15,-1
 1292 -2 l 1,16,17
 1292 59 1292 59 1282 113.5 c 128,-1,18
 1272 168 1272 168 1254 217.5 c 128,-1,19
 1236 267 1236 267 1212.5 311 c 128,-1,20
 1189 355 1189 355 1162 396 c 1,21,22
 1067 369 1067 369 961 357.5 c 128,-1,23
 855 346 855 346 740 346 c 0,24,25
 671 346 671 346 600 350 c 128,-1,26
 529 354 529 354 460 360 c 1,27,-1
 460 2 l 1,28,-1
 212 2 l 1,29,-1
 212 1470 l 1,30,31
 234 1477 234 1477 282.5 1487 c 128,-1,32
 331 1497 331 1497 397.5 1506 c 128,-1,33
 464 1515 464 1515 546 1521.5 c 128,-1,34
 628 1528 628 1528 718 1528 c 0,0,1
790 1308 m 0,35,36
 724 1308 724 1308 664 1302.5 c 128,-1,37
 604 1297 604 1297 559 1290 c 0,38,39
 505 1282 505 1282 460 1272 c 1,40,-1
 460 588 l 1,41,42
 492 581 492 581 531 576 c 0,43,44
 564 571 564 571 608 567.5 c 128,-1,45
 652 564 652 564 702 564 c 0,46,47
 767 564 767 564 839.5 567.5 c 128,-1,48
 912 571 912 571 983.5 584 c 128,-1,49
 1055 597 1055 597 1119.5 622.5 c 128,-1,50
 1184 648 1184 648 1233.5 690.5 c 128,-1,51
 1283 733 1283 733 1312.5 796 c 128,-1,52
 1342 859 1342 859 1342 948 c 0,53,54
 1342 1022 1342 1022 1318 1078 c 128,-1,55
 1294 1134 1294 1134 1253 1174 c 128,-1,56
 1212 1214 1212 1214 1157.5 1240 c 128,-1,57
 1103 1266 1103 1266 1041.5 1281 c 128,-1,58
 980 1296 980 1296 915.5 1302 c 128,-1,59
 851 1308 851 1308 790 1308 c 0,35,36
EndSplineSet
EndChar

StartChar: U
Encoding: 85 85 18
Width: 2002
Flags: W
HStem: -20 218<703.004 1298.48>
VStem: 276 256<314.469 1238> 1470 256<316.886 1238>
LayerCount: 2
Fore
SplineSet
532 408 m 2,0,1
 532 364 532 364 565.5 326 c 128,-1,2
 599 288 599 288 660.5 259.5 c 128,-1,3
 722 231 722 231 808.5 214.5 c 128,-1,4
 895 198 895 198 1002 198 c 0,5,6
 1111 198 1111 198 1198 215.5 c 128,-1,7
 1285 233 1285 233 1345.5 262 c 128,-1,8
 1406 291 1406 291 1438 329 c 128,-1,9
 1470 367 1470 367 1470 408 c 2,10,-1
 1470 1500 l 1,11,12
 1556 1496 1556 1496 1632 1488.5 c 128,-1,13
 1708 1481 1708 1481 1767 1473 c 0,14,15
 1835 1464 1835 1464 1894 1454 c 1,16,-1
 1894 1198 l 1,17,18
 1870 1206 1870 1206 1825 1217.5 c 128,-1,19
 1780 1229 1780 1229 1726 1238 c 1,20,-1
 1726 334 l 2,21,22
 1726 255 1726 255 1668.5 190 c 128,-1,23
 1611 125 1611 125 1512.5 78.5 c 128,-1,24
 1414 32 1414 32 1282 6 c 128,-1,25
 1150 -20 1150 -20 1002 -20 c 0,26,27
 853 -20 853 -20 721 6 c 128,-1,28
 589 32 589 32 490 78.5 c 128,-1,29
 391 125 391 125 333.5 190 c 128,-1,30
 276 255 276 255 276 334 c 2,31,-1
 276 1238 l 1,32,33
 222 1227 222 1227 176.5 1216.5 c 128,-1,34
 131 1206 131 1206 108 1198 c 1,35,-1
 108 1454 l 1,36,37
 165 1464 165 1464 234 1473 c 0,38,39
 292 1481 292 1481 369 1488.5 c 128,-1,40
 446 1496 446 1496 532 1500 c 1,41,-1
 532 408 l 2,0,1
EndSplineSet
EndChar

StartChar: T
Encoding: 84 84 19
Width: 1446
Flags: W
HStem: 1292 228<188.317 604 842 1257.41>
VStem: 604 238<-2 1292>
DStem2: 1048 1509 1077 1275 0.989182 -0.146694<-167.877 362.413>
LayerCount: 2
Fore
SplineSet
722 1520 m 0,0,1
 877 1520 877 1520 1048 1509 c 128,-1,2
 1219 1498 1219 1498 1408 1466 c 1,3,-1
 1408 1212 l 1,4,5
 1341 1231 1341 1231 1255 1248 c 0,6,7
 1181 1262 1181 1262 1077 1275 c 128,-1,8
 973 1288 973 1288 842 1292 c 1,9,-1
 842 -2 l 1,10,-1
 604 -2 l 1,11,-1
 604 1292 l 1,12,13
 473 1288 473 1288 369 1275 c 128,-1,14
 265 1262 265 1262 191 1248 c 0,15,16
 105 1231 105 1231 38 1212 c 1,17,-1
 38 1466 l 1,18,19
 225 1498 225 1498 398 1509 c 128,-1,20
 571 1520 571 1520 722 1520 c 0,0,1
EndSplineSet
EndChar

StartChar: S
Encoding: 83 83 20
Width: 1660
Flags: W
HStem: 2 220<484.502 1174.74> 666 202<350 1308> 1306 218<484.252 1172.65>
VStem: 90 260<319.004 353.97 868 1208.55> 1308 260<319.39 666 1174.03 1208.07>
LayerCount: 2
Fore
SplineSet
832 1524 m 0,0,1
 968 1524 968 1524 1095.5 1507.5 c 128,-1,2
 1223 1491 1223 1491 1324.5 1451.5 c 128,-1,3
 1426 1412 1426 1412 1491.5 1345 c 128,-1,4
 1557 1278 1557 1278 1568 1178 c 1,5,-1
 1308 1106 l 1,6,7
 1308 1166 1308 1166 1267.5 1204.5 c 128,-1,8
 1227 1243 1227 1243 1160.5 1265.5 c 128,-1,9
 1094 1288 1094 1288 1008.5 1297 c 128,-1,10
 923 1306 923 1306 832 1306 c 0,11,12
 743 1306 743 1306 657 1298 c 128,-1,13
 571 1290 571 1290 502.5 1268 c 128,-1,14
 434 1246 434 1246 392 1207 c 128,-1,15
 350 1168 350 1168 350 1106 c 2,16,-1
 350 868 l 1,17,-1
 1568 868 l 1,18,-1
 1568 350 l 2,19,20
 1568 283 1568 283 1538.5 230.5 c 128,-1,21
 1509 178 1509 178 1457.5 139.5 c 128,-1,22
 1406 101 1406 101 1335.5 74.5 c 128,-1,23
 1265 48 1265 48 1183.5 32 c 128,-1,24
 1102 16 1102 16 1012 9 c 128,-1,25
 922 2 922 2 832 2 c 0,26,27
 740 2 740 2 651 9 c 128,-1,28
 562 16 562 16 482 32 c 128,-1,29
 402 48 402 48 333.5 74.5 c 128,-1,30
 265 101 265 101 213 139.5 c 128,-1,31
 161 178 161 178 129 230 c 128,-1,32
 97 282 97 282 90 350 c 1,33,-1
 350 422 l 1,34,35
 350 360 350 360 392 321 c 128,-1,36
 434 282 434 282 502.5 260 c 128,-1,37
 571 238 571 238 657 230 c 128,-1,38
 743 222 743 222 832 222 c 0,39,40
 923 222 923 222 1008.5 230.5 c 128,-1,41
 1094 239 1094 239 1160.5 261.5 c 128,-1,42
 1227 284 1227 284 1267.5 323 c 128,-1,43
 1308 362 1308 362 1308 422 c 2,44,-1
 1308 666 l 1,45,-1
 90 666 l 1,46,-1
 90 1178 l 2,47,48
 90 1245 90 1245 119.5 1296.5 c 128,-1,49
 149 1348 149 1348 200.5 1386.5 c 128,-1,50
 252 1425 252 1425 323 1451.5 c 128,-1,51
 394 1478 394 1478 476.5 1494 c 128,-1,52
 559 1510 559 1510 649.5 1517 c 128,-1,53
 740 1524 740 1524 832 1524 c 0,0,1
EndSplineSet
EndChar

StartChar: E
Encoding: 69 69 21
Width: 1652
Flags: W
HStem: 0 226<424.076 1386.89> 656 246<420 1294> 1296 226<423.84 1381.15>
VStem: 172 248<248.21 656 902 1272.08>
DStem2: 1182.5 1511 1199.5 1278 0.989038 -0.147663<-288.541 361.909> 1202 243 1183 11 0.989025 0.147748<-339.336 308.344>
LayerCount: 2
Fore
SplineSet
856 1522 m 0,0,1
 1010 1522 1010 1522 1182.5 1511 c 128,-1,2
 1355 1500 1355 1500 1542 1468 c 1,3,-1
 1542 1214 l 1,4,5
 1458 1238 1458 1238 1372 1253.5 c 128,-1,6
 1286 1269 1286 1269 1199.5 1278 c 128,-1,7
 1113 1287 1113 1287 1027 1291 c 128,-1,8
 941 1295 941 1295 856 1296 c 0,9,10
 815 1296 815 1296 765.5 1294.5 c 128,-1,11
 716 1293 716 1293 660.5 1290 c 128,-1,12
 605 1287 605 1287 544 1281 c 128,-1,13
 483 1275 483 1275 420 1266 c 1,14,-1
 420 902 l 1,15,-1
 1294 902 l 1,16,-1
 1294 656 l 1,17,-1
 420 656 l 1,18,-1
 420 254 l 1,19,20
 517 240 517 240 622 233 c 128,-1,21
 727 226 727 226 856 226 c 0,22,23
 1030 226 1030 226 1202 243 c 128,-1,24
 1374 260 1374 260 1542 308 c 1,25,-1
 1542 54 l 1,26,27
 1355 22 1355 22 1183 11 c 128,-1,28
 1011 0 1011 0 860 0 c 0,29,30
 706 0 706 0 533.5 11 c 128,-1,31
 361 22 361 22 172 54 c 1,32,-1
 172 1468 l 1,33,34
 361 1500 361 1500 533 1511 c 128,-1,35
 705 1522 705 1522 856 1522 c 0,0,1
EndSplineSet
EndChar

StartChar: J
Encoding: 74 74 22
Width: 1656
Flags: W
HStem: 2 220<444.502 1134.74> 1260 250.5<680.229 1262.23> 1292 230<230.445 1262.23>
VStem: 1268 260<319.39 1265.89>
LayerCount: 2
Fore
SplineSet
790 1522 m 0,0,1
 953 1522 953 1522 1138.5 1510.5 c 128,-1,2
 1324 1499 1324 1499 1528 1466 c 1,3,-1
 1528 350 l 2,4,5
 1528 283 1528 283 1498.5 230.5 c 128,-1,6
 1469 178 1469 178 1417.5 139.5 c 128,-1,7
 1366 101 1366 101 1295.5 74.5 c 128,-1,8
 1225 48 1225 48 1143.5 32 c 128,-1,9
 1062 16 1062 16 972 9 c 128,-1,10
 882 2 882 2 792 2 c 0,11,12
 700 2 700 2 611 9 c 128,-1,13
 522 16 522 16 442 32 c 128,-1,14
 362 48 362 48 293.5 74.5 c 128,-1,15
 225 101 225 101 173 139.5 c 128,-1,16
 121 178 121 178 89 230 c 128,-1,17
 57 282 57 282 50 350 c 1,18,-1
 310 422 l 1,19,20
 310 360 310 360 352 321 c 128,-1,21
 394 282 394 282 462.5 260 c 128,-1,22
 531 238 531 238 617 230 c 128,-1,23
 703 222 703 222 792 222 c 0,24,25
 883 222 883 222 968.5 230.5 c 128,-1,26
 1054 239 1054 239 1120.5 261.5 c 128,-1,27
 1187 284 1187 284 1227.5 323 c 128,-1,28
 1268 362 1268 362 1268 422 c 2,29,-1
 1268 1260 l 1,30,31
 1168 1274 1168 1274 1053.5 1283 c 128,-1,32
 939 1292 939 1292 820 1292 c 2,33,-1
 786 1292 l 1,34,35
 617 1290 617 1290 446.5 1275.5 c 128,-1,36
 276 1261 276 1261 98 1222 c 1,37,-1
 98 1474 l 1,38,39
 288 1503 288 1503 461.5 1512.5 c 128,-1,40
 635 1522 635 1522 790 1522 c 0,0,1
EndSplineSet
EndChar

StartChar: eight
Encoding: 56 56 23
Width: 1842
Flags: W
HStem: 0 226<511.84 1379.96> 656 246<508 1384> 1296 226<511.367 1379.49>
VStem: 260 248<248.309 656 902 1266> 1384 246<248.57 656 902 1272.01>
LayerCount: 2
Fore
SplineSet
942 1522 m 0,0,1
 1097 1522 1097 1522 1270 1511 c 128,-1,2
 1443 1500 1443 1500 1630 1468 c 1,3,-1
 1630 54 l 1,4,5
 1443 22 1443 22 1271 11 c 128,-1,6
 1099 0 1099 0 948 0 c 0,7,8
 793 0 793 0 621 11 c 128,-1,9
 449 22 449 22 260 54 c 1,10,-1
 260 1468 l 1,11,12
 449 1500 449 1500 620 1511 c 128,-1,13
 791 1522 791 1522 942 1522 c 0,0,1
944 226 m 256,14,15
 974 226 974 226 1004 226 c 128,-1,16
 1034 226 1034 226 1064 228 c 1,17,18
 1161 231 1161 231 1238.5 238 c 128,-1,19
 1316 245 1316 245 1384 254 c 1,20,-1
 1384 656 l 1,21,-1
 508 656 l 1,22,-1
 508 254 l 1,23,24
 573 245 573 245 652.5 238 c 128,-1,25
 732 231 732 231 826 228 c 1,26,27
 856 226 856 226 885 226 c 128,-1,28
 914 226 914 226 944 226 c 256,14,15
944 1296 m 1,29,30
 852 1294 852 1294 785 1290.5 c 128,-1,31
 718 1287 718 1287 667 1283 c 128,-1,32
 616 1279 616 1279 578 1274.5 c 128,-1,33
 540 1270 540 1270 508 1266 c 1,34,-1
 508 902 l 1,35,-1
 1384 902 l 1,36,-1
 1384 1266 l 1,37,38
 1263 1283 1263 1283 1156.5 1289.5 c 128,-1,39
 1050 1296 1050 1296 944 1296 c 1,29,30
EndSplineSet
EndChar

StartChar: nine
Encoding: 57 57 24
Width: 1772
Flags: W
HStem: 0 226<364.945 1322.16> 656 246<450 1326> 1296 226<454.035 1321.92>
VStem: 204 246<902 1266> 1326 248<248.57 656 902 1271.74>
DStem2: 357 272 204 54 0.98905 -0.147578<-119.153 545.211>
LayerCount: 2
Fore
SplineSet
886 1522 m 0,0,1
 1040 1522 1040 1522 1212.5 1511 c 128,-1,2
 1385 1500 1385 1500 1574 1468 c 1,3,-1
 1574 54 l 1,4,5
 1385 22 1385 22 1213 11 c 128,-1,6
 1041 0 1041 0 892 0 c 0,7,8
 737 0 737 0 564 11 c 128,-1,9
 391 22 391 22 204 54 c 1,10,-1
 204 308 l 1,11,12
 271 289 271 289 357 272 c 0,13,14
 431 258 431 258 535 245 c 128,-1,15
 639 232 639 232 770 228 c 1,16,17
 800 226 800 226 829 226 c 128,-1,18
 858 226 858 226 888 226 c 256,19,20
 918 226 918 226 947.5 226 c 128,-1,21
 977 226 977 226 1006 228 c 1,22,23
 1103 231 1103 231 1180.5 238 c 128,-1,24
 1258 245 1258 245 1326 254 c 1,25,-1
 1326 656 l 1,26,-1
 204 656 l 1,27,-1
 204 1468 l 1,28,29
 391 1500 391 1500 563 1511 c 128,-1,30
 735 1522 735 1522 886 1522 c 0,0,1
888 1296 m 1,31,32
 796 1294 796 1294 728.5 1290.5 c 128,-1,33
 661 1287 661 1287 610 1283 c 128,-1,34
 559 1279 559 1279 521 1274.5 c 128,-1,35
 483 1270 483 1270 450 1266 c 1,36,-1
 450 902 l 1,37,-1
 1326 902 l 1,38,-1
 1326 1266 l 1,39,40
 1220 1281 1220 1281 1113 1287.5 c 128,-1,41
 1006 1294 1006 1294 888 1296 c 1,31,32
EndSplineSet
EndChar

StartChar: zero
Encoding: 48 48 25
Width: 1738
Flags: W
HStem: 0 226<435.84 1303.96> 1296 226<435.367 1303.49>
VStem: 184 248<248.309 1271.9> 1308 246<248.57 1272.43>
DStem2: 544 1511 432 1266 0.992563 0.121729<-140.991 292.571> 1194 1511 1211.5 1278.5 0.989038 -0.147664<-289.069 148.928>
LayerCount: 2
Fore
SplineSet
866 1522 m 0,0,1
 1021 1522 1021 1522 1194 1511 c 128,-1,2
 1367 1500 1367 1500 1554 1468 c 1,3,-1
 1554 54 l 1,4,5
 1367 22 1367 22 1195 11 c 128,-1,6
 1023 0 1023 0 872 0 c 0,7,8
 717 0 717 0 545 11 c 128,-1,9
 373 22 373 22 184 54 c 1,10,-1
 184 1468 l 1,11,12
 373 1500 373 1500 544 1511 c 128,-1,13
 715 1522 715 1522 866 1522 c 0,0,1
868 226 m 256,14,15
 898 226 898 226 928 226 c 128,-1,16
 958 226 958 226 988 228 c 1,17,18
 1085 231 1085 231 1162.5 238 c 128,-1,19
 1240 245 1240 245 1308 254 c 1,20,-1
 1308 1266 l 1,21,22
 1266 1273 1266 1273 1211.5 1278.5 c 128,-1,23
 1157 1284 1157 1284 1098.5 1288 c 128,-1,24
 1040 1292 1040 1292 980 1294 c 128,-1,25
 920 1296 920 1296 868 1296 c 0,26,27
 776 1296 776 1296 709 1293 c 128,-1,28
 642 1290 642 1290 591 1285.5 c 128,-1,29
 540 1281 540 1281 502 1275.5 c 128,-1,30
 464 1270 464 1270 432 1266 c 1,31,-1
 432 254 l 1,32,33
 497 245 497 245 576.5 238 c 128,-1,34
 656 231 656 231 750 228 c 1,35,36
 780 226 780 226 809 226 c 128,-1,37
 838 226 838 226 868 226 c 256,14,15
EndSplineSet
EndChar

StartChar: three
Encoding: 51 51 26
Width: 1658
Flags: W
HStem: 0 226<306.121 1263.96> 656 246<386 1268> 1296 226<294.592 1263.49>
VStem: 1268 246<248.57 656 902 1272.43>
DStem2: 144 1468 312 1255 0.988283 0.152635<0 639.856> 297 272 144 54 0.989207 -0.146526<-119.406 549.843> 1154 1511 1171.5 1278.5 0.989038 -0.147664<-289.069 148.928>
LayerCount: 2
Fore
SplineSet
826 1522 m 0,0,1
 981 1522 981 1522 1154 1511 c 128,-1,2
 1327 1500 1327 1500 1514 1468 c 1,3,-1
 1514 54 l 1,4,5
 1327 22 1327 22 1155 11 c 128,-1,6
 983 0 983 0 832 0 c 0,7,8
 677 0 677 0 505 11 c 128,-1,9
 333 22 333 22 144 54 c 1,10,-1
 144 308 l 1,11,12
 211 289 211 289 297 272 c 0,13,14
 371 258 371 258 475 245 c 128,-1,15
 579 232 579 232 710 228 c 1,16,17
 740 226 740 226 769 226 c 128,-1,18
 798 226 798 226 828 226 c 256,19,20
 858 226 858 226 888 226 c 128,-1,21
 918 226 918 226 948 228 c 1,22,23
 1045 231 1045 231 1122.5 238 c 128,-1,24
 1200 245 1200 245 1268 254 c 1,25,-1
 1268 656 l 1,26,-1
 386 656 l 1,27,-1
 386 902 l 1,28,-1
 1268 902 l 1,29,-1
 1268 1266 l 1,30,31
 1226 1273 1226 1273 1171.5 1278.5 c 128,-1,32
 1117 1284 1117 1284 1058.5 1288 c 128,-1,33
 1000 1292 1000 1292 940 1294 c 128,-1,34
 880 1296 880 1296 828 1296 c 0,35,36
 653 1296 653 1296 525 1283 c 128,-1,37
 397 1270 397 1270 312 1255 c 0,38,39
 213 1237 213 1237 144 1214 c 1,40,-1
 144 1468 l 1,41,42
 333 1500 333 1500 504 1511 c 128,-1,43
 675 1522 675 1522 826 1522 c 0,0,1
EndSplineSet
EndChar

StartChar: four
Encoding: 52 52 27
Width: 1658
Flags: W
HStem: 0 21G<1248 1496> 656 246<370 1248>
VStem: 124 246<902 1496> 1248 248<0 656 902 1496>
LayerCount: 2
Fore
SplineSet
370 1496 m 1,0,-1
 370 902 l 1,1,-1
 1248 902 l 1,2,-1
 1248 1496 l 1,3,-1
 1496 1496 l 1,4,-1
 1496 0 l 1,5,-1
 1248 0 l 1,6,-1
 1248 656 l 1,7,-1
 124 656 l 1,8,-1
 124 1496 l 1,9,-1
 370 1496 l 1,0,-1
EndSplineSet
EndChar

StartChar: six
Encoding: 54 54 28
Width: 1794
Flags: W
HStem: 0 226<473.84 1341.96> 656 246<470 1346> 1296 226<473.367 1414.13>
VStem: 222 248<248.309 656 902 1269.63> 1346 246<248.57 656>
LayerCount: 2
Fore
SplineSet
904 1522 m 0,0,1
 1059 1522 1059 1522 1232 1511 c 128,-1,2
 1405 1500 1405 1500 1592 1468 c 1,3,-1
 1592 1214 l 1,4,5
 1523 1233 1523 1233 1424 1250 c 0,6,7
 1339 1264 1339 1264 1210.5 1277.5 c 128,-1,8
 1082 1291 1082 1291 906 1296 c 1,9,10
 764 1291 764 1291 657.5 1283 c 128,-1,11
 551 1275 551 1275 470 1264 c 1,12,-1
 470 902 l 1,13,-1
 1592 902 l 1,14,-1
 1592 54 l 1,15,16
 1405 22 1405 22 1233 11 c 128,-1,17
 1061 0 1061 0 910 0 c 0,18,19
 755 0 755 0 583 11 c 128,-1,20
 411 22 411 22 222 54 c 1,21,-1
 222 1468 l 1,22,23
 411 1500 411 1500 582 1511 c 128,-1,24
 753 1522 753 1522 904 1522 c 0,0,1
906 226 m 256,25,26
 936 226 936 226 966 226 c 128,-1,27
 996 226 996 226 1026 228 c 1,28,29
 1123 231 1123 231 1200.5 238 c 128,-1,30
 1278 245 1278 245 1346 254 c 1,31,-1
 1346 656 l 1,32,-1
 470 656 l 1,33,-1
 470 254 l 1,34,35
 535 245 535 245 614.5 238 c 128,-1,36
 694 231 694 231 788 228 c 1,37,38
 818 226 818 226 847 226 c 128,-1,39
 876 226 876 226 906 226 c 256,25,26
EndSplineSet
EndChar

StartChar: five
Encoding: 53 53 29
Width: 1696
Flags: W
HStem: 0 226<326.945 1284.16> 656 246<412 1288> 1296 226<416.035 1379.47>
VStem: 166 246<902 1266> 1288 248<248.57 656>
DStem2: 319 272 166 54 0.98905 -0.147578<-119.153 545.211> 525 1511 412 1266 0.991792 0.127862<-143.399 317.07>
LayerCount: 2
Fore
SplineSet
848 1522 m 0,0,1
 1002 1522 1002 1522 1174.5 1511 c 128,-1,2
 1347 1500 1347 1500 1536 1468 c 1,3,-1
 1536 1214 l 1,4,5
 1460 1237 1460 1237 1358 1255 c 0,6,7
 1270 1270 1270 1270 1143 1283 c 128,-1,8
 1016 1296 1016 1296 850 1296 c 2,9,-1
 792 1296 l 2,10,11
 715 1296 715 1296 657.5 1292.5 c 128,-1,12
 600 1289 600 1289 555.5 1284.5 c 128,-1,13
 511 1280 511 1280 476.5 1275 c 128,-1,14
 442 1270 442 1270 412 1266 c 1,15,-1
 412 902 l 1,16,-1
 1536 902 l 1,17,-1
 1536 54 l 1,18,19
 1347 22 1347 22 1175 11 c 128,-1,20
 1003 0 1003 0 854 0 c 0,21,22
 699 0 699 0 526 11 c 128,-1,23
 353 22 353 22 166 54 c 1,24,-1
 166 308 l 1,25,26
 233 289 233 289 319 272 c 0,27,28
 393 258 393 258 497 245 c 128,-1,29
 601 232 601 232 732 228 c 1,30,31
 762 226 762 226 791 226 c 128,-1,32
 820 226 820 226 850 226 c 256,33,34
 880 226 880 226 909.5 226 c 128,-1,35
 939 226 939 226 968 228 c 1,36,37
 1065 231 1065 231 1142.5 238 c 128,-1,38
 1220 245 1220 245 1288 254 c 1,39,-1
 1288 656 l 1,40,-1
 166 656 l 1,41,-1
 166 1468 l 1,42,43
 353 1500 353 1500 525 1511 c 128,-1,44
 697 1522 697 1522 848 1522 c 0,0,1
EndSplineSet
EndChar

StartChar: two
Encoding: 50 50 30
Width: 1772
Flags: W
HStem: 0 226<480.508 1348.63> 54 390<1354.16 1600> 656 246<476 1352> 1296 226<480.035 1348.16>
VStem: 230 246<248.309 656 1114 1271.74> 1352 248<248.309 444 902 1272.62>
DStem2: 589 1511 476 1266 0.992655 0.12098<-141.81 293.754> 1239 1511 1256 1278.5 0.988985 -0.148015<-287.988 148.019>
LayerCount: 2
Fore
SplineSet
912 1522 m 0,0,1
 1067 1522 1067 1522 1239 1511 c 128,-1,2
 1411 1500 1411 1500 1600 1468 c 1,3,-1
 1600 656 l 1,4,-1
 476 656 l 1,5,-1
 476 254 l 1,6,7
 542 245 542 245 622 238 c 128,-1,8
 702 231 702 231 796 228 c 1,9,10
 826 226 826 226 855 226 c 128,-1,11
 884 226 884 226 914 226 c 256,12,13
 944 226 944 226 974 226 c 128,-1,14
 1004 226 1004 226 1034 228 c 1,15,16
 1129 231 1129 231 1207.5 238 c 128,-1,17
 1286 245 1286 245 1352 254 c 1,18,-1
 1352 444 l 1,19,-1
 1600 444 l 1,20,-1
 1600 54 l 1,21,22
 1411 22 1411 22 1240 11 c 128,-1,23
 1069 0 1069 0 918 0 c 0,24,25
 763 0 763 0 590 11 c 128,-1,26
 417 22 417 22 230 54 c 1,27,-1
 230 902 l 1,28,-1
 1352 902 l 1,29,-1
 1352 1266 l 1,30,31
 1310 1273 1310 1273 1256 1278.5 c 128,-1,32
 1202 1284 1202 1284 1143.5 1288 c 128,-1,33
 1085 1292 1085 1292 1025.5 1294 c 128,-1,34
 966 1296 966 1296 914 1296 c 0,35,36
 822 1296 822 1296 754.5 1293 c 128,-1,37
 687 1290 687 1290 636 1285.5 c 128,-1,38
 585 1281 585 1281 547 1275.5 c 128,-1,39
 509 1270 509 1270 476 1266 c 1,40,-1
 476 1114 l 1,41,-1
 230 1114 l 1,42,-1
 230 1468 l 1,43,44
 417 1500 417 1500 589 1511 c 128,-1,45
 761 1522 761 1522 912 1522 c 0,0,1
EndSplineSet
EndChar

StartChar: seven
Encoding: 55 55 31
Width: 1658
Flags: W
HStem: 0 21G<1214 1460> 656 246<330 1214> 1296 226<239.462 1210.22>
VStem: 1214 246<0 656 902 1272.01>
DStem2: 90 1468 258 1255 0.988283 0.152635<0 639.836>
LayerCount: 2
Fore
SplineSet
772 1522 m 0,0,1
 926 1522 926 1522 1098.5 1511 c 128,-1,2
 1271 1500 1271 1500 1460 1468 c 1,3,-1
 1460 0 l 1,4,-1
 1214 0 l 1,5,-1
 1214 656 l 1,6,-1
 330 656 l 1,7,-1
 330 902 l 1,8,-1
 1214 902 l 1,9,-1
 1214 1266 l 1,10,11
 1093 1283 1093 1283 986.5 1289.5 c 128,-1,12
 880 1296 880 1296 774 1296 c 0,13,14
 599 1296 599 1296 471 1283 c 128,-1,15
 343 1270 343 1270 258 1255 c 0,16,17
 159 1237 159 1237 90 1214 c 1,18,-1
 90 1468 l 1,19,20
 277 1500 277 1500 449 1511 c 128,-1,21
 621 1522 621 1522 772 1522 c 0,0,1
EndSplineSet
EndChar

StartChar: one
Encoding: 49 49 32
Width: 796
Flags: W
HStem: 0 21G<346 592>
VStem: 346 246<0 1262>
LayerCount: 2
Fore
SplineSet
592 0 m 1,0,-1
 346 0 l 1,1,-1
 346 1262 l 1,2,3
 289 1250 289 1250 241.5 1239 c 128,-1,4
 194 1228 194 1228 170 1220 c 1,5,-1
 170 1474 l 1,6,7
 227 1484 227 1484 295 1493 c 0,8,9
 353 1501 353 1501 429.5 1508.5 c 128,-1,10
 506 1516 506 1516 592 1520 c 1,11,-1
 592 0 l 1,0,-1
EndSplineSet
EndChar

StartChar: d
Encoding: 100 100 33
Width: 1584
Flags: W
HStem: 0 186<516.094 1155.06> 940 200<530.595 1083.48> 1502 20G<1170 1432>
VStem: 146 262<277.5 840.763> 1170 262<221.852 883.502 1068 1522>
DStem2: 1032.5 201 1305.5 48 0.981988 0.188942<-161.179 369.064>
LayerCount: 2
Fore
SplineSet
798 1140 m 0,0,1
 886 1140 886 1140 982.5 1120 c 128,-1,2
 1079 1100 1079 1100 1170 1068 c 1,3,-1
 1170 1522 l 1,4,-1
 1432 1522 l 1,5,-1
 1432 78 l 1,6,7
 1379 62 1379 62 1305.5 48 c 128,-1,8
 1232 34 1232 34 1148 23.5 c 128,-1,9
 1064 13 1064 13 973.5 6.5 c 128,-1,10
 883 0 883 0 798 0 c 0,11,12
 644 0 644 0 523 21.5 c 128,-1,13
 402 43 402 43 318 88 c 128,-1,14
 234 133 234 133 190 202 c 128,-1,15
 146 271 146 271 146 366 c 2,16,-1
 146 774 l 2,17,18
 146 869 146 869 190 938 c 128,-1,19
 234 1007 234 1007 318 1052 c 128,-1,20
 402 1097 402 1097 523 1118.5 c 128,-1,21
 644 1140 644 1140 798 1140 c 0,0,1
870 186 m 0,22,23
 910 186 910 186 951.5 190 c 128,-1,24
 993 194 993 194 1032.5 201 c 128,-1,25
 1072 208 1072 208 1107.5 217 c 128,-1,26
 1143 226 1143 226 1170 236 c 1,27,-1
 1170 864 l 1,28,29
 1101 897 1101 897 1028.5 918.5 c 128,-1,30
 956 940 956 940 870 940 c 0,31,32
 808 940 808 940 749.5 937.5 c 128,-1,33
 691 935 691 935 640 926.5 c 128,-1,34
 589 918 589 918 546 902.5 c 128,-1,35
 503 887 503 887 472.5 861 c 128,-1,36
 442 835 442 835 425 797 c 128,-1,37
 408 759 408 759 408 706 c 2,38,-1
 408 412 l 2,39,40
 408 331 408 331 445.5 285.5 c 128,-1,41
 483 240 483 240 546 218 c 128,-1,42
 609 196 609 196 693 191 c 128,-1,43
 777 186 777 186 870 186 c 0,22,23
EndSplineSet
EndChar

StartChar: h
Encoding: 104 104 34
Width: 1602
Flags: W
HStem: 0 21G<192 454 1202 1464> 932 208<629.912 1086.46> 1502 20G<192 454>
VStem: 192 262<0 841.873 1008 1522> 1202 262<0 826.257>
LayerCount: 2
Fore
SplineSet
884 1140 m 0,0,1
 1038 1140 1038 1140 1148 1114.5 c 128,-1,2
 1258 1089 1258 1089 1328.5 1038.5 c 128,-1,3
 1399 988 1399 988 1431.5 913 c 128,-1,4
 1464 838 1464 838 1464 738 c 2,5,-1
 1464 0 l 1,6,-1
 1202 0 l 1,7,-1
 1202 676 l 2,8,9
 1202 732 1202 732 1187 772.5 c 128,-1,10
 1172 813 1172 813 1146.5 841.5 c 128,-1,11
 1121 870 1121 870 1087 888 c 128,-1,12
 1053 906 1053 906 1016.5 915.5 c 128,-1,13
 980 925 980 925 942 928.5 c 128,-1,14
 904 932 904 932 870 932 c 0,15,16
 806 932 806 932 748 923 c 128,-1,17
 690 914 690 914 638 898.5 c 128,-1,18
 586 883 586 883 540 862 c 128,-1,19
 494 841 494 841 454 818 c 1,20,-1
 454 0 l 1,21,-1
 192 0 l 1,22,-1
 192 1522 l 1,23,-1
 454 1522 l 1,24,-1
 454 1008 l 1,25,26
 500 1036 500 1036 548 1060 c 128,-1,27
 596 1084 596 1084 648.5 1102 c 128,-1,28
 701 1120 701 1120 759.5 1130 c 128,-1,29
 818 1140 818 1140 884 1140 c 0,0,1
EndSplineSet
EndChar

StartChar: k
Encoding: 107 107 35
Width: 1530
Flags: W
HStem: 0 21G<178 418 1140 1396> 388 146<502.437 1042.1> 410 148<418 567.5> 944 196<599.909 1110.19> 1502 20G<178 418>
VStem: 178 240<0 410 558 842.919 1006 1522> 1140 256<0 236.708> 1190 256<626.429 869.828>
LayerCount: 2
Fore
SplineSet
874 1140 m 0,0,1
 1022 1140 1022 1140 1130 1115.5 c 128,-1,2
 1238 1091 1238 1091 1308.5 1043 c 128,-1,3
 1379 995 1379 995 1412.5 923.5 c 128,-1,4
 1446 852 1446 852 1446 758 c 0,5,6
 1446 700 1446 700 1432.5 653.5 c 128,-1,7
 1419 607 1419 607 1395 570.5 c 128,-1,8
 1371 534 1371 534 1336.5 506 c 128,-1,9
 1302 478 1302 478 1260 458 c 1,10,11
 1297 395 1297 395 1322.5 329 c 128,-1,12
 1348 263 1348 263 1364.5 202 c 128,-1,13
 1381 141 1381 141 1388.5 88.5 c 128,-1,14
 1396 36 1396 36 1396 0 c 1,15,-1
 1140 0 l 1,16,17
 1140 61 1140 61 1130 115 c 128,-1,18
 1120 169 1120 169 1102.5 218 c 128,-1,19
 1085 267 1085 267 1061.5 311 c 128,-1,20
 1038 355 1038 355 1012 396 c 1,21,22
 970 391 970 391 925.5 389.5 c 128,-1,23
 881 388 881 388 836 388 c 0,24,25
 726 388 726 388 619 395 c 128,-1,26
 512 402 512 402 418 410 c 1,27,-1
 418 0 l 1,28,-1
 178 0 l 1,29,-1
 178 1522 l 1,30,-1
 418 1522 l 1,31,-1
 418 1006 l 1,32,33
 510 1068 510 1068 625.5 1104 c 128,-1,34
 741 1140 741 1140 874 1140 c 0,0,1
868 944 m 0,35,36
 794 944 794 944 729 934 c 128,-1,37
 664 924 664 924 608 906.5 c 128,-1,38
 552 889 552 889 504.5 865.5 c 128,-1,39
 457 842 457 842 418 816 c 1,40,-1
 418 558 l 1,41,42
 440 557 440 557 479 553.5 c 128,-1,43
 518 550 518 550 567.5 545.5 c 128,-1,44
 617 541 617 541 673.5 537.5 c 128,-1,45
 730 534 730 534 788 534 c 0,46,47
 863 534 863 534 935 542.5 c 128,-1,48
 1007 551 1007 551 1064 574 c 128,-1,49
 1121 597 1121 597 1155.5 637 c 128,-1,50
 1190 677 1190 677 1190 740 c 0,51,52
 1190 813 1190 813 1159 854.5 c 128,-1,53
 1128 896 1128 896 1080 915.5 c 128,-1,54
 1032 935 1032 935 975.5 939.5 c 128,-1,55
 919 944 919 944 868 944 c 0,35,36
EndSplineSet
EndChar

StartChar: n
Encoding: 110 110 36
Width: 1620
Flags: W
HStem: 0 21G<208 470 1218 1480> 932 208<644.303 1104.06>
VStem: 208 262<0 841.873> 1218 262<0 826.257>
LayerCount: 2
Fore
SplineSet
208 826 m 1,0,1
 204 858 204 858 189.5 880 c 128,-1,2
 175 902 175 902 158 916 c 0,3,4
 139 933 139 933 116 944 c 1,5,-1
 228 1140 l 1,6,7
 265 1127 265 1127 302 1105 c 0,8,9
 333 1086 333 1086 367.5 1056.5 c 128,-1,10
 402 1027 402 1027 428 984 c 1,11,12
 478 1016 478 1016 530.5 1044.5 c 128,-1,13
 583 1073 583 1073 640.5 1094 c 128,-1,14
 698 1115 698 1115 761.5 1127.5 c 128,-1,15
 825 1140 825 1140 898 1140 c 0,16,17
 1052 1140 1052 1140 1162.5 1114.5 c 128,-1,18
 1273 1089 1273 1089 1343.5 1038.5 c 128,-1,19
 1414 988 1414 988 1447 913 c 128,-1,20
 1480 838 1480 838 1480 738 c 2,21,-1
 1480 0 l 1,22,-1
 1218 0 l 1,23,-1
 1218 676 l 2,24,25
 1218 732 1218 732 1203 772.5 c 128,-1,26
 1188 813 1188 813 1162.5 841.5 c 128,-1,27
 1137 870 1137 870 1103 888 c 128,-1,28
 1069 906 1069 906 1032.5 915.5 c 128,-1,29
 996 925 996 925 958 928.5 c 128,-1,30
 920 932 920 932 886 932 c 0,31,32
 822 932 822 932 764 923 c 128,-1,33
 706 914 706 914 654 898.5 c 128,-1,34
 602 883 602 883 556 862 c 128,-1,35
 510 841 510 841 470 818 c 1,36,-1
 470 0 l 1,37,-1
 208 0 l 1,38,-1
 208 826 l 1,0,1
EndSplineSet
EndChar

StartChar: o
Encoding: 111 111 37
Width: 1606
Flags: W
HStem: -20 202<543.012 1138.24> 962 196<546.891 1133.55>
VStem: 150 254<277.744 863.665> 1278 258<278.066 861.901>
LayerCount: 2
Fore
SplineSet
842 1158 m 0,0,1
 926 1158 926 1158 1009.5 1150 c 128,-1,2
 1093 1142 1093 1142 1170 1124 c 128,-1,3
 1247 1106 1247 1106 1314 1079 c 128,-1,4
 1381 1052 1381 1052 1430.5 1014 c 128,-1,5
 1480 976 1480 976 1508 926.5 c 128,-1,6
 1536 877 1536 877 1536 816 c 2,7,-1
 1536 298 l 2,8,9
 1536 244 1536 244 1508 199 c 128,-1,10
 1480 154 1480 154 1430.5 118.5 c 128,-1,11
 1381 83 1381 83 1314 57 c 128,-1,12
 1247 31 1247 31 1170 14 c 128,-1,13
 1093 -3 1093 -3 1009 -11.5 c 128,-1,14
 925 -20 925 -20 842 -20 c 256,15,16
 759 -20 759 -20 675.5 -11.5 c 128,-1,17
 592 -3 592 -3 515 14 c 128,-1,18
 438 31 438 31 371.5 57 c 128,-1,19
 305 83 305 83 255.5 118.5 c 128,-1,20
 206 154 206 154 178 198.5 c 128,-1,21
 150 243 150 243 150 298 c 2,22,-1
 150 816 l 2,23,24
 150 877 150 877 178 926.5 c 128,-1,25
 206 976 206 976 255.5 1014 c 128,-1,26
 305 1052 305 1052 371.5 1079 c 128,-1,27
 438 1106 438 1106 515 1124 c 128,-1,28
 592 1142 592 1142 675.5 1150 c 128,-1,29
 759 1158 759 1158 842 1158 c 0,0,1
404 362 m 2,30,31
 404 316 404 316 442.5 282.5 c 128,-1,32
 481 249 481 249 543 226.5 c 128,-1,33
 605 204 605 204 683.5 193 c 128,-1,34
 762 182 762 182 842 182 c 0,35,36
 926 182 926 182 1004.5 194 c 128,-1,37
 1083 206 1083 206 1144 228.5 c 128,-1,38
 1205 251 1205 251 1241.5 284.5 c 128,-1,39
 1278 318 1278 318 1278 362 c 2,40,-1
 1278 778 l 2,41,42
 1278 821 1278 821 1241.5 855.5 c 128,-1,43
 1205 890 1205 890 1144 913.5 c 128,-1,44
 1083 937 1083 937 1004.5 949.5 c 128,-1,45
 926 962 926 962 842 962 c 0,46,47
 762 962 762 962 683.5 950.5 c 128,-1,48
 605 939 605 939 543 916 c 128,-1,49
 481 893 481 893 442.5 858.5 c 128,-1,50
 404 824 404 824 404 778 c 2,51,-1
 404 362 l 2,30,31
EndSplineSet
EndChar

StartChar: p
Encoding: 112 112 38
Width: 1560
Flags: W
HStem: -380 21G<158 414> 0 208<457.06 1058.1> 934 214<422.795 1059.74>
VStem: 158 256<-380 60 234.52 901.26> 1254 250<383.482 764.661>
LayerCount: 2
Fore
SplineSet
158 1080 m 1,0,1
 186 1088 186 1088 240.5 1100 c 128,-1,2
 295 1112 295 1112 370 1122.5 c 128,-1,3
 445 1133 445 1133 537.5 1140.5 c 128,-1,4
 630 1148 630 1148 736 1148 c 0,5,6
 924 1148 924 1148 1067.5 1120 c 128,-1,7
 1211 1092 1211 1092 1308 1025 c 128,-1,8
 1405 958 1405 958 1454.5 847 c 128,-1,9
 1504 736 1504 736 1504 570 c 0,10,11
 1504 407 1504 407 1450 297.5 c 128,-1,12
 1396 188 1396 188 1302 122 c 128,-1,13
 1208 56 1208 56 1082 28 c 128,-1,14
 956 0 956 0 812 0 c 0,15,16
 694 0 694 0 593 14 c 128,-1,17
 492 28 492 28 414 60 c 1,18,-1
 414 -380 l 1,19,-1
 158 -380 l 1,20,-1
 158 1080 l 1,0,1
748 934 m 0,21,22
 683 934 683 934 632.5 930 c 128,-1,23
 582 926 582 926 541.5 919.5 c 128,-1,24
 501 913 501 913 470 904.5 c 128,-1,25
 439 896 439 896 414 886 c 1,26,-1
 414 246 l 1,27,28
 457 234 457 234 494.5 226.5 c 128,-1,29
 532 219 532 219 575.5 215 c 128,-1,30
 619 211 619 211 675.5 209.5 c 128,-1,31
 732 208 732 208 812 208 c 0,32,33
 930 208 930 208 1013.5 235.5 c 128,-1,34
 1097 263 1097 263 1150.5 311 c 128,-1,35
 1204 359 1204 359 1229 425.5 c 128,-1,36
 1254 492 1254 492 1254 570 c 0,37,38
 1254 676 1254 676 1220 746 c 128,-1,39
 1186 816 1186 816 1121 858 c 128,-1,40
 1056 900 1056 900 962 917 c 128,-1,41
 868 934 868 934 748 934 c 0,21,22
EndSplineSet
EndChar

StartChar: q
Encoding: 113 113 39
Width: 1594
Flags: W
HStem: -380 21G<1176 1438> 0 200<536.595 1095.32> 954 186<521.474 1153.98>
VStem: 152 262<299.237 862.5> 1176 262<-380 70 255.281 916.418>
LayerCount: 2
Fore
SplineSet
804 1140 m 0,0,1
 889 1140 889 1140 979.5 1133.5 c 128,-1,2
 1070 1127 1070 1127 1154 1116.5 c 128,-1,3
 1238 1106 1238 1106 1311.5 1092 c 128,-1,4
 1385 1078 1385 1078 1438 1062 c 1,5,-1
 1438 -380 l 1,6,-1
 1176 -380 l 1,7,-1
 1176 70 l 1,8,9
 1085 38 1085 38 988.5 19 c 128,-1,10
 892 0 892 0 804 0 c 0,11,12
 650 0 650 0 529 21.5 c 128,-1,13
 408 43 408 43 324 88 c 128,-1,14
 240 133 240 133 196 202 c 128,-1,15
 152 271 152 271 152 366 c 2,16,-1
 152 774 l 2,17,18
 152 869 152 869 196 938 c 128,-1,19
 240 1007 240 1007 324 1052 c 128,-1,20
 408 1097 408 1097 529 1118.5 c 128,-1,21
 650 1140 650 1140 804 1140 c 0,0,1
876 200 m 0,22,23
 926 200 926 200 968.5 207 c 128,-1,24
 1011 214 1011 214 1047.5 224.5 c 128,-1,25
 1084 235 1084 235 1115.5 248.5 c 128,-1,26
 1147 262 1147 262 1176 276 c 1,27,-1
 1176 902 l 1,28,29
 1149 912 1149 912 1113.5 921.5 c 128,-1,30
 1078 931 1078 931 1038.5 938.5 c 128,-1,31
 999 946 999 946 957.5 950 c 128,-1,32
 916 954 916 954 876 954 c 0,33,34
 782 954 782 954 698 949 c 128,-1,35
 614 944 614 944 551 922 c 128,-1,36
 488 900 488 900 451 854.5 c 128,-1,37
 414 809 414 809 414 728 c 2,38,-1
 414 434 l 2,39,40
 414 381 414 381 431 343 c 128,-1,41
 448 305 448 305 478.5 279 c 128,-1,42
 509 253 509 253 551.5 237.5 c 128,-1,43
 594 222 594 222 645 213.5 c 128,-1,44
 696 205 696 205 754.5 202.5 c 128,-1,45
 813 200 813 200 876 200 c 0,22,23
EndSplineSet
EndChar

StartChar: s
Encoding: 115 115 40
Width: 1572
Flags: W
HStem: 0 194<489.228 1124.66> 490 160<388 1228> 948 192<493.873 1121.52>
VStem: 156 232<271.742 307.955 650 866.391> 1228 232<273.609 490 832.045 865.393>
LayerCount: 2
Fore
SplineSet
808 1140 m 0,0,1
 927 1140 927 1140 1040 1125.5 c 128,-1,2
 1153 1111 1153 1111 1243 1076.5 c 128,-1,3
 1333 1042 1333 1042 1391 983 c 128,-1,4
 1449 924 1449 924 1460 836 c 1,5,-1
 1228 772 l 1,6,7
 1228 824 1228 824 1192.5 858.5 c 128,-1,8
 1157 893 1157 893 1098.5 912.5 c 128,-1,9
 1040 932 1040 932 964 940 c 128,-1,10
 888 948 888 948 808 948 c 0,11,12
 731 948 731 948 655.5 940.5 c 128,-1,13
 580 933 580 933 520.5 913.5 c 128,-1,14
 461 894 461 894 424.5 860 c 128,-1,15
 388 826 388 826 388 772 c 2,16,-1
 388 650 l 1,17,-1
 1460 650 l 1,18,-1
 1460 304 l 2,19,20
 1460 245 1460 245 1434 199.5 c 128,-1,21
 1408 154 1408 154 1362 120.5 c 128,-1,22
 1316 87 1316 87 1253.5 63.5 c 128,-1,23
 1191 40 1191 40 1118.5 26 c 128,-1,24
 1046 12 1046 12 966.5 6 c 128,-1,25
 887 0 887 0 808 0 c 0,26,27
 687 0 687 0 574 14.5 c 128,-1,28
 461 29 461 29 371 63.5 c 128,-1,29
 281 98 281 98 223.5 156.5 c 128,-1,30
 166 215 166 215 156 304 c 1,31,-1
 388 368 l 1,32,33
 388 313 388 313 424.5 279 c 128,-1,34
 461 245 461 245 520.5 226 c 128,-1,35
 580 207 580 207 655.5 200.5 c 128,-1,36
 731 194 731 194 808 194 c 0,37,38
 888 194 888 194 964 201.5 c 128,-1,39
 1040 209 1040 209 1098.5 228.5 c 128,-1,40
 1157 248 1157 248 1192.5 281.5 c 128,-1,41
 1228 315 1228 315 1228 368 c 2,42,-1
 1228 490 l 1,43,-1
 156 490 l 1,44,-1
 156 836 l 2,45,46
 156 895 156 895 182 940.5 c 128,-1,47
 208 986 208 986 253.5 1019.5 c 128,-1,48
 299 1053 299 1053 361 1076.5 c 128,-1,49
 423 1100 423 1100 495.5 1114 c 128,-1,50
 568 1128 568 1128 647.5 1134 c 128,-1,51
 727 1140 727 1140 808 1140 c 0,0,1
EndSplineSet
EndChar

StartChar: x
Encoding: 120 120 41
Width: 1572
Flags: W
HStem: 0 220<138.828 444 1118 1423.17> 920 220<138.828 444 1118 1423.17>
DStem2: 205 1111 260.5 904.5 0.989024 0.147753<-101.29 206.948> 260.5 235.5 205 29 0.98758 -0.157115<-125.097 182.45> 560 1140 444 920 0.51859 -0.855023<102.74 425.318 779.298 1101.11> 444 220 560 0 0.51859 0.855023<-25.2087 295.66 649.639 973.158> 1238 1127 1300.5 904.5 0.98758 -0.157115<-84.7809 222.767> 1205 224 1238 13 0.989024 0.147753<-85.4284 222.809>
LayerCount: 2
Fore
SplineSet
780 776 m 1,0,-1
 1002 1140 l 1,1,-1
 1078 1140 l 1,2,3
 1168 1135 1168 1135 1238 1127 c 128,-1,4
 1308 1119 1308 1119 1357 1111 c 0,5,6
 1414 1102 1414 1102 1458 1092 c 1,7,-1
 1458 860 l 1,8,9
 1432 874 1432 874 1390 885.5 c 128,-1,10
 1348 897 1348 897 1300.5 904.5 c 128,-1,11
 1253 912 1253 912 1205 916 c 128,-1,12
 1157 920 1157 920 1118 920 c 1,13,-1
 904 570 l 1,14,-1
 1118 220 l 1,15,16
 1157 220 1157 220 1205 224 c 128,-1,17
 1253 228 1253 228 1300.5 235.5 c 128,-1,18
 1348 243 1348 243 1390 254.5 c 128,-1,19
 1432 266 1432 266 1458 280 c 1,20,-1
 1458 48 l 1,21,22
 1414 38 1414 38 1357 29 c 0,23,24
 1308 21 1308 21 1238 13 c 128,-1,25
 1168 5 1168 5 1078 0 c 1,26,-1
 1002 0 l 1,27,-1
 780 362 l 1,28,-1
 560 0 l 1,29,-1
 484 0 l 1,30,31
 394 5 394 5 324 13 c 128,-1,32
 254 21 254 21 205 29 c 0,33,34
 148 38 148 38 104 48 c 1,35,-1
 104 280 l 1,36,37
 129 266 129 266 171 254.5 c 128,-1,38
 213 243 213 243 260.5 235.5 c 128,-1,39
 308 228 308 228 356.5 224 c 128,-1,40
 405 220 405 220 444 220 c 1,41,-1
 656 570 l 1,42,-1
 444 920 l 1,43,44
 405 920 405 920 356.5 916 c 128,-1,45
 308 912 308 912 260.5 904.5 c 128,-1,46
 213 897 213 897 171 885.5 c 128,-1,47
 129 874 129 874 104 860 c 1,48,-1
 104 1092 l 1,49,50
 148 1102 148 1102 205 1111 c 0,51,52
 254 1119 254 1119 324 1127 c 128,-1,53
 394 1135 394 1135 484 1140 c 1,54,-1
 560 1140 l 1,55,-1
 780 776 l 1,0,-1
EndSplineSet
EndChar

StartChar: y
Encoding: 121 121 42
Width: 1576
Flags: W
HStem: -382 174<968 1116.83> 0 208<521.534 980.523> 1120 20G<144 406 1156 1414>
VStem: 144 262<313.743 1120> 1156 258<-168.467 132 297.558 1120>
LayerCount: 2
Fore
SplineSet
406 464 m 2,0,1
 406 408 406 408 421 367.5 c 128,-1,2
 436 327 436 327 462 298.5 c 128,-1,3
 488 270 488 270 521.5 252 c 128,-1,4
 555 234 555 234 592 224.5 c 128,-1,5
 629 215 629 215 667 211.5 c 128,-1,6
 705 208 705 208 740 208 c 0,7,8
 867 208 867 208 971 241 c 128,-1,9
 1075 274 1075 274 1156 322 c 1,10,-1
 1156 1140 l 1,11,-1
 1414 1120 l 1,12,-1
 1414 -50 l 2,13,14
 1414 -121 1414 -121 1384 -182 c 128,-1,15
 1354 -243 1354 -243 1297 -287.5 c 128,-1,16
 1240 -332 1240 -332 1157 -357 c 128,-1,17
 1074 -382 1074 -382 968 -382 c 1,18,-1
 968 -208 l 1,19,20
 1008 -208 1008 -208 1042 -200 c 128,-1,21
 1076 -192 1076 -192 1101.5 -175.5 c 128,-1,22
 1127 -159 1127 -159 1141.5 -134.5 c 128,-1,23
 1156 -110 1156 -110 1156 -78 c 2,24,-1
 1156 132 l 1,25,26
 1109 103 1109 103 1060.5 79 c 128,-1,27
 1012 55 1012 55 959 37.5 c 128,-1,28
 906 20 906 20 848 10 c 128,-1,29
 790 0 790 0 726 0 c 0,30,31
 571 0 571 0 461 25.5 c 128,-1,32
 351 51 351 51 280.5 101.5 c 128,-1,33
 210 152 210 152 177 227 c 128,-1,34
 144 302 144 302 144 402 c 2,35,-1
 144 1120 l 1,36,-1
 406 1140 l 1,37,-1
 406 464 l 2,0,1
EndSplineSet
EndChar

StartChar: parenleft
Encoding: 40 40 43
Width: 1114
Flags: W
VStem: 380 262<104.33 1415.43>
LayerCount: 2
Fore
SplineSet
734 1448 m 1,0,1
 711 1437 711 1437 692 1420 c 0,2,3
 675 1406 675 1406 660.5 1384 c 128,-1,4
 646 1362 646 1362 642 1330 c 1,5,-1
 642 190 l 1,6,7
 646 158 646 158 660.5 135.5 c 128,-1,8
 675 113 675 113 692 99 c 0,9,10
 711 82 711 82 734 72 c 1,11,-1
 622 -124 l 1,12,13
 554 -101 554 -101 501 -59 c 0,14,15
 478 -41 478 -41 456.5 -17 c 128,-1,16
 435 7 435 7 418 37.5 c 128,-1,17
 401 68 401 68 390.5 105.5 c 128,-1,18
 380 143 380 143 380 188 c 2,19,-1
 380 1332 l 2,20,21
 380 1377 380 1377 390.5 1414.5 c 128,-1,22
 401 1452 401 1452 418 1482.5 c 128,-1,23
 435 1513 435 1513 456.5 1537 c 128,-1,24
 478 1561 478 1561 501 1579 c 0,25,26
 554 1621 554 1621 622 1644 c 1,27,-1
 734 1448 l 1,0,1
EndSplineSet
EndChar

StartChar: parenright
Encoding: 41 41 44
Width: 1114
Flags: W
VStem: 472 262<104.33 1415.43>
LayerCount: 2
Fore
SplineSet
492 1644 m 1,0,1
 559 1621 559 1621 613 1579 c 0,2,3
 635 1561 635 1561 657 1537 c 128,-1,4
 679 1513 679 1513 696 1482.5 c 128,-1,5
 713 1452 713 1452 723.5 1414.5 c 128,-1,6
 734 1377 734 1377 734 1332 c 2,7,-1
 734 188 l 2,8,9
 734 143 734 143 723.5 105.5 c 128,-1,10
 713 68 713 68 696 37.5 c 128,-1,11
 679 7 679 7 657 -17 c 128,-1,12
 635 -41 635 -41 613 -59 c 0,13,14
 559 -101 559 -101 492 -124 c 1,15,-1
 380 72 l 1,16,17
 403 82 403 82 422 99 c 0,18,19
 439 113 439 113 453.5 135.5 c 128,-1,20
 468 158 468 158 472 190 c 1,21,-1
 472 1330 l 1,22,23
 468 1362 468 1362 453.5 1384 c 128,-1,24
 439 1406 439 1406 422 1420 c 0,25,26
 403 1437 403 1437 380 1448 c 1,27,-1
 492 1644 l 1,0,1
EndSplineSet
EndChar

StartChar: plus
Encoding: 43 43 45
Width: 1582
Flags: W
HStem: 656 246<388 712 960 1286>
VStem: 712 248<328 656 902 1228>
LayerCount: 2
Fore
SplineSet
960 1228 m 1,0,-1
 960 902 l 1,1,-1
 1286 902 l 1,2,-1
 1286 656 l 1,3,-1
 960 656 l 1,4,-1
 960 328 l 1,5,-1
 712 328 l 1,6,-1
 712 656 l 1,7,-1
 388 656 l 1,8,-1
 388 902 l 1,9,-1
 712 902 l 1,10,-1
 712 1228 l 1,11,-1
 960 1228 l 1,0,-1
EndSplineSet
EndChar

StartChar: minus
Encoding: 8722 8722 46
Width: 1582
Flags: W
HStem: 482 248<360 1260>
LayerCount: 2
Fore
SplineSet
1260 730 m 1,0,-1
 1260 482 l 1,1,-1
 360 482 l 1,2,-1
 360 730 l 1,3,-1
 1260 730 l 1,0,-1
EndSplineSet
EndChar

StartChar: plusminus
Encoding: 177 177 47
Width: 1622
Flags: W
HStem: 134 248<408 1308> 912 246<406 732 978 1306>
VStem: 732 246<586 912 1158 1484>
LayerCount: 2
Fore
SplineSet
978 1484 m 1,0,-1
 978 1158 l 1,1,-1
 1306 1158 l 1,2,-1
 1306 912 l 1,3,-1
 978 912 l 1,4,-1
 978 586 l 1,5,-1
 732 586 l 1,6,-1
 732 912 l 1,7,-1
 406 912 l 1,8,-1
 406 1158 l 1,9,-1
 732 1158 l 1,10,-1
 732 1484 l 1,11,-1
 978 1484 l 1,0,-1
1308 382 m 1,12,-1
 1308 134 l 1,13,-1
 408 134 l 1,14,-1
 408 382 l 1,15,-1
 1308 382 l 1,12,-1
EndSplineSet
EndChar

StartChar: bracketleft
Encoding: 91 91 48
Width: 1272
Flags: W
VStem: 380 512<41.1055 302 1266 1471.17> 380 246<246 1266>
DStem2: 626 246 627 14 0.988047 0.154152<0 232.299>
LayerCount: 2
Fore
SplineSet
380 1514 m 1,0,1
 499 1509 499 1509 627 1498.5 c 128,-1,2
 755 1488 755 1488 892 1464 c 1,3,-1
 892 1210 l 1,4,5
 862 1218 862 1218 822 1228 c 0,6,7
 787 1236 787 1236 738 1246 c 128,-1,8
 689 1256 689 1256 626 1266 c 1,9,-1
 626 246 l 1,10,11
 688 255 688 255 736.5 265 c 128,-1,12
 785 275 785 275 820 283 c 0,13,14
 860 293 860 293 892 302 c 1,15,-1
 892 48 l 1,16,17
 755 25 755 25 627 14 c 128,-1,18
 499 3 499 3 380 -2 c 1,19,-1
 380 1514 l 1,0,1
EndSplineSet
EndChar

StartChar: bracketright
Encoding: 93 93 49
Width: 1272
Flags: W
VStem: 380 512<41.1055 302 1266 1471.17> 644 248<246 1266>
DStem2: 533 265 380 48 0.988672 -0.150094<-118.696 112.594>
LayerCount: 2
Fore
SplineSet
380 1464 m 1,0,1
 516 1488 516 1488 644.5 1498.5 c 128,-1,2
 773 1509 773 1509 892 1514 c 1,3,-1
 892 -2 l 1,4,5
 773 3 773 3 644.5 14 c 128,-1,6
 516 25 516 25 380 48 c 1,7,-1
 380 302 l 1,8,9
 410 293 410 293 450 283 c 0,10,11
 484 275 484 275 533 265 c 128,-1,12
 582 255 582 255 644 246 c 1,13,-1
 644 1266 l 1,14,15
 581 1256 581 1256 532 1246 c 128,-1,16
 483 1236 483 1236 449 1228 c 0,17,18
 409 1218 409 1218 380 1210 c 1,19,-1
 380 1464 l 1,0,1
EndSplineSet
EndChar

StartChar: bullet
Encoding: 8226 8226 50
Width: 1308
Flags: W
HStem: 340 468<442.796 864.033>
VStem: 380 548<392.266 750.773>
LayerCount: 2
Fore
SplineSet
652 808 m 256,0,1
 702 808 702 808 751.5 800 c 128,-1,2
 801 792 801 792 840 775.5 c 128,-1,3
 879 759 879 759 903.5 732 c 128,-1,4
 928 705 928 705 928 668 c 2,5,-1
 928 466 l 2,6,7
 928 433 928 433 903.5 409 c 128,-1,8
 879 385 879 385 840 370 c 128,-1,9
 801 355 801 355 751.5 347.5 c 128,-1,10
 702 340 702 340 652 340 c 256,11,12
 602 340 602 340 553.5 347.5 c 128,-1,13
 505 355 505 355 466.5 370 c 128,-1,14
 428 385 428 385 404 409 c 128,-1,15
 380 433 380 433 380 466 c 2,16,-1
 380 668 l 2,17,18
 380 705 380 705 404 732 c 128,-1,19
 428 759 428 759 466.5 775.5 c 128,-1,20
 505 792 505 792 553.5 800 c 128,-1,21
 602 808 602 808 652 808 c 256,0,1
EndSplineSet
EndChar

StartChar: underscore
Encoding: 95 95 51
Width: 1564
Flags: W
HStem: 0 246<162 1432>
LayerCount: 2
Fore
SplineSet
1432 246 m 1,0,-1
 1432 0 l 1,1,-1
 162 0 l 1,2,-1
 162 246 l 1,3,-1
 1432 246 l 1,0,-1
EndSplineSet
EndChar

StartChar: paragraph
Encoding: 182 182 52
Width: 1544
Flags: W
HStem: 0 21G<532 770 1088 1336> 1294 228<770 1084.16>
VStem: 134 636<858.01 1293.76> 532 238<0 740> 1088 248<0 1271.8>
DStem2: 975 1511 942.5 1283 0.991846 -0.127442<-172.519 143.302>
LayerCount: 2
Fore
SplineSet
648 1522 m 2,0,1
 803 1522 803 1522 975 1511 c 128,-1,2
 1147 1500 1147 1500 1336 1468 c 1,3,-1
 1336 0 l 1,4,-1
 1088 0 l 1,5,-1
 1088 1266 l 1,6,7
 1023 1275 1023 1275 942.5 1283 c 128,-1,8
 862 1291 862 1291 770 1294 c 1,9,-1
 770 0 l 1,10,-1
 532 0 l 1,11,-1
 532 740 l 1,12,13
 437 743 437 743 363 759.5 c 128,-1,14
 289 776 289 776 238 807 c 128,-1,15
 187 838 187 838 160.5 884 c 128,-1,16
 134 930 134 930 134 992 c 2,17,-1
 134 1270 l 2,18,19
 134 1335 134 1335 164.5 1382.5 c 128,-1,20
 195 1430 195 1430 252.5 1461 c 128,-1,21
 310 1492 310 1492 393.5 1507 c 128,-1,22
 477 1522 477 1522 584 1522 c 2,23,-1
 648 1522 l 2,0,1
EndSplineSet
EndChar

StartChar: ellipsis
Encoding: 8230 8230 53
Width: 1972
Flags: W
HStem: 5 325<229.454 581.15 805.454 1157.15 1381.45 1732.55>
VStem: 208 394<29.2715 302.923> 784 394<29.2715 302.923> 1360 394<29.2715 302.923>
CounterMasks: 1 70
LayerCount: 2
Fore
SplineSet
404 336 m 0,0,1
 441 336 441 336 476.5 330 c 128,-1,2
 512 324 512 324 540 312 c 128,-1,3
 568 300 568 300 585 281 c 128,-1,4
 602 262 602 262 602 236 c 2,5,-1
 602 90 l 2,6,7
 602 66 602 66 585 49 c 128,-1,8
 568 32 568 32 540 21 c 128,-1,9
 512 10 512 10 476.5 5 c 128,-1,10
 441 0 441 0 404 0 c 0,11,12
 369 0 369 0 334 5 c 128,-1,13
 299 10 299 10 271 21 c 128,-1,14
 243 32 243 32 225.5 49 c 128,-1,15
 208 66 208 66 208 90 c 2,16,-1
 208 236 l 2,17,18
 208 262 208 262 225.5 281 c 128,-1,19
 243 300 243 300 271 312 c 128,-1,20
 299 324 299 324 334 330 c 128,-1,21
 369 336 369 336 404 336 c 0,0,1
980 336 m 0,22,23
 1017 336 1017 336 1052.5 330 c 128,-1,24
 1088 324 1088 324 1116 312 c 128,-1,25
 1144 300 1144 300 1161 281 c 128,-1,26
 1178 262 1178 262 1178 236 c 2,27,-1
 1178 90 l 2,28,29
 1178 66 1178 66 1161 49 c 128,-1,30
 1144 32 1144 32 1116 21 c 128,-1,31
 1088 10 1088 10 1052.5 5 c 128,-1,32
 1017 0 1017 0 980 0 c 0,33,34
 945 0 945 0 910 5 c 128,-1,35
 875 10 875 10 847 21 c 128,-1,36
 819 32 819 32 801.5 49 c 128,-1,37
 784 66 784 66 784 90 c 2,38,-1
 784 236 l 2,39,40
 784 262 784 262 801.5 281 c 128,-1,41
 819 300 819 300 847 312 c 128,-1,42
 875 324 875 324 910 330 c 128,-1,43
 945 336 945 336 980 336 c 0,22,23
1556 336 m 0,44,45
 1592 336 1592 336 1627.5 330 c 128,-1,46
 1663 324 1663 324 1691 312 c 128,-1,47
 1719 300 1719 300 1736.5 281 c 128,-1,48
 1754 262 1754 262 1754 236 c 2,49,-1
 1754 90 l 2,50,51
 1754 66 1754 66 1736.5 49 c 128,-1,52
 1719 32 1719 32 1691 21 c 128,-1,53
 1663 10 1663 10 1627.5 5 c 128,-1,54
 1592 0 1592 0 1556 0 c 0,55,56
 1521 0 1521 0 1486 5 c 128,-1,57
 1451 10 1451 10 1423 21 c 128,-1,58
 1395 32 1395 32 1377.5 49 c 128,-1,59
 1360 66 1360 66 1360 90 c 2,60,-1
 1360 236 l 2,61,62
 1360 262 1360 262 1377.5 281 c 128,-1,63
 1395 300 1395 300 1423 312 c 128,-1,64
 1451 324 1451 324 1486 330 c 128,-1,65
 1521 336 1521 336 1556 336 c 0,44,45
EndSplineSet
EndChar

StartChar: hyphen
Encoding: 45 45 54
Width: 1452
Flags: W
HStem: 484 248<276 1174>
LayerCount: 2
Fore
SplineSet
1174 732 m 1,0,-1
 1174 484 l 1,1,-1
 276 484 l 1,2,-1
 276 732 l 1,3,-1
 1174 732 l 1,0,-1
EndSplineSet
EndChar

StartChar: endash
Encoding: 8211 8211 55
Width: 1582
Flags: W
HStem: 484 248<368 1268>
LayerCount: 2
Fore
SplineSet
1268 732 m 1,0,-1
 1268 484 l 1,1,-1
 368 484 l 1,2,-1
 368 732 l 1,3,-1
 1268 732 l 1,0,-1
EndSplineSet
EndChar

StartChar: emdash
Encoding: 8212 8212 56
Width: 1660
Flags: W
HStem: 484 248<152 1492>
LayerCount: 2
Fore
SplineSet
1492 732 m 1,0,-1
 1492 484 l 1,1,-1
 152 484 l 1,2,-1
 152 732 l 1,3,-1
 1492 732 l 1,0,-1
EndSplineSet
EndChar

StartChar: exclam
Encoding: 33 33 57
Width: 744
Flags: W
HStem: 0 336<217.433 555.826>
VStem: 190 394<29.2715 302.923> 262 248<500 1520>
LayerCount: 2
Fore
SplineSet
386 336 m 256,0,1
 422 336 422 336 457.5 330 c 128,-1,2
 493 324 493 324 521 312 c 128,-1,3
 549 300 549 300 566.5 281 c 128,-1,4
 584 262 584 262 584 236 c 2,5,-1
 584 90 l 2,6,7
 584 66 584 66 566.5 49 c 128,-1,8
 549 32 549 32 521 21 c 128,-1,9
 493 10 493 10 457.5 5 c 128,-1,10
 422 0 422 0 386 0 c 256,11,12
 350 0 350 0 315 5 c 128,-1,13
 280 10 280 10 252 21 c 128,-1,14
 224 32 224 32 207 49 c 128,-1,15
 190 66 190 66 190 90 c 2,16,-1
 190 236 l 2,17,18
 190 262 190 262 207 281 c 128,-1,19
 224 300 224 300 252 312 c 128,-1,20
 280 324 280 324 315 330 c 128,-1,21
 350 336 350 336 386 336 c 256,0,1
510 1520 m 1,22,-1
 510 500 l 1,23,-1
 262 500 l 1,24,-1
 262 1520 l 1,25,-1
 510 1520 l 1,22,-1
EndSplineSet
EndChar

StartChar: less
Encoding: 60 60 58
Width: 1408
Flags: W
VStem: 380 648
DStem2: 730 764 380 764 0.7086 -0.70561<0 420.023> 380 764 730 764 0.710097 0.704104<248.534 667.515>
LayerCount: 2
Fore
SplineSet
1028 1060 m 1,0,-1
 730 764 l 1,1,-1
 1028 468 l 1,2,-1
 854 292 l 1,3,-1
 380 764 l 1,4,-1
 854 1234 l 1,5,-1
 1028 1060 l 1,0,-1
EndSplineSet
EndChar

StartChar: greater
Encoding: 62 62 59
Width: 1408
Flags: W
VStem: 380 648
DStem2: 554 1254 380 1080 0.7086 -0.70561<0 419.497> 380 486 554 312 0.710097 0.704104<1.04267 418.603>
LayerCount: 2
Fore
SplineSet
1028 782 m 1,0,-1
 554 312 l 1,1,-1
 380 486 l 1,2,-1
 676 782 l 1,3,-1
 380 1080 l 1,4,-1
 554 1254 l 1,5,-1
 1028 782 l 1,0,-1
EndSplineSet
EndChar

StartChar: guillemotleft
Encoding: 171 171 60
Width: 2004
Flags: W
DStem2: 554 1254 380 1080 0.708941 -0.705268<0 419.377> 380 486 554 312 0.708941 0.705268<0.639146 418.606> 1152 1254 976 1080 0.707107 -0.707107<0 418.607> 976 486 1152 312 0.708606 0.705604<1.93966 418.606>
LayerCount: 2
Fore
SplineSet
1624 782 m 1,0,-1
 1152 312 l 1,1,-1
 976 486 l 1,2,-1
 1272 782 l 1,3,-1
 976 1080 l 1,4,-1
 1152 1254 l 1,5,-1
 1624 782 l 1,0,-1
1028 782 m 1,6,-1
 554 312 l 1,7,-1
 380 486 l 1,8,-1
 676 782 l 1,9,-1
 380 1080 l 1,10,-1
 554 1254 l 1,11,-1
 1028 782 l 1,6,-1
EndSplineSet
EndChar

StartChar: guillemotright
Encoding: 187 187 61
Width: 2004
Flags: W
DStem2: 730 782 380 782 0.710097 -0.704104<0 418.981> 380 782 730 782 0.7086 0.70561<248.01 668.924> 1326 782 976 782 0.708026 -0.706187<0 419.703> 976 782 1326 782 0.708026 0.706187<247.809 668.924>
LayerCount: 2
Fore
SplineSet
1028 1080 m 1,0,-1
 730 782 l 1,1,-1
 1028 486 l 1,2,-1
 854 312 l 1,3,-1
 380 782 l 1,4,-1
 854 1254 l 1,5,-1
 1028 1080 l 1,0,-1
1624 1080 m 1,6,-1
 1326 782 l 1,7,-1
 1624 486 l 1,8,-1
 1450 312 l 1,9,-1
 976 782 l 1,10,-1
 1450 1254 l 1,11,-1
 1624 1080 l 1,6,-1
EndSplineSet
EndChar

StartChar: guilsinglleft
Encoding: 8249 8249 62
Width: 1408
Flags: W
VStem: 380 648
DStem2: 730 782 380 782 0.710097 -0.704104<0 418.981> 380 782 730 782 0.7086 0.70561<248.01 668.924>
LayerCount: 2
Fore
SplineSet
1028 1080 m 1,0,-1
 730 782 l 1,1,-1
 1028 486 l 1,2,-1
 854 312 l 1,3,-1
 380 782 l 1,4,-1
 854 1254 l 1,5,-1
 1028 1080 l 1,0,-1
EndSplineSet
EndChar

StartChar: guilsinglright
Encoding: 8250 8250 63
Width: 1408
Flags: W
VStem: 380 648
DStem2: 554 1254 380 1080 0.7086 -0.70561<0 419.497> 380 486 554 312 0.710097 0.704104<1.04267 418.603>
LayerCount: 2
Fore
SplineSet
1028 782 m 1,0,-1
 554 312 l 1,1,-1
 380 486 l 1,2,-1
 676 782 l 1,3,-1
 380 1080 l 1,4,-1
 554 1254 l 1,5,-1
 1028 782 l 1,0,-1
EndSplineSet
EndChar

StartChar: colon
Encoding: 58 58 64
Width: 1012
Flags: W
HStem: 130 336<376.063 711.937> 654 336<375.433 712.567>
VStem: 348 392<158.09 433.318 682.09 957.371>
LayerCount: 2
Fore
SplineSet
544 466 m 256,0,1
 580 466 580 466 615 460 c 128,-1,2
 650 454 650 454 678 442 c 128,-1,3
 706 430 706 430 723 410.5 c 128,-1,4
 740 391 740 391 740 364 c 2,5,-1
 740 218 l 2,6,7
 740 195 740 195 723 178 c 128,-1,8
 706 161 706 161 678 150.5 c 128,-1,9
 650 140 650 140 615 135 c 128,-1,10
 580 130 580 130 544 130 c 256,11,12
 508 130 508 130 473 135 c 128,-1,13
 438 140 438 140 410 150.5 c 128,-1,14
 382 161 382 161 365 178 c 128,-1,15
 348 195 348 195 348 218 c 2,16,-1
 348 364 l 2,17,18
 348 391 348 391 365 410.5 c 128,-1,19
 382 430 382 430 410 442 c 128,-1,20
 438 454 438 454 473 460 c 128,-1,21
 508 466 508 466 544 466 c 256,0,1
544 990 m 256,22,23
 580 990 580 990 615 984 c 128,-1,24
 650 978 650 978 678 966 c 128,-1,25
 706 954 706 954 723 935 c 128,-1,26
 740 916 740 916 740 890 c 2,27,-1
 740 742 l 2,28,29
 740 719 740 719 723 702 c 128,-1,30
 706 685 706 685 678 674.5 c 128,-1,31
 650 664 650 664 615 659 c 128,-1,32
 580 654 580 654 544 654 c 256,33,34
 508 654 508 654 473 659 c 128,-1,35
 438 664 438 664 410 674.5 c 128,-1,36
 382 685 382 685 365 702 c 128,-1,37
 348 719 348 719 348 742 c 2,38,-1
 348 890 l 2,39,40
 348 916 348 916 365 935 c 128,-1,41
 382 954 382 954 410 966 c 128,-1,42
 438 978 438 978 473 984 c 128,-1,43
 508 990 508 990 544 990 c 256,22,23
EndSplineSet
EndChar

StartChar: semicolon
Encoding: 59 59 65
Width: 1012
Flags: W
HStem: 130 336<376.063 615> 654 336<375.433 712.567>
VStem: 348 392<158.306 433.318 682.09 957.371>
LayerCount: 2
Fore
SplineSet
544 466 m 256,0,1
 580 466 580 466 615 460 c 128,-1,2
 650 454 650 454 678 442 c 128,-1,3
 706 430 706 430 723 410.5 c 128,-1,4
 740 391 740 391 740 364 c 2,5,-1
 740 282 l 2,6,7
 740 254 740 254 736.5 204.5 c 128,-1,8
 733 155 733 155 720.5 99 c 128,-1,9
 708 43 708 43 682.5 -12 c 128,-1,10
 657 -67 657 -67 614 -106 c 1,11,-1
 450 -106 l 1,12,13
 500 -44 500 -44 521 15 c 128,-1,14
 542 74 542 74 542 130 c 1,15,16
 506 130 506 130 471 135 c 128,-1,17
 436 140 436 140 409 150.5 c 128,-1,18
 382 161 382 161 365 178 c 128,-1,19
 348 195 348 195 348 218 c 2,20,-1
 348 364 l 2,21,22
 348 391 348 391 365 410.5 c 128,-1,23
 382 430 382 430 410 442 c 128,-1,24
 438 454 438 454 473 460 c 128,-1,25
 508 466 508 466 544 466 c 256,0,1
544 990 m 256,26,27
 580 990 580 990 615 984 c 128,-1,28
 650 978 650 978 678 966 c 128,-1,29
 706 954 706 954 723 935 c 128,-1,30
 740 916 740 916 740 890 c 2,31,-1
 740 742 l 2,32,33
 740 719 740 719 723 702 c 128,-1,34
 706 685 706 685 678 674.5 c 128,-1,35
 650 664 650 664 615 659 c 128,-1,36
 580 654 580 654 544 654 c 256,37,38
 508 654 508 654 473 659 c 128,-1,39
 438 664 438 664 410 674.5 c 128,-1,40
 382 685 382 685 365 702 c 128,-1,41
 348 719 348 719 348 742 c 2,42,-1
 348 890 l 2,43,44
 348 916 348 916 365 935 c 128,-1,45
 382 954 382 954 410 966 c 128,-1,46
 438 978 438 978 473 984 c 128,-1,47
 508 990 508 990 544 990 c 256,26,27
EndSplineSet
EndChar

StartChar: quotedblright
Encoding: 8221 8221 66
Width: 1510
Flags: W
HStem: 1040 336<312.816 552.5 860.063 1099.5>
VStem: 284 394<1068.31 1342.86> 832 394<1068.31 1342.86>
LayerCount: 2
Fore
SplineSet
480 1376 m 0,0,1
 517 1376 517 1376 552.5 1370 c 128,-1,2
 588 1364 588 1364 616 1352 c 128,-1,3
 644 1340 644 1340 661 1320.5 c 128,-1,4
 678 1301 678 1301 678 1274 c 2,5,-1
 678 1192 l 2,6,7
 678 1164 678 1164 674.5 1114.5 c 128,-1,8
 671 1065 671 1065 657.5 1009 c 128,-1,9
 644 953 644 953 618.5 898 c 128,-1,10
 593 843 593 843 550 804 c 1,11,-1
 388 804 l 1,12,13
 438 864 438 864 458 925 c 128,-1,14
 478 986 478 986 478 1040 c 1,15,16
 443 1040 443 1040 408 1045 c 128,-1,17
 373 1050 373 1050 345.5 1060.5 c 128,-1,18
 318 1071 318 1071 301 1088 c 128,-1,19
 284 1105 284 1105 284 1128 c 2,20,-1
 284 1274 l 2,21,22
 284 1301 284 1301 301.5 1320.5 c 128,-1,23
 319 1340 319 1340 347 1352 c 128,-1,24
 375 1364 375 1364 410 1370 c 128,-1,25
 445 1376 445 1376 480 1376 c 0,0,1
1028 1376 m 256,26,27
 1064 1376 1064 1376 1099.5 1370 c 128,-1,28
 1135 1364 1135 1364 1163 1352 c 128,-1,29
 1191 1340 1191 1340 1208.5 1320.5 c 128,-1,30
 1226 1301 1226 1301 1226 1274 c 2,31,-1
 1226 1192 l 2,32,33
 1226 1164 1226 1164 1222.5 1114.5 c 128,-1,34
 1219 1065 1219 1065 1205.5 1009 c 128,-1,35
 1192 953 1192 953 1166.5 898 c 128,-1,36
 1141 843 1141 843 1098 804 c 1,37,-1
 934 804 l 1,38,39
 985 864 985 864 1005.5 925 c 128,-1,40
 1026 986 1026 986 1026 1040 c 1,41,42
 990 1040 990 1040 955 1045 c 128,-1,43
 920 1050 920 1050 893 1060.5 c 128,-1,44
 866 1071 866 1071 849 1088 c 128,-1,45
 832 1105 832 1105 832 1128 c 2,46,-1
 832 1274 l 2,47,48
 832 1301 832 1301 849 1320.5 c 128,-1,49
 866 1340 866 1340 894 1352 c 128,-1,50
 922 1364 922 1364 957 1370 c 128,-1,51
 992 1376 992 1376 1028 1376 c 256,26,27
EndSplineSet
EndChar

StartChar: quotedblleft
Encoding: 8220 8220 67
Width: 1510
Flags: W
HStem: 804 336<410.5 650.567 957.5 1197.83>
VStem: 284 394<837.077 1110.06> 832 394<837.077 1110.06>
LayerCount: 2
Fore
SplineSet
1122 1376 m 1,0,1
 1071 1314 1071 1314 1051.5 1254 c 128,-1,2
 1032 1194 1032 1194 1032 1140 c 1,3,4
 1066 1140 1066 1140 1101 1135 c 128,-1,5
 1136 1130 1136 1130 1163.5 1119 c 128,-1,6
 1191 1108 1191 1108 1208.5 1091 c 128,-1,7
 1226 1074 1226 1074 1226 1050 c 2,8,-1
 1226 904 l 2,9,10
 1226 878 1226 878 1208.5 859 c 128,-1,11
 1191 840 1191 840 1163 828 c 128,-1,12
 1135 816 1135 816 1100 810 c 128,-1,13
 1065 804 1065 804 1030 804 c 0,14,15
 993 804 993 804 957.5 810 c 128,-1,16
 922 816 922 816 894 828 c 128,-1,17
 866 840 866 840 849 859 c 128,-1,18
 832 878 832 878 832 904 c 2,19,-1
 832 988 l 2,20,21
 832 1016 832 1016 835.5 1065.5 c 128,-1,22
 839 1115 839 1115 852.5 1171 c 128,-1,23
 866 1227 866 1227 891 1282 c 128,-1,24
 916 1337 916 1337 960 1376 c 1,25,-1
 1122 1376 l 1,0,1
576 1376 m 1,26,27
 525 1314 525 1314 504.5 1254 c 128,-1,28
 484 1194 484 1194 484 1140 c 1,29,30
 519 1140 519 1140 554 1135 c 128,-1,31
 589 1130 589 1130 616.5 1119 c 128,-1,32
 644 1108 644 1108 661 1091 c 128,-1,33
 678 1074 678 1074 678 1050 c 2,34,-1
 678 904 l 2,35,36
 678 878 678 878 661 859 c 128,-1,37
 644 840 644 840 616 828 c 128,-1,38
 588 816 588 816 553 810 c 128,-1,39
 518 804 518 804 482 804 c 256,40,41
 446 804 446 804 410.5 810 c 128,-1,42
 375 816 375 816 347 828 c 128,-1,43
 319 840 319 840 301.5 859 c 128,-1,44
 284 878 284 878 284 904 c 2,45,-1
 284 988 l 2,46,47
 284 1016 284 1016 287.5 1065.5 c 128,-1,48
 291 1115 291 1115 304.5 1171 c 128,-1,49
 318 1227 318 1227 343 1282 c 128,-1,50
 368 1337 368 1337 412 1376 c 1,51,-1
 576 1376 l 1,26,27
EndSplineSet
EndChar

StartChar: quoteleft
Encoding: 8216 8216 68
Width: 752
Flags: W
HStem: 804 336<313.5 553.826>
VStem: 188 394<837.077 1110.06>
LayerCount: 2
Fore
SplineSet
478 1376 m 1,0,1
 427 1314 427 1314 407.5 1254 c 128,-1,2
 388 1194 388 1194 388 1140 c 1,3,4
 422 1140 422 1140 457 1135 c 128,-1,5
 492 1130 492 1130 519.5 1119 c 128,-1,6
 547 1108 547 1108 564.5 1091 c 128,-1,7
 582 1074 582 1074 582 1050 c 2,8,-1
 582 904 l 2,9,10
 582 878 582 878 564.5 859 c 128,-1,11
 547 840 547 840 519 828 c 128,-1,12
 491 816 491 816 456 810 c 128,-1,13
 421 804 421 804 386 804 c 0,14,15
 349 804 349 804 313.5 810 c 128,-1,16
 278 816 278 816 250 828 c 128,-1,17
 222 840 222 840 205 859 c 128,-1,18
 188 878 188 878 188 904 c 2,19,-1
 188 988 l 2,20,21
 188 1016 188 1016 191.5 1065.5 c 128,-1,22
 195 1115 195 1115 208.5 1171 c 128,-1,23
 222 1227 222 1227 247 1282 c 128,-1,24
 272 1337 272 1337 316 1376 c 1,25,-1
 478 1376 l 1,0,1
EndSplineSet
EndChar

StartChar: quoteright
Encoding: 8217 8217 69
Width: 752
Flags: W
HStem: 1040 336<198.816 438.5>
VStem: 170 394<1068.09 1342.86>
LayerCount: 2
Fore
SplineSet
366 1376 m 0,0,1
 403 1376 403 1376 438.5 1370 c 128,-1,2
 474 1364 474 1364 502 1352 c 128,-1,3
 530 1340 530 1340 547 1320.5 c 128,-1,4
 564 1301 564 1301 564 1274 c 2,5,-1
 564 1188 l 2,6,7
 564 1161 564 1161 560 1112 c 128,-1,8
 556 1063 556 1063 542.5 1007.5 c 128,-1,9
 529 952 529 952 504 897.5 c 128,-1,10
 479 843 479 843 436 804 c 1,11,-1
 274 804 l 1,12,13
 324 864 324 864 344 925 c 128,-1,14
 364 986 364 986 364 1040 c 1,15,16
 329 1040 329 1040 294 1045 c 128,-1,17
 259 1050 259 1050 231.5 1060.5 c 128,-1,18
 204 1071 204 1071 187 1088 c 128,-1,19
 170 1105 170 1105 170 1128 c 2,20,-1
 170 1274 l 2,21,22
 170 1301 170 1301 187.5 1320.5 c 128,-1,23
 205 1340 205 1340 233 1352 c 128,-1,24
 261 1364 261 1364 296 1370 c 128,-1,25
 331 1376 331 1376 366 1376 c 0,0,1
EndSplineSet
EndChar

StartChar: quotedblbase
Encoding: 8222 8222 70
Width: 1510
Flags: W
HStem: -2 336<312.174 552.5 859.433 1099.5>
VStem: 284 394<27.9434 300.923> 832 394<27.9434 300.923>
LayerCount: 2
Fore
SplineSet
480 334 m 0,0,1
 517 334 517 334 552.5 328 c 128,-1,2
 588 322 588 322 616 310 c 128,-1,3
 644 298 644 298 661 279 c 128,-1,4
 678 260 678 260 678 234 c 2,5,-1
 678 150 l 2,6,7
 678 122 678 122 674.5 72.5 c 128,-1,8
 671 23 671 23 657.5 -33 c 128,-1,9
 644 -89 644 -89 618.5 -144 c 128,-1,10
 593 -199 593 -199 550 -238 c 1,11,-1
 388 -238 l 1,12,13
 438 -176 438 -176 458 -116 c 128,-1,14
 478 -56 478 -56 478 -2 c 1,15,16
 443 -2 443 -2 408 3 c 128,-1,17
 373 8 373 8 345.5 19 c 128,-1,18
 318 30 318 30 301 47 c 128,-1,19
 284 64 284 64 284 88 c 2,20,-1
 284 234 l 2,21,22
 284 260 284 260 301.5 279 c 128,-1,23
 319 298 319 298 347 310 c 128,-1,24
 375 322 375 322 410 328 c 128,-1,25
 445 334 445 334 480 334 c 0,0,1
1028 334 m 256,26,27
 1064 334 1064 334 1099.5 328 c 128,-1,28
 1135 322 1135 322 1163 310 c 128,-1,29
 1191 298 1191 298 1208.5 279 c 128,-1,30
 1226 260 1226 260 1226 234 c 2,31,-1
 1226 150 l 2,32,33
 1226 122 1226 122 1222.5 72.5 c 128,-1,34
 1219 23 1219 23 1205.5 -33 c 128,-1,35
 1192 -89 1192 -89 1166.5 -144 c 128,-1,36
 1141 -199 1141 -199 1098 -238 c 1,37,-1
 934 -238 l 1,38,39
 985 -176 985 -176 1005.5 -116 c 128,-1,40
 1026 -56 1026 -56 1026 -2 c 1,41,42
 990 -2 990 -2 955 3 c 128,-1,43
 920 8 920 8 893 19 c 128,-1,44
 866 30 866 30 849 47 c 128,-1,45
 832 64 832 64 832 88 c 2,46,-1
 832 234 l 2,47,48
 832 260 832 260 849 279 c 128,-1,49
 866 298 866 298 894 310 c 128,-1,50
 922 322 922 322 957 328 c 128,-1,51
 992 334 992 334 1028 334 c 256,26,27
EndSplineSet
EndChar

StartChar: multiply
Encoding: 215 215 71
Width: 1544
Flags: W
DStem2: 562 1182 388 1006 0.707107 -0.707107<1.41421 323.855 571.342 896.611> 388 550 562 374 0.707107 0.707107<0 321.026 569.928 895.197>
LayerCount: 2
Fore
SplineSet
790 952 m 1,0,-1
 1022 1184 l 1,1,-1
 1196 1008 l 1,2,-1
 966 778 l 1,3,-1
 1196 548 l 1,4,-1
 1022 372 l 1,5,-1
 790 602 l 1,6,-1
 562 374 l 1,7,-1
 388 550 l 1,8,-1
 616 778 l 1,9,-1
 388 1006 l 1,10,-1
 562 1182 l 1,11,-1
 790 952 l 1,0,-1
EndSplineSet
EndChar

StartChar: onesuperior
Encoding: 185 185 72
Width: 830
Flags: W
VStem: 284 262<1314 1494.77> 362 184<762 1314>
LayerCount: 2
Fore
SplineSet
546 762 m 1,0,-1
 362 762 l 1,1,-1
 362 1314 l 1,2,3
 338 1311 338 1311 318 1306 c 128,-1,4
 298 1301 298 1301 284 1296 c 1,5,-1
 284 1488 l 1,6,7
 319 1494 319 1494 361 1499 c 0,8,9
 396 1504 396 1504 444 1508 c 128,-1,10
 492 1512 492 1512 546 1514 c 1,11,-1
 546 762 l 1,0,-1
EndSplineSet
EndChar

StartChar: equal
Encoding: 61 61 73
Width: 1582
Flags: W
HStem: 418 246<390 1288> 912 246<388 1286>
LayerCount: 2
Fore
SplineSet
1286 1158 m 1,0,-1
 1286 912 l 1,1,-1
 388 912 l 1,2,-1
 388 1158 l 1,3,-1
 1286 1158 l 1,0,-1
1288 664 m 1,4,-1
 1288 418 l 1,5,-1
 390 418 l 1,6,-1
 390 664 l 1,7,-1
 1288 664 l 1,4,-1
EndSplineSet
EndChar

StartChar: periodcentered
Encoding: 183 183 74
Width: 1582
Flags: W
HStem: 450 336<622.174 960.567>
VStem: 594 394<479.271 752.923>
LayerCount: 2
Fore
SplineSet
790 786 m 0,0,1
 827 786 827 786 862.5 780 c 128,-1,2
 898 774 898 774 926 762 c 128,-1,3
 954 750 954 750 971 731 c 128,-1,4
 988 712 988 712 988 686 c 2,5,-1
 988 540 l 2,6,7
 988 516 988 516 971 499 c 128,-1,8
 954 482 954 482 926 471 c 128,-1,9
 898 460 898 460 862.5 455 c 128,-1,10
 827 450 827 450 790 450 c 0,11,12
 755 450 755 450 720 455 c 128,-1,13
 685 460 685 460 657 471 c 128,-1,14
 629 482 629 482 611.5 499 c 128,-1,15
 594 516 594 516 594 540 c 2,16,-1
 594 686 l 2,17,18
 594 712 594 712 611.5 731 c 128,-1,19
 629 750 629 750 657 762 c 128,-1,20
 685 774 685 774 720 780 c 128,-1,21
 755 786 755 786 790 786 c 0,0,1
EndSplineSet
EndChar

StartChar: question
Encoding: 63 63 75
Width: 1626
Flags: W
HStem: -4 336<571.433 908.567> 512 390<620 864> 694 208<864 1196> 1296 226<323.367 1191.49>
VStem: 72 248<1114 1271.9> 544 392<24.8647 299.371> 620 244<512 694> 1196 246<902 1272.01>
DStem2: 432 1511 320 1266 0.992563 0.121729<-140.991 292.571>
LayerCount: 2
Fore
SplineSet
754 1522 m 0,0,1
 909 1522 909 1522 1082 1511 c 128,-1,2
 1255 1500 1255 1500 1442 1468 c 1,3,-1
 1442 694 l 1,4,-1
 864 694 l 1,5,-1
 864 512 l 1,6,-1
 620 512 l 1,7,-1
 620 902 l 1,8,-1
 1196 902 l 1,9,-1
 1196 1266 l 1,10,11
 1075 1283 1075 1283 968.5 1289.5 c 128,-1,12
 862 1296 862 1296 756 1296 c 0,13,14
 664 1296 664 1296 597 1293 c 128,-1,15
 530 1290 530 1290 479 1285.5 c 128,-1,16
 428 1281 428 1281 390 1275.5 c 128,-1,17
 352 1270 352 1270 320 1266 c 1,18,-1
 320 1114 l 1,19,-1
 72 1114 l 1,20,-1
 72 1468 l 1,21,22
 261 1500 261 1500 432 1511 c 128,-1,23
 603 1522 603 1522 754 1522 c 0,0,1
740 332 m 256,24,25
 776 332 776 332 811 326 c 128,-1,26
 846 320 846 320 874 308 c 128,-1,27
 902 296 902 296 919 277 c 128,-1,28
 936 258 936 258 936 232 c 2,29,-1
 936 86 l 2,30,31
 936 62 936 62 919 45 c 128,-1,32
 902 28 902 28 874 17 c 128,-1,33
 846 6 846 6 811 1 c 128,-1,34
 776 -4 776 -4 740 -4 c 256,35,36
 704 -4 704 -4 669 1 c 128,-1,37
 634 6 634 6 606 17 c 128,-1,38
 578 28 578 28 561 45 c 128,-1,39
 544 62 544 62 544 86 c 2,40,-1
 544 232 l 2,41,42
 544 258 544 258 561 277 c 128,-1,43
 578 296 578 296 606 308 c 128,-1,44
 634 320 634 320 669 326 c 128,-1,45
 704 332 704 332 740 332 c 256,24,25
EndSplineSet
EndChar

StartChar: twosuperior
Encoding: 178 178 76
Width: 1236
Flags: W
HStem: 790 170<464.812 948.235> 1096 136<464 776> 1352 170<290.417 775.143>
VStem: 284 180<963.213 1096> 776 176<1232 1348.63>
DStem2: 774 967 770 796.5 0.990756 0.135657<-172.559 156.142>
LayerCount: 2
Fore
SplineSet
620 1522 m 256,0,1
 688 1522 688 1522 770 1516.5 c 128,-1,2
 852 1511 852 1511 952 1494 c 1,3,-1
 952 1096 l 1,4,-1
 464 1096 l 1,5,-1
 464 968 l 1,6,7
 490 965 490 965 515.5 962.5 c 128,-1,8
 541 960 541 960 570 960 c 2,9,-1
 666 960 l 2,10,11
 723 960 723 960 774 967 c 128,-1,12
 825 974 825 974 865 983 c 0,13,14
 912 993 912 993 952 1006 c 1,15,-1
 952 818 l 1,16,17
 852 803 852 803 770 796.5 c 128,-1,18
 688 790 688 790 622 790 c 0,19,20
 553 790 553 790 470 796.5 c 128,-1,21
 387 803 387 803 284 818 c 1,22,-1
 284 1232 l 1,23,-1
 776 1232 l 1,24,-1
 776 1344 l 1,25,26
 749 1347 749 1347 722 1349.5 c 128,-1,27
 695 1352 695 1352 666 1352 c 2,28,-1
 570 1352 l 2,29,30
 515 1352 515 1352 463.5 1344.5 c 128,-1,31
 412 1337 412 1337 372 1329 c 1,32,33
 325 1318 325 1318 284 1306 c 1,34,-1
 284 1494 l 1,35,36
 387 1511 387 1511 469.5 1516.5 c 128,-1,37
 552 1522 552 1522 620 1522 c 256,0,1
EndSplineSet
EndChar

StartChar: threesuperior
Encoding: 179 179 77
Width: 1236
Flags: W
HStem: 788 170<294.109 771.676> 1094 136<390 774> 1350 170<290.233 771.676>
VStem: 774 178<960.005 1094 1230 1347.99>
DStem2: 462 965.5 284 816 0.990756 -0.135657<-156.074 174.547>
LayerCount: 2
Fore
SplineSet
618 1520 m 0,0,1
 684 1520 684 1520 766.5 1514.5 c 128,-1,2
 849 1509 849 1509 952 1492 c 1,3,-1
 952 816 l 1,4,5
 849 801 849 801 766.5 794.5 c 128,-1,6
 684 788 684 788 616 788 c 256,7,8
 548 788 548 788 466 794.5 c 128,-1,9
 384 801 384 801 284 816 c 1,10,-1
 284 1006 l 1,11,12
 324 993 324 993 371 982 c 0,13,14
 411 973 411 973 462 965.5 c 128,-1,15
 513 958 513 958 570 958 c 2,16,-1
 666 958 l 2,17,18
 723 958 723 958 774 964 c 1,19,-1
 774 1094 l 1,20,-1
 390 1094 l 1,21,-1
 390 1230 l 1,22,-1
 774 1230 l 1,23,-1
 774 1344 l 1,24,25
 748 1347 748 1347 720.5 1348.5 c 128,-1,26
 693 1350 693 1350 666 1350 c 2,27,-1
 570 1350 l 2,28,29
 515 1350 515 1350 463.5 1342.5 c 128,-1,30
 412 1335 412 1335 372 1327 c 1,31,32
 325 1316 325 1316 284 1304 c 1,33,-1
 284 1492 l 1,34,35
 384 1509 384 1509 466.5 1514.5 c 128,-1,36
 549 1520 549 1520 618 1520 c 0,0,1
EndSplineSet
EndChar

StartChar: foursuperior
Encoding: 8308 8308 78
Width: 1236
Flags: W
HStem: 1100 134<462 774> 1504 20G<284 462 774 952>
VStem: 284 178<1234 1524> 774 178<796 1100 1234 1524>
LayerCount: 2
Fore
SplineSet
462 1524 m 1,0,-1
 462 1234 l 1,1,-1
 774 1234 l 1,2,-1
 774 1524 l 1,3,-1
 952 1524 l 1,4,-1
 952 796 l 1,5,-1
 774 796 l 1,6,-1
 774 1100 l 1,7,-1
 284 1100 l 1,8,-1
 284 1524 l 1,9,-1
 462 1524 l 1,0,-1
EndSplineSet
EndChar

StartChar: twoinferior
Encoding: 8322 8322 79
Width: 1236
Flags: W
HStem: 2 168<464.812 941.891> 308 134<464 776> 564 170<294.344 775.143>
VStem: 284 180<173.253 308> 776 176<442 559.312>
DStem2: 774 177.5 770 8.5 0.990756 0.135658<-172.355 156.345>
LayerCount: 2
Fore
SplineSet
620 734 m 256,0,1
 688 734 688 734 770 728 c 128,-1,2
 852 722 852 722 952 704 c 1,3,-1
 952 308 l 1,4,-1
 464 308 l 1,5,-1
 464 180 l 1,6,7
 490 175 490 175 515.5 172.5 c 128,-1,8
 541 170 541 170 570 170 c 2,9,-1
 666 170 l 2,10,11
 723 170 723 170 774 177.5 c 128,-1,12
 825 185 825 185 865 194 c 0,13,14
 912 205 912 205 952 218 c 1,15,-1
 952 30 l 1,16,17
 852 15 852 15 770 8.5 c 128,-1,18
 688 2 688 2 622 2 c 0,19,20
 553 2 553 2 470 8.5 c 128,-1,21
 387 15 387 15 284 30 c 1,22,-1
 284 442 l 1,23,-1
 776 442 l 1,24,-1
 776 554 l 1,25,26
 749 557 749 557 722 560.5 c 128,-1,27
 695 564 695 564 666 564 c 2,28,-1
 570 564 l 2,29,30
 515 564 515 564 463.5 556.5 c 128,-1,31
 412 549 412 549 372 540 c 0,32,33
 325 529 325 529 284 516 c 1,34,-1
 284 704 l 1,35,36
 387 722 387 722 469.5 728 c 128,-1,37
 552 734 552 734 620 734 c 256,0,1
EndSplineSet
EndChar

StartChar: fourinferior
Encoding: 8324 8324 80
Width: 1236
Flags: W
HStem: 306 134<462 774>
VStem: 284 178<440 730> 774 178<2 306 440 730>
LayerCount: 2
Fore
SplineSet
462 730 m 1,0,-1
 462 440 l 1,1,-1
 774 440 l 1,2,-1
 774 730 l 1,3,-1
 952 730 l 1,4,-1
 952 2 l 1,5,-1
 774 2 l 1,6,-1
 774 306 l 1,7,-1
 284 306 l 1,8,-1
 284 730 l 1,9,-1
 462 730 l 1,0,-1
EndSplineSet
EndChar

StartChar: divide
Encoding: 247 247 81
Width: 1582
Flags: W
HStem: 130 336<616.816 953.937> 588 248<208 1372> 974 336<616.174 954.567>
VStem: 588 394<158.487 432.864 1004.27 1276.92>
LayerCount: 2
Fore
SplineSet
1372 836 m 1,0,-1
 1372 588 l 1,1,-1
 208 588 l 1,2,-1
 208 836 l 1,3,-1
 1372 836 l 1,0,-1
784 466 m 0,4,5
 821 466 821 466 856.5 460 c 128,-1,6
 892 454 892 454 920 442 c 128,-1,7
 948 430 948 430 965 410.5 c 128,-1,8
 982 391 982 391 982 364 c 2,9,-1
 982 218 l 2,10,11
 982 195 982 195 965 178 c 128,-1,12
 948 161 948 161 920 150.5 c 128,-1,13
 892 140 892 140 856.5 135 c 128,-1,14
 821 130 821 130 784 130 c 0,15,16
 749 130 749 130 714 135 c 128,-1,17
 679 140 679 140 651 150.5 c 128,-1,18
 623 161 623 161 605.5 178 c 128,-1,19
 588 195 588 195 588 218 c 2,20,-1
 588 364 l 2,21,22
 588 391 588 391 605.5 410.5 c 128,-1,23
 623 430 623 430 651 442 c 128,-1,24
 679 454 679 454 714 460 c 128,-1,25
 749 466 749 466 784 466 c 0,4,5
784 1310 m 0,26,27
 821 1310 821 1310 856.5 1304 c 128,-1,28
 892 1298 892 1298 920 1286 c 128,-1,29
 948 1274 948 1274 965 1255 c 128,-1,30
 982 1236 982 1236 982 1210 c 2,31,-1
 982 1064 l 2,32,33
 982 1041 982 1041 965 1024 c 128,-1,34
 948 1007 948 1007 920 996 c 128,-1,35
 892 985 892 985 856.5 979.5 c 128,-1,36
 821 974 821 974 784 974 c 0,37,38
 749 974 749 974 714 979.5 c 128,-1,39
 679 985 679 985 651 996 c 128,-1,40
 623 1007 623 1007 605.5 1024 c 128,-1,41
 588 1041 588 1041 588 1064 c 2,42,-1
 588 1210 l 2,43,44
 588 1236 588 1236 605.5 1255 c 128,-1,45
 623 1274 623 1274 651 1286 c 128,-1,46
 679 1298 679 1298 714 1304 c 128,-1,47
 749 1310 749 1310 784 1310 c 0,26,27
EndSplineSet
EndChar

StartChar: exclamdown
Encoding: 161 161 82
Width: 744
Flags: W
HStem: 0 21G<234 480> 1184 336<189.433 526.567>
VStem: 162 392<1216.63 1491.14> 234 246<0 1020>
LayerCount: 2
Fore
SplineSet
358 1520 m 256,0,1
 394 1520 394 1520 429 1515 c 128,-1,2
 464 1510 464 1510 492 1499 c 128,-1,3
 520 1488 520 1488 537 1471 c 128,-1,4
 554 1454 554 1454 554 1430 c 2,5,-1
 554 1284 l 2,6,7
 554 1258 554 1258 537 1239 c 128,-1,8
 520 1220 520 1220 492 1208 c 128,-1,9
 464 1196 464 1196 429 1190 c 128,-1,10
 394 1184 394 1184 358 1184 c 256,11,12
 322 1184 322 1184 287 1190 c 128,-1,13
 252 1196 252 1196 224 1208 c 128,-1,14
 196 1220 196 1220 179 1239 c 128,-1,15
 162 1258 162 1258 162 1284 c 2,16,-1
 162 1430 l 2,17,18
 162 1454 162 1454 179 1471 c 128,-1,19
 196 1488 196 1488 224 1499 c 128,-1,20
 252 1510 252 1510 287 1515 c 128,-1,21
 322 1520 322 1520 358 1520 c 256,0,1
480 1020 m 1,22,-1
 480 0 l 1,23,-1
 234 0 l 1,24,-1
 234 1020 l 1,25,-1
 480 1020 l 1,22,-1
EndSplineSet
EndChar

StartChar: questiondown
Encoding: 191 191 83
Width: 1626
Flags: W
HStem: -4 226<330.035 1198.16> 50 354<80 324.51> 616 390<626 872> 616 208<872 1202> 1186 336<578.174 916.567>
VStem: 80 246<244.309 404> 550 394<1219.08 1492.73> 626 246<824 1006> 1202 248<244.309 616>
LayerCount: 2
Fore
SplineSet
872 1006 m 1,0,-1
 872 824 l 1,1,-1
 1450 824 l 1,2,-1
 1450 50 l 1,3,4
 1261 18 1261 18 1089 7 c 128,-1,5
 917 -4 917 -4 762 -4 c 0,6,7
 611 -4 611 -4 439 7 c 128,-1,8
 267 18 267 18 80 50 c 1,9,-1
 80 404 l 1,10,-1
 326 404 l 1,11,-1
 326 250 l 1,12,13
 392 241 392 241 470.5 234 c 128,-1,14
 549 227 549 227 646 224 c 1,15,16
 675 222 675 222 704.5 222 c 128,-1,17
 734 222 734 222 764 222 c 256,18,19
 794 222 794 222 823 222 c 128,-1,20
 852 222 852 222 884 224 c 0,21,22
 976 227 976 227 1056.5 234 c 128,-1,23
 1137 241 1137 241 1202 250 c 1,24,-1
 1202 616 l 1,25,-1
 626 616 l 1,26,-1
 626 1006 l 1,27,-1
 872 1006 l 1,0,-1
746 1522 m 0,28,29
 783 1522 783 1522 818.5 1517 c 128,-1,30
 854 1512 854 1512 882 1501 c 128,-1,31
 910 1490 910 1490 927 1473 c 128,-1,32
 944 1456 944 1456 944 1432 c 2,33,-1
 944 1286 l 2,34,35
 944 1260 944 1260 927 1241 c 128,-1,36
 910 1222 910 1222 882 1210 c 128,-1,37
 854 1198 854 1198 818.5 1192 c 128,-1,38
 783 1186 783 1186 746 1186 c 0,39,40
 711 1186 711 1186 676 1192 c 128,-1,41
 641 1198 641 1198 613 1210 c 128,-1,42
 585 1222 585 1222 567.5 1241 c 128,-1,43
 550 1260 550 1260 550 1286 c 2,44,-1
 550 1432 l 2,45,46
 550 1456 550 1456 567.5 1473 c 128,-1,47
 585 1490 585 1490 613 1501 c 128,-1,48
 641 1512 641 1512 676 1517 c 128,-1,49
 711 1522 711 1522 746 1522 c 0,28,29
EndSplineSet
EndChar

StartChar: brokenbar
Encoding: 166 166 84
Width: 1082
Flags: W
VStem: 418 246<-114 598 920 1636>
LayerCount: 2
Fore
SplineSet
664 598 m 1,0,-1
 664 -114 l 1,1,-1
 418 -114 l 1,2,-1
 418 598 l 1,3,-1
 664 598 l 1,0,-1
664 1636 m 1,4,-1
 664 920 l 1,5,-1
 418 920 l 1,6,-1
 418 1636 l 1,7,-1
 664 1636 l 1,4,-1
EndSplineSet
EndChar

StartChar: logicalnot
Encoding: 172 172 85
Width: 1648
Flags: W
HStem: 484 248<360 1066>
VStem: 1024 254<308 482.212>
LayerCount: 2
Fore
SplineSet
1324 732 m 1,0,1
 1320 646 1320 646 1312.5 569 c 128,-1,2
 1305 492 1305 492 1297 434 c 0,3,4
 1288 365 1288 365 1278 308 c 1,5,-1
 1024 308 l 1,6,7
 1032 332 1032 332 1043 379.5 c 128,-1,8
 1054 427 1054 427 1066 484 c 1,9,-1
 360 484 l 1,10,-1
 360 732 l 1,11,-1
 1324 732 l 1,0,1
EndSplineSet
EndChar

StartChar: thorn
Encoding: 254 254 86
Width: 1614
Flags: W
HStem: 0 198<552.986 1098.75> 954 186<539.466 1111.91>
VStem: 242 246<-304 68 250.408 910.562 1078 1446> 1220 262<298.406 862.5>
LayerCount: 2
Fore
SplineSet
242 1446 m 1,0,-1
 488 1446 l 1,1,-1
 488 1078 l 1,2,3
 557 1104 557 1104 640.5 1122 c 128,-1,4
 724 1140 724 1140 830 1140 c 0,5,6
 984 1140 984 1140 1105 1118.5 c 128,-1,7
 1226 1097 1226 1097 1310 1052 c 128,-1,8
 1394 1007 1394 1007 1438 938 c 128,-1,9
 1482 869 1482 869 1482 774 c 2,10,-1
 1482 366 l 2,11,12
 1482 271 1482 271 1438 202 c 128,-1,13
 1394 133 1394 133 1310 88 c 128,-1,14
 1226 43 1226 43 1105 21.5 c 128,-1,15
 984 0 984 0 830 0 c 0,16,17
 736 0 736 0 649.5 19 c 128,-1,18
 563 38 563 38 488 68 c 1,19,-1
 488 -304 l 1,20,-1
 242 -304 l 1,21,-1
 242 1446 l 1,0,-1
758 954 m 0,22,23
 712 954 712 954 673.5 948.5 c 128,-1,24
 635 943 635 943 602 934 c 128,-1,25
 569 925 569 925 541 914 c 128,-1,26
 513 903 513 903 488 892 c 1,27,-1
 488 280 l 1,28,29
 508 264 508 264 534.5 249.5 c 128,-1,30
 561 235 561 235 594.5 223.5 c 128,-1,31
 628 212 628 212 670 205 c 128,-1,32
 712 198 712 198 764 198 c 0,33,34
 857 198 857 198 940 205 c 128,-1,35
 1023 212 1023 212 1085 236.5 c 128,-1,36
 1147 261 1147 261 1183.5 307.5 c 128,-1,37
 1220 354 1220 354 1220 434 c 2,38,-1
 1220 728 l 2,39,40
 1220 809 1220 809 1182.5 854.5 c 128,-1,41
 1145 900 1145 900 1082 922 c 128,-1,42
 1019 944 1019 944 935 949 c 128,-1,43
 851 954 851 954 758 954 c 0,22,23
EndSplineSet
EndChar

StartChar: slash
Encoding: 47 47 87
Width: 1374
Flags: W
HStem: 1514 20G<910.674 962.308>
DStem2: 284 170 506 68 0.422594 0.906319<1.37143 1503.7>
LayerCount: 2
Fore
SplineSet
1140 1430 m 1,0,-1
 506 68 l 1,1,-1
 284 170 l 1,2,-1
 920 1534 l 1,3,-1
 1140 1430 l 1,0,-1
EndSplineSet
EndChar

StartChar: backslash
Encoding: 92 92 88
Width: 1374
Flags: W
HStem: 1514 20G<411.692 463.296>
DStem2: 454 1534 234 1430 0.421502 -0.906828<1.57964 1503.91>
LayerCount: 2
Fore
SplineSet
1088 170 m 1,0,-1
 868 68 l 1,1,-1
 234 1430 l 1,2,-1
 454 1534 l 1,3,-1
 1088 170 l 1,0,-1
EndSplineSet
EndChar

StartChar: fraction
Encoding: 8260 8260 89
Width: 1008
Flags: W
DStem2: 94 120 280 34 0.423104 0.906081<0.774358 1503.1>
LayerCount: 2
Fore
SplineSet
914 1396 m 1,0,-1
 280 34 l 1,1,-1
 94 120 l 1,2,-1
 730 1482 l 1,3,-1
 914 1396 l 1,0,-1
EndSplineSet
EndChar

StartChar: divisionslash
Encoding: 8725 8725 90
Width: 1374
Flags: W
HStem: 1482 20G<910.661 963.137>
DStem2: 284 140 506 38 0.423104 0.906081<1.5088 1503.18>
LayerCount: 2
Fore
SplineSet
1140 1400 m 1,0,-1
 506 38 l 1,1,-1
 284 140 l 1,2,-1
 920 1502 l 1,3,-1
 1140 1400 l 1,0,-1
EndSplineSet
EndChar

StartChar: quotedbl
Encoding: 34 34 91
Width: 1510
Flags: W
HStem: 1188 336<312.174 552.5 859.433 1099.5>
VStem: 284 394<1216.31 1490.92> 832 394<1216.31 1490.92>
LayerCount: 2
Fore
SplineSet
480 1524 m 0,0,1
 517 1524 517 1524 552.5 1518 c 128,-1,2
 588 1512 588 1512 616 1500 c 128,-1,3
 644 1488 644 1488 661 1469 c 128,-1,4
 678 1450 678 1450 678 1424 c 2,5,-1
 678 1340 l 2,6,7
 678 1312 678 1312 674.5 1262.5 c 128,-1,8
 671 1213 671 1213 657.5 1157 c 128,-1,9
 644 1101 644 1101 618.5 1046 c 128,-1,10
 593 991 593 991 550 952 c 1,11,-1
 388 952 l 1,12,13
 438 1012 438 1012 458 1073 c 128,-1,14
 478 1134 478 1134 478 1188 c 1,15,16
 443 1188 443 1188 408 1193 c 128,-1,17
 373 1198 373 1198 345.5 1208.5 c 128,-1,18
 318 1219 318 1219 301 1236 c 128,-1,19
 284 1253 284 1253 284 1276 c 2,20,-1
 284 1424 l 2,21,22
 284 1450 284 1450 301.5 1469 c 128,-1,23
 319 1488 319 1488 347 1500 c 128,-1,24
 375 1512 375 1512 410 1518 c 128,-1,25
 445 1524 445 1524 480 1524 c 0,0,1
1028 1524 m 256,26,27
 1064 1524 1064 1524 1099.5 1518 c 128,-1,28
 1135 1512 1135 1512 1163 1500 c 128,-1,29
 1191 1488 1191 1488 1208.5 1469 c 128,-1,30
 1226 1450 1226 1450 1226 1424 c 2,31,-1
 1226 1340 l 2,32,33
 1226 1312 1226 1312 1222.5 1262.5 c 128,-1,34
 1219 1213 1219 1213 1205.5 1157 c 128,-1,35
 1192 1101 1192 1101 1166.5 1046 c 128,-1,36
 1141 991 1141 991 1098 952 c 1,37,-1
 934 952 l 1,38,39
 985 1012 985 1012 1005.5 1073 c 128,-1,40
 1026 1134 1026 1134 1026 1188 c 1,41,42
 990 1188 990 1188 955 1193 c 128,-1,43
 920 1198 920 1198 893 1208.5 c 128,-1,44
 866 1219 866 1219 849 1236 c 128,-1,45
 832 1253 832 1253 832 1276 c 2,46,-1
 832 1424 l 2,47,48
 832 1450 832 1450 849 1469 c 128,-1,49
 866 1488 866 1488 894 1500 c 128,-1,50
 922 1512 922 1512 957 1518 c 128,-1,51
 992 1524 992 1524 1028 1524 c 256,26,27
EndSplineSet
EndChar

StartChar: bar
Encoding: 124 124 92
Width: 1082
Flags: W
VStem: 418 246<-114 1636>
LayerCount: 2
Fore
SplineSet
664 1636 m 1,0,-1
 664 -114 l 1,1,-1
 418 -114 l 1,2,-1
 418 1636 l 1,3,-1
 664 1636 l 1,0,-1
EndSplineSet
EndChar

StartChar: onequarter
Encoding: 188 188 93
Width: 1894
Flags: W
HStem: 0 21G<1526 1704> 304 134<1214 1526>
VStem: 190 260<1320 1500.77> 268 182<768 1320> 1038 176<438 728> 1526 178<0 304 438 728>
DStem2: 360 154 546 68 0.423104 0.906081<0.774358 1503.1>
LayerCount: 2
Fore
SplineSet
1180 1430 m 1,0,-1
 546 68 l 1,1,-1
 360 154 l 1,2,-1
 996 1516 l 1,3,-1
 1180 1430 l 1,0,-1
1214 728 m 1,4,-1
 1214 438 l 1,5,-1
 1526 438 l 1,6,-1
 1526 728 l 1,7,-1
 1704 728 l 1,8,-1
 1704 0 l 1,9,-1
 1526 0 l 1,10,-1
 1526 304 l 1,11,-1
 1038 304 l 1,12,-1
 1038 728 l 1,13,-1
 1214 728 l 1,4,-1
450 768 m 1,14,-1
 268 768 l 1,15,-1
 268 1320 l 1,16,17
 244 1315 244 1315 224 1311 c 128,-1,18
 204 1307 204 1307 190 1302 c 1,19,-1
 190 1494 l 1,20,21
 226 1500 226 1500 267 1505 c 0,22,23
 302 1510 302 1510 349 1514 c 128,-1,24
 396 1518 396 1518 450 1520 c 1,25,-1
 450 768 l 1,14,-1
EndSplineSet
EndChar

StartChar: threequarters
Encoding: 190 190 94
Width: 2300
Flags: W
HStem: 0 21G<1932 2110> 304 134<1620 1932> 786 170<200.094 677.188> 1092 136<294 678> 1348 170<196.232 677.674>
VStem: 678 178<959.253 1092 1228 1344.71> 1444 176<438 728> 1932 178<0 304 438 728>
DStem2: 366 963.5 190 816 0.988464 -0.151458<-151.63 177.064> 768 154 952 68 0.422011 0.906591<0 1502.01>
LayerCount: 2
Fore
SplineSet
522 1518 m 256,0,1
 590 1518 590 1518 672.5 1512.5 c 128,-1,2
 755 1507 755 1507 856 1490 c 1,3,-1
 856 816 l 1,4,5
 755 799 755 799 672 792.5 c 128,-1,6
 589 786 589 786 520 786 c 0,7,8
 454 786 454 786 372 792.5 c 128,-1,9
 290 799 290 799 190 816 c 1,10,-1
 190 1004 l 1,11,12
 230 991 230 991 276 980 c 0,13,14
 315 971 315 971 366 963.5 c 128,-1,15
 417 956 417 956 474 956 c 2,16,-1
 572 956 l 2,17,18
 601 956 601 956 626.5 958.5 c 128,-1,19
 652 961 652 961 678 966 c 1,20,-1
 678 1092 l 1,21,-1
 294 1092 l 1,22,-1
 294 1228 l 1,23,-1
 678 1228 l 1,24,-1
 678 1340 l 1,25,26
 652 1343 652 1343 625.5 1345.5 c 128,-1,27
 599 1348 599 1348 572 1348 c 2,28,-1
 474 1348 l 2,29,30
 419 1348 419 1348 368 1340.5 c 128,-1,31
 317 1333 317 1333 277 1325 c 1,32,33
 230 1314 230 1314 190 1302 c 1,34,-1
 190 1490 l 1,35,36
 290 1507 290 1507 372 1512.5 c 128,-1,37
 454 1518 454 1518 522 1518 c 256,0,1
1586 1430 m 1,38,-1
 952 68 l 1,39,-1
 768 154 l 1,40,-1
 1402 1516 l 1,41,-1
 1586 1430 l 1,38,-1
1620 728 m 1,42,-1
 1620 438 l 1,43,-1
 1932 438 l 1,44,-1
 1932 728 l 1,45,-1
 2110 728 l 1,46,-1
 2110 0 l 1,47,-1
 1932 0 l 1,48,-1
 1932 304 l 1,49,-1
 1444 304 l 1,50,-1
 1444 728 l 1,51,-1
 1620 728 l 1,42,-1
EndSplineSet
EndChar

StartChar: onehalf
Encoding: 189 189 95
Width: 1894
Flags: W
HStem: 2 168<1216.81 1691.81> 308 134<1216 1528> 564 170<1048.11 1525.6>
VStem: 190 260<1320 1500.77> 268 182<768 1320> 1038 178<173.253 308> 1528 176<442 559.418>
DStem2: 360 154 546 68 0.423104 0.906081<0.774358 1503.1> 1528 177.5 1523 8.5 0.990494 0.137554<-174.63 154.038>
LayerCount: 2
Fore
SplineSet
1372 734 m 256,0,1
 1440 734 1440 734 1523 728 c 128,-1,2
 1606 722 1606 722 1704 704 c 1,3,-1
 1704 308 l 1,4,-1
 1216 308 l 1,5,-1
 1216 180 l 1,6,7
 1242 175 1242 175 1267.5 172.5 c 128,-1,8
 1293 170 1293 170 1322 170 c 2,9,-1
 1420 170 l 2,10,11
 1477 170 1477 170 1528 177.5 c 128,-1,12
 1579 185 1579 185 1618 194 c 0,13,14
 1664 205 1664 205 1704 218 c 1,15,-1
 1704 30 l 1,16,17
 1606 15 1606 15 1523 8.5 c 128,-1,18
 1440 2 1440 2 1374 2 c 0,19,20
 1305 2 1305 2 1222 8.5 c 128,-1,21
 1139 15 1139 15 1038 30 c 1,22,-1
 1038 442 l 1,23,-1
 1528 442 l 1,24,-1
 1528 554 l 1,25,26
 1501 557 1501 557 1475 560.5 c 128,-1,27
 1449 564 1449 564 1420 564 c 2,28,-1
 1322 564 l 2,29,30
 1267 564 1267 564 1216 556.5 c 128,-1,31
 1165 549 1165 549 1125 540 c 0,32,33
 1078 529 1078 529 1038 516 c 1,34,-1
 1038 704 l 1,35,36
 1139 722 1139 722 1221.5 728 c 128,-1,37
 1304 734 1304 734 1372 734 c 256,0,1
996 1516 m 1,38,-1
 1180 1430 l 1,39,-1
 546 68 l 1,40,-1
 360 154 l 1,41,-1
 996 1516 l 1,38,-1
450 768 m 1,42,-1
 268 768 l 1,43,-1
 268 1320 l 1,44,45
 244 1315 244 1315 224 1311 c 128,-1,46
 204 1307 204 1307 190 1302 c 1,47,-1
 190 1494 l 1,48,49
 226 1500 226 1500 267 1505 c 0,50,51
 302 1510 302 1510 349 1514 c 128,-1,52
 396 1518 396 1518 450 1520 c 1,53,-1
 450 768 l 1,42,-1
EndSplineSet
EndChar

StartChar: dotaccent
Encoding: 729 729 96
Width: 1582
Flags: W
HStem: 1188 336<622.174 960.567>
VStem: 594 394<1216.49 1490.92>
LayerCount: 2
Fore
SplineSet
790 1524 m 0,0,1
 827 1524 827 1524 862.5 1518 c 128,-1,2
 898 1512 898 1512 926 1500 c 128,-1,3
 954 1488 954 1488 971 1469 c 128,-1,4
 988 1450 988 1450 988 1424 c 2,5,-1
 988 1276 l 2,6,7
 988 1253 988 1253 971 1236 c 128,-1,8
 954 1219 954 1219 926 1208.5 c 128,-1,9
 898 1198 898 1198 862.5 1193 c 128,-1,10
 827 1188 827 1188 790 1188 c 0,11,12
 755 1188 755 1188 720 1193 c 128,-1,13
 685 1198 685 1198 657 1208.5 c 128,-1,14
 629 1219 629 1219 611.5 1236 c 128,-1,15
 594 1253 594 1253 594 1276 c 2,16,-1
 594 1424 l 2,17,18
 594 1450 594 1450 611.5 1469 c 128,-1,19
 629 1488 629 1488 657 1500 c 128,-1,20
 685 1512 685 1512 720 1518 c 128,-1,21
 755 1524 755 1524 790 1524 c 0,0,1
EndSplineSet
EndChar

StartChar: currency
Encoding: 164 164 97
Width: 1582
Flags: W
HStem: 246 204<609.84 958.578> 786 204<615.844 951.407>
VStem: 348 240<478.865 753.371> 980 240<478.865 753.371>
LayerCount: 2
Fore
SplineSet
780 990 m 0,0,1
 842 990 842 990 903 981.5 c 128,-1,2
 964 973 964 973 1018 958 c 1,3,-1
 1238 1178 l 1,4,-1
 1414 1004 l 1,5,-1
 1214 804 l 1,6,7
 1220 786 1220 786 1220 766 c 2,8,-1
 1220 442 l 2,9,10
 1220 433 1220 433 1219 428.5 c 128,-1,11
 1218 424 1218 424 1218 422 c 1,12,-1
 1414 226 l 1,13,-1
 1238 52 l 1,14,-1
 1018 272 l 1,15,16
 964 257 964 257 903 251.5 c 128,-1,17
 842 246 842 246 780 246 c 0,18,19
 721 246 721 246 661 251.5 c 128,-1,20
 601 257 601 257 548 272 c 1,21,-1
 326 52 l 1,22,-1
 152 226 l 1,23,-1
 350 424 l 1,24,25
 348 429 348 429 348 433 c 128,-1,26
 348 437 348 437 348 442 c 2,27,-1
 348 766 l 2,28,29
 348 775 348 775 349 784 c 128,-1,30
 350 793 350 793 352 802 c 1,31,-1
 152 1004 l 1,32,-1
 326 1178 l 1,33,-1
 546 958 l 1,34,35
 600 973 600 973 660 981.5 c 128,-1,36
 720 990 720 990 780 990 c 0,0,1
980 686 m 2,37,38
 980 712 980 712 963 731 c 128,-1,39
 946 750 946 750 918 762 c 128,-1,40
 890 774 890 774 854.5 780 c 128,-1,41
 819 786 819 786 782 786 c 0,42,43
 747 786 747 786 712 780 c 128,-1,44
 677 774 677 774 649.5 762 c 128,-1,45
 622 750 622 750 605 731 c 128,-1,46
 588 712 588 712 588 686 c 2,47,-1
 588 540 l 2,48,49
 588 516 588 516 605 499 c 128,-1,50
 622 482 622 482 649.5 471 c 128,-1,51
 677 460 677 460 712 455 c 128,-1,52
 747 450 747 450 782 450 c 0,53,54
 819 450 819 450 854.5 455 c 128,-1,55
 890 460 890 460 918 471 c 128,-1,56
 946 482 946 482 963 499 c 128,-1,57
 980 516 980 516 980 540 c 2,58,-1
 980 686 l 2,37,38
EndSplineSet
EndChar

StartChar: Thorn
Encoding: 222 222 98
Width: 1640
Flags: W
HStem: 174 220<592 1146.15> 1138 218<592 1143.06>
VStem: 170 422<38.8906 180 1348 1469.36> 354 238<398.194 1133.69> 1380 264<582.57 948.93>
LayerCount: 2
Fore
SplineSet
592 1348 m 1,0,1
 639 1351 639 1351 685 1353.5 c 128,-1,2
 731 1356 731 1356 778 1356 c 0,3,4
 892 1356 892 1356 1000 1346 c 128,-1,5
 1108 1336 1108 1336 1204.5 1310.5 c 128,-1,6
 1301 1285 1301 1285 1381.5 1242.5 c 128,-1,7
 1462 1200 1462 1200 1520.5 1134.5 c 128,-1,8
 1579 1069 1579 1069 1611.5 978 c 128,-1,9
 1644 887 1644 887 1644 766 c 256,10,11
 1644 645 1644 645 1611.5 554 c 128,-1,12
 1579 463 1579 463 1520.5 397.5 c 128,-1,13
 1462 332 1462 332 1381.5 288.5 c 128,-1,14
 1301 245 1301 245 1204.5 219.5 c 128,-1,15
 1108 194 1108 194 999.5 184 c 128,-1,16
 891 174 891 174 778 174 c 0,17,18
 685 174 685 174 592 180 c 1,19,-1
 592 0 l 1,20,21
 551 2 551 2 506.5 5 c 128,-1,22
 462 8 462 8 411 13 c 128,-1,23
 360 18 360 18 300.5 26 c 128,-1,24
 241 34 241 34 170 46 c 1,25,-1
 170 300 l 1,26,27
 244 276 244 276 354 258 c 1,28,-1
 354 1268 l 1,29,30
 301 1259 301 1259 255 1248 c 128,-1,31
 209 1237 209 1237 170 1226 c 1,32,-1
 170 1462 l 1,33,34
 227 1472 227 1472 295 1481 c 0,35,36
 353 1489 353 1489 429.5 1496 c 128,-1,37
 506 1503 506 1503 592 1506 c 1,38,-1
 592 1348 l 1,0,1
740 1138 m 0,39,40
 698 1138 698 1138 660 1135.5 c 128,-1,41
 622 1133 622 1133 592 1128 c 1,42,-1
 592 402 l 1,43,44
 624 399 624 399 660 396.5 c 128,-1,45
 696 394 696 394 740 394 c 0,46,47
 805 394 805 394 877.5 396 c 128,-1,48
 950 398 950 398 1021.5 408.5 c 128,-1,49
 1093 419 1093 419 1157.5 442 c 128,-1,50
 1222 465 1222 465 1271.5 506 c 128,-1,51
 1321 547 1321 547 1350.5 610.5 c 128,-1,52
 1380 674 1380 674 1380 766 c 0,53,54
 1380 857 1380 857 1350.5 920.5 c 128,-1,55
 1321 984 1321 984 1271.5 1025 c 128,-1,56
 1222 1066 1222 1066 1157.5 1089 c 128,-1,57
 1093 1112 1093 1112 1021.5 1123 c 128,-1,58
 950 1134 950 1134 877.5 1136 c 128,-1,59
 805 1138 805 1138 740 1138 c 0,39,40
EndSplineSet
EndChar

StartChar: uni00B5
Encoding: 181 181 99
Width: 1650
Flags: W
HStem: 4 206<631.358 1090.46> 1124 20G<196 458 1206 1468>
VStem: 196 262<-320 134 300.268 1124> 1206 262<317.743 1124>
LayerCount: 2
Fore
SplineSet
888 4 m 0,0,1
 822 4 822 4 763.5 14 c 128,-1,2
 705 24 705 24 652.5 41.5 c 128,-1,3
 600 59 600 59 552 82.5 c 128,-1,4
 504 106 504 106 458 134 c 1,5,-1
 458 -320 l 1,6,-1
 196 -320 l 1,7,-1
 196 1124 l 1,8,-1
 458 1144 l 1,9,-1
 458 324 l 1,10,11
 498 301 498 301 543.5 280.5 c 128,-1,12
 589 260 589 260 641 244.5 c 128,-1,13
 693 229 693 229 751 219.5 c 128,-1,14
 809 210 809 210 874 210 c 0,15,16
 925 210 925 210 983 219 c 128,-1,17
 1041 228 1041 228 1090.5 255 c 128,-1,18
 1140 282 1140 282 1173 333 c 128,-1,19
 1206 384 1206 384 1206 468 c 2,20,-1
 1206 1144 l 1,21,-1
 1468 1124 l 1,22,-1
 1468 406 l 2,23,24
 1468 306 1468 306 1435.5 231 c 128,-1,25
 1403 156 1403 156 1332.5 105.5 c 128,-1,26
 1262 55 1262 55 1152 29.5 c 128,-1,27
 1042 4 1042 4 888 4 c 0,0,1
EndSplineSet
EndChar

StartChar: hungarumlaut
Encoding: 733 733 100
Width: 1510
Flags: W
HStem: 1188 336<304.289 478 852.275 1026>
VStem: 284 394<1216.31 1512.89> 832 394<1216.31 1512.65>
LayerCount: 2
Fore
SplineSet
480 1524 m 0,0,1
 545 1524 545 1524 584 1521 c 128,-1,2
 623 1518 623 1518 644 1509 c 128,-1,3
 665 1500 665 1500 671.5 1484 c 128,-1,4
 678 1468 678 1468 678 1442 c 2,5,-1
 678 1340 l 2,6,7
 678 1312 678 1312 674.5 1262.5 c 128,-1,8
 671 1213 671 1213 657.5 1157 c 128,-1,9
 644 1101 644 1101 618.5 1046 c 128,-1,10
 593 991 593 991 550 952 c 1,11,-1
 388 952 l 1,12,13
 438 1012 438 1012 458 1073 c 128,-1,14
 478 1134 478 1134 478 1188 c 1,15,16
 443 1188 443 1188 408 1193 c 128,-1,17
 373 1198 373 1198 345.5 1208.5 c 128,-1,18
 318 1219 318 1219 301 1236 c 128,-1,19
 284 1253 284 1253 284 1276 c 2,20,-1
 284 1442 l 2,21,22
 284 1468 284 1468 290.5 1484 c 128,-1,23
 297 1500 297 1500 318 1509 c 128,-1,24
 339 1518 339 1518 377.5 1521 c 128,-1,25
 416 1524 416 1524 480 1524 c 0,0,1
1028 1524 m 0,26,27
 1092 1524 1092 1524 1131 1521 c 128,-1,28
 1170 1518 1170 1518 1191 1509 c 128,-1,29
 1212 1500 1212 1500 1219 1484 c 128,-1,30
 1226 1468 1226 1468 1226 1442 c 2,31,-1
 1226 1340 l 2,32,33
 1226 1312 1226 1312 1222.5 1262.5 c 128,-1,34
 1219 1213 1219 1213 1205.5 1157 c 128,-1,35
 1192 1101 1192 1101 1166.5 1046 c 128,-1,36
 1141 991 1141 991 1098 952 c 1,37,-1
 934 952 l 1,38,39
 985 1012 985 1012 1005.5 1073 c 128,-1,40
 1026 1134 1026 1134 1026 1188 c 1,41,42
 990 1188 990 1188 955 1193 c 128,-1,43
 920 1198 920 1198 893 1208.5 c 128,-1,44
 866 1219 866 1219 849 1236 c 128,-1,45
 832 1253 832 1253 832 1276 c 2,46,-1
 832 1442 l 2,47,48
 832 1468 832 1468 838.5 1484 c 128,-1,49
 845 1500 845 1500 865.5 1509 c 128,-1,50
 886 1518 886 1518 924.5 1521 c 128,-1,51
 963 1524 963 1524 1028 1524 c 0,26,27
EndSplineSet
EndChar

StartChar: dotlessi
Encoding: 305 305 101
Width: 670
Flags: W
HStem: 0 21G<208 470> 1120 20G<208 470>
VStem: 208 262<0 1140>
LayerCount: 2
Fore
SplineSet
470 1140 m 1,0,-1
 470 0 l 1,1,-1
 208 0 l 1,2,-1
 208 1140 l 1,3,-1
 470 1140 l 1,0,-1
EndSplineSet
EndChar

StartChar: AE
Encoding: 198 198 102
Width: 2048
Flags: W
HStem: -6 226<1242 1811.05> 632 222<186 208 536 996 1242 1724> 1298 218<759.299 996 1242 1833.79>
VStem: 66 238<0 200.883> 996 246<220 632 854 1286>
DStem2: 282 854 536 854 0.354506 0.935054<90.0445 520.206> 1612.5 1505 1641 1285 0.989038 -0.147663<-169.627 361.909>
LayerCount: 2
Fore
SplineSet
590 1462 m 1,0,1
 779 1494 779 1494 956.5 1505 c 128,-1,2
 1134 1516 1134 1516 1288 1516 c 0,3,4
 1440 1516 1440 1516 1612.5 1505 c 128,-1,5
 1785 1494 1785 1494 1972 1462 c 1,6,-1
 1972 1216 l 1,7,8
 1905 1239 1905 1239 1819 1257 c 0,9,10
 1745 1272 1745 1272 1641 1285 c 128,-1,11
 1537 1298 1537 1298 1406 1298 c 0,12,13
 1362 1298 1362 1298 1322.5 1297 c 128,-1,14
 1283 1296 1283 1296 1242 1296 c 1,15,-1
 1242 854 l 1,16,-1
 1724 854 l 1,17,-1
 1724 632 l 1,18,-1
 1242 632 l 1,19,-1
 1242 220 l 1,20,21
 1283 220 1283 220 1323.5 220 c 128,-1,22
 1364 220 1364 220 1406 222 c 0,23,24
 1537 226 1537 226 1641 239 c 128,-1,25
 1745 252 1745 252 1819 266 c 0,26,27
 1905 283 1905 283 1972 302 c 1,28,-1
 1972 48 l 1,29,30
 1785 16 1785 16 1612 5 c 128,-1,31
 1439 -6 1439 -6 1284 -6 c 0,32,33
 1218 -6 1218 -6 1144.5 -4.5 c 128,-1,34
 1071 -3 1071 -3 996 2 c 1,35,-1
 996 632 l 1,36,-1
 462 632 l 1,37,38
 436 546 436 546 413 460.5 c 128,-1,39
 390 375 390 375 370.5 294 c 128,-1,40
 351 213 351 213 334 138.5 c 128,-1,41
 317 64 317 64 304 0 c 1,42,-1
 66 0 l 1,43,44
 98 187 98 187 134 344 c 128,-1,45
 170 501 170 501 208 632 c 1,46,-1
 102 632 l 1,47,-1
 186 854 l 1,48,-1
 282 854 l 1,49,50
 326 980 326 980 370 1077 c 128,-1,51
 414 1174 414 1174 454.5 1247.5 c 128,-1,52
 495 1321 495 1321 529.5 1373 c 128,-1,53
 564 1425 564 1425 590 1462 c 1,0,1
996 1286 m 1,54,55
 911 1278 911 1278 843 1267.5 c 128,-1,56
 775 1257 775 1257 724 1246 c 1,57,58
 670 1163 670 1163 622.5 1063.5 c 128,-1,59
 575 964 575 964 536 854 c 1,60,-1
 996 854 l 1,61,-1
 996 1286 l 1,54,55
EndSplineSet
EndChar

StartChar: dollar
Encoding: 36 36 103
Width: 1772
Flags: W
HStem: 4 222<529.273 764 1010 1239.98> 666 202<406 764 1010 1364> 1302 218<533.987 764 1010 1234.98>
VStem: 146 260<319.86 353.97 868 1207.75> 764 246<-134 4 226 666 868 1302 1517.19 1654> 1364 260<319.86 666 1174.03 1205.15>
LayerCount: 2
Fore
SplineSet
1010 1654 m 1,0,-1
 1010 1520 l 1,1,2
 1128 1513 1128 1513 1235 1492.5 c 128,-1,3
 1342 1472 1342 1472 1425 1431.5 c 128,-1,4
 1508 1391 1508 1391 1561 1329 c 128,-1,5
 1614 1267 1614 1267 1624 1178 c 1,6,-1
 1364 1106 l 1,7,8
 1364 1155 1364 1155 1335.5 1189.5 c 128,-1,9
 1307 1224 1307 1224 1259 1247.5 c 128,-1,10
 1211 1271 1211 1271 1146.5 1284 c 128,-1,11
 1082 1297 1082 1297 1010 1302 c 1,12,-1
 1010 868 l 1,13,-1
 1624 868 l 1,14,-1
 1624 350 l 2,15,16
 1624 260 1624 260 1573 197 c 128,-1,17
 1522 134 1522 134 1436.5 93 c 128,-1,18
 1351 52 1351 52 1240 31 c 128,-1,19
 1129 10 1129 10 1010 4 c 1,20,-1
 1010 -134 l 1,21,-1
 764 -134 l 1,22,-1
 764 4 l 1,23,24
 644 10 644 10 536 31 c 128,-1,25
 428 52 428 52 344 93 c 128,-1,26
 260 134 260 134 207.5 197 c 128,-1,27
 155 260 155 260 146 350 c 1,28,-1
 406 422 l 1,29,30
 406 370 406 370 435 334.5 c 128,-1,31
 464 299 464 299 513.5 276.5 c 128,-1,32
 563 254 563 254 628 242 c 128,-1,33
 693 230 693 230 764 226 c 1,34,-1
 764 666 l 1,35,-1
 146 666 l 1,36,-1
 146 1178 l 2,37,38
 146 1267 146 1267 197 1329 c 128,-1,39
 248 1391 248 1391 333.5 1431.5 c 128,-1,40
 419 1472 419 1472 530.5 1492.5 c 128,-1,41
 642 1513 642 1513 764 1520 c 1,42,-1
 764 1654 l 1,43,-1
 1010 1654 l 1,0,-1
1010 666 m 1,44,-1
 1010 226 l 1,45,46
 1082 231 1082 231 1146.5 243.5 c 128,-1,47
 1211 256 1211 256 1259 279 c 128,-1,48
 1307 302 1307 302 1335.5 337 c 128,-1,49
 1364 372 1364 372 1364 422 c 2,50,-1
 1364 666 l 1,51,-1
 1010 666 l 1,44,-1
406 868 m 1,52,-1
 764 868 l 1,53,-1
 764 1302 l 1,54,55
 693 1297 693 1297 628 1284.5 c 128,-1,56
 563 1272 563 1272 513.5 1249 c 128,-1,57
 464 1226 464 1226 435 1191 c 128,-1,58
 406 1156 406 1156 406 1106 c 2,59,-1
 406 868 l 1,52,-1
EndSplineSet
EndChar

StartChar: cent
Encoding: 162 162 104
Width: 1640
Flags: W
HStem: -16 202<525.075 698 944 1144.89> 956 200<530.955 698 944 1142.71>
VStem: 146 254<278.367 861.188> 698 246<-152 -13.1244 190 952 1152.41 1290>
LayerCount: 2
Fore
SplineSet
944 1290 m 1,0,-1
 944 1156 l 1,1,2
 1019 1151 1019 1151 1091.5 1139 c 128,-1,3
 1164 1127 1164 1127 1229.5 1107.5 c 128,-1,4
 1295 1088 1295 1088 1350.5 1061 c 128,-1,5
 1406 1034 1406 1034 1446.5 997.5 c 128,-1,6
 1487 961 1487 961 1509.5 916 c 128,-1,7
 1532 871 1532 871 1532 816 c 1,8,-1
 1274 778 l 1,9,10
 1274 815 1274 815 1247.5 844.5 c 128,-1,11
 1221 874 1221 874 1176 896.5 c 128,-1,12
 1131 919 1131 919 1071 934 c 128,-1,13
 1011 949 1011 949 944 956 c 1,14,-1
 944 186 l 1,15,16
 1011 193 1011 193 1071 207.5 c 128,-1,17
 1131 222 1131 222 1176 244 c 128,-1,18
 1221 266 1221 266 1247.5 295.5 c 128,-1,19
 1274 325 1274 325 1274 362 c 1,20,-1
 1532 298 l 1,21,22
 1532 249 1532 249 1509.5 208 c 128,-1,23
 1487 167 1487 167 1446.5 133.5 c 128,-1,24
 1406 100 1406 100 1350.5 74 c 128,-1,25
 1295 48 1295 48 1229.5 29.5 c 128,-1,26
 1164 11 1164 11 1091.5 -0.5 c 128,-1,27
 1019 -12 1019 -12 944 -16 c 1,28,-1
 944 -152 l 1,29,-1
 698 -152 l 1,30,-1
 698 -14 l 1,31,32
 590 -5 590 -5 490 18.5 c 128,-1,33
 390 42 390 42 313.5 80.5 c 128,-1,34
 237 119 237 119 191.5 173 c 128,-1,35
 146 227 146 227 146 298 c 2,36,-1
 146 816 l 2,37,38
 146 895 146 895 191.5 954.5 c 128,-1,39
 237 1014 237 1014 313.5 1055 c 128,-1,40
 390 1096 390 1096 490 1120 c 128,-1,41
 590 1144 590 1144 698 1154 c 1,42,-1
 698 1290 l 1,43,-1
 944 1290 l 1,0,-1
400 362 m 2,44,45
 400 326 400 326 424 297.5 c 128,-1,46
 448 269 448 269 488.5 247.5 c 128,-1,47
 529 226 529 226 583 211.5 c 128,-1,48
 637 197 637 197 698 190 c 1,49,-1
 698 952 l 1,50,51
 637 944 637 944 583 929 c 128,-1,52
 529 914 529 914 488.5 892 c 128,-1,53
 448 870 448 870 424 841.5 c 128,-1,54
 400 813 400 813 400 778 c 2,55,-1
 400 362 l 2,44,45
EndSplineSet
EndChar

StartChar: sterling
Encoding: 163 163 105
Width: 1600
Flags: W
HStem: 2 226<648.855 1220.5> 56 254<248 398.336> 628 248<168 400 648 1066> 1318 204<648.789 1029.11>
VStem: 400 248<270 628 876 1314.14>
DStem2: 1123 242 1117 13 0.991013 0.133765<-283.071 112.972>
LayerCount: 2
Fore
SplineSet
780 1318 m 0,0,1
 744 1318 744 1318 710.5 1315.5 c 128,-1,2
 677 1313 677 1313 648 1310 c 1,3,-1
 648 876 l 1,4,-1
 1066 876 l 1,5,-1
 1066 628 l 1,6,-1
 648 628 l 1,7,-1
 648 234 l 1,8,9
 732 228 732 228 838 228 c 0,10,11
 878 228 878 228 925 229.5 c 128,-1,12
 972 231 972 231 1022 234 c 128,-1,13
 1072 237 1072 237 1123 242 c 128,-1,14
 1174 247 1174 247 1222 254 c 1,15,16
 1231 307 1231 307 1237.5 368 c 128,-1,17
 1244 429 1244 429 1250 504 c 1,18,-1
 1478 504 l 1,19,20
 1472 397 1472 397 1461.5 285.5 c 128,-1,21
 1451 174 1451 174 1428 56 c 1,22,23
 1335 40 1335 40 1260 29.5 c 128,-1,24
 1185 19 1185 19 1117 13 c 128,-1,25
 1049 7 1049 7 983 4.5 c 128,-1,26
 917 2 917 2 842 2 c 0,27,28
 765 2 765 2 697.5 4.5 c 128,-1,29
 630 7 630 7 561.5 13 c 128,-1,30
 493 19 493 19 417.5 29.5 c 128,-1,31
 342 40 342 40 248 56 c 1,32,-1
 248 310 l 1,33,34
 290 296 290 296 327.5 287 c 128,-1,35
 365 278 365 278 400 270 c 1,36,-1
 400 628 l 1,37,-1
 168 628 l 1,38,-1
 168 876 l 1,39,-1
 400 876 l 1,40,-1
 400 1470 l 1,41,42
 459 1482 459 1482 507.5 1491.5 c 128,-1,43
 556 1501 556 1501 601 1508 c 128,-1,44
 646 1515 646 1515 690.5 1518.5 c 128,-1,45
 735 1522 735 1522 788 1522 c 0,46,47
 913 1522 913 1522 1020 1502.5 c 128,-1,48
 1127 1483 1127 1483 1205 1441 c 128,-1,49
 1283 1399 1283 1399 1327.5 1333 c 128,-1,50
 1372 1267 1372 1267 1372 1174 c 1,51,-1
 1116 1136 l 1,52,53
 1116 1225 1116 1225 1033.5 1271.5 c 128,-1,54
 951 1318 951 1318 780 1318 c 0,0,1
EndSplineSet
EndChar

StartChar: yen
Encoding: 165 165 106
Width: 1678
Flags: W
HStem: -6 228<320.317 736 972 1387.68> 382 190<482.124 736 972 1233.88> 398 192<480 733.752 974.403 1236>
VStem: 170 398<1248.38 1469.5> 342 226<1108.3 1248> 736 236<222 382 572 696> 1140 398<1248.38 1469.5> 1140 226<1109.46 1248>
DStem2: 323 266 170 48 0.989038 -0.147663<-119.132 410.029>
LayerCount: 2
Fore
SplineSet
582 1508 m 1,0,1
 576 1463 576 1463 572 1412 c 128,-1,2
 568 1361 568 1361 568 1310 c 0,3,4
 568 1224 568 1224 591 1158.5 c 128,-1,5
 614 1093 614 1093 653 1041.5 c 128,-1,6
 692 990 692 990 744 949.5 c 128,-1,7
 796 909 796 909 854 874 c 1,8,9
 911 909 911 909 963 949.5 c 128,-1,10
 1015 990 1015 990 1054 1041.5 c 128,-1,11
 1093 1093 1093 1093 1116.5 1158.5 c 128,-1,12
 1140 1224 1140 1224 1140 1310 c 0,13,14
 1140 1361 1140 1361 1136 1412 c 128,-1,15
 1132 1463 1132 1463 1126 1508 c 1,16,17
 1209 1505 1209 1505 1283 1497.5 c 128,-1,18
 1357 1490 1357 1490 1414 1482 c 0,19,20
 1480 1472 1480 1472 1538 1462 c 1,21,-1
 1538 1208 l 1,22,23
 1524 1212 1524 1212 1501 1218 c 128,-1,24
 1478 1224 1478 1224 1453 1230 c 128,-1,25
 1428 1236 1428 1236 1404.5 1241 c 128,-1,26
 1381 1246 1381 1246 1366 1248 c 1,27,28
 1365 1150 1365 1150 1341 1074 c 128,-1,29
 1317 998 1317 998 1276 938 c 128,-1,30
 1235 878 1235 878 1180 832 c 128,-1,31
 1125 786 1125 786 1062 748 c 1,32,-1
 972 696 l 1,33,-1
 972 572 l 1,34,35
 1049 574 1049 574 1114.5 580 c 128,-1,36
 1180 586 1180 586 1236 592 c 1,37,-1
 1236 398 l 1,38,39
 1168 392 1168 392 1101.5 388 c 128,-1,40
 1035 384 1035 384 972 382 c 1,41,-1
 972 222 l 1,42,43
 1103 226 1103 226 1207 239 c 128,-1,44
 1311 252 1311 252 1385 266 c 0,45,46
 1471 283 1471 283 1538 302 c 1,47,-1
 1538 48 l 1,48,49
 1351 16 1351 16 1179 5 c 128,-1,50
 1007 -6 1007 -6 856 -6 c 0,51,52
 702 -6 702 -6 529.5 5 c 128,-1,53
 357 16 357 16 170 48 c 1,54,-1
 170 302 l 1,55,56
 237 283 237 283 323 266 c 0,57,58
 397 252 397 252 501 239 c 128,-1,59
 605 226 605 226 736 222 c 1,60,-1
 736 382 l 1,61,62
 674 384 674 384 611 388 c 128,-1,63
 548 392 548 392 480 398 c 1,64,-1
 480 590 l 1,65,66
 537 584 537 584 600.5 579 c 128,-1,67
 664 574 664 574 736 572 c 1,68,-1
 736 696 l 1,69,-1
 646 748 l 1,70,71
 583 786 583 786 528 832 c 128,-1,72
 473 878 473 878 432 938 c 128,-1,73
 391 998 391 998 367 1074 c 128,-1,74
 343 1150 343 1150 342 1248 c 1,75,76
 327 1246 327 1246 303.5 1241 c 128,-1,77
 280 1236 280 1236 255 1230 c 128,-1,78
 230 1224 230 1224 207 1218 c 128,-1,79
 184 1212 184 1212 170 1208 c 1,80,-1
 170 1462 l 1,81,82
 226 1472 226 1472 293 1482 c 0,83,84
 350 1490 350 1490 424.5 1497.5 c 128,-1,85
 499 1505 499 1505 582 1508 c 1,0,1
EndSplineSet
EndChar

StartChar: degree
Encoding: 176 176 107
Width: 1582
Flags: W
HStem: 632 136<677.576 904.214> 964 136<679.047 902.711>
VStem: 518 158<777.188 953> 906 160<777.188 953>
LayerCount: 2
Fore
SplineSet
790 1100 m 0,0,1
 841 1100 841 1100 890.5 1092 c 128,-1,2
 940 1084 940 1084 979 1067.5 c 128,-1,3
 1018 1051 1018 1051 1042 1025 c 128,-1,4
 1066 999 1066 999 1066 962 c 2,5,-1
 1066 758 l 2,6,7
 1066 725 1066 725 1042 701 c 128,-1,8
 1018 677 1018 677 979 662 c 128,-1,9
 940 647 940 647 890.5 639.5 c 128,-1,10
 841 632 841 632 790 632 c 0,11,12
 741 632 741 632 692.5 639.5 c 128,-1,13
 644 647 644 647 605 662 c 128,-1,14
 566 677 566 677 542 701 c 128,-1,15
 518 725 518 725 518 758 c 2,16,-1
 518 962 l 2,17,18
 518 999 518 999 542 1025 c 128,-1,19
 566 1051 566 1051 605 1067.5 c 128,-1,20
 644 1084 644 1084 692.5 1092 c 128,-1,21
 741 1100 741 1100 790 1100 c 0,0,1
790 964 m 0,22,23
 770 964 770 964 749.5 960.5 c 128,-1,24
 729 957 729 957 712.5 949.5 c 128,-1,25
 696 942 696 942 686 931 c 128,-1,26
 676 920 676 920 676 904 c 2,27,-1
 676 820 l 2,28,29
 676 806 676 806 686 796 c 128,-1,30
 696 786 696 786 712.5 780 c 128,-1,31
 729 774 729 774 749.5 771 c 128,-1,32
 770 768 770 768 790 768 c 0,33,34
 812 768 812 768 832.5 771 c 128,-1,35
 853 774 853 774 869.5 780 c 128,-1,36
 886 786 886 786 896 796 c 128,-1,37
 906 806 906 806 906 820 c 2,38,-1
 906 904 l 2,39,40
 906 920 906 920 896 931 c 128,-1,41
 886 942 886 942 869.5 949.5 c 128,-1,42
 853 957 853 957 832.5 960.5 c 128,-1,43
 812 964 812 964 790 964 c 0,22,23
EndSplineSet
EndChar

StartChar: asciicircum
Encoding: 94 94 108
Width: 1582
Flags: W
HStem: 1114 578
LayerCount: 2
Fore
SplineSet
1196 1288 m 1,0,-1
 1020 1114 l 1,1,-1
 788 1344 l 1,2,-1
 560 1116 l 1,3,-1
 386 1290 l 1,4,-1
 788 1692 l 1,5,-1
 1196 1288 l 1,0,-1
EndSplineSet
EndChar

StartChar: registered
Encoding: 174 174 109
Width: 1640
Flags: W
HStem: 148 108<492.414 1168.81> 424 106<630.267 1029.1> 938 104<632.051 1025.46> 1200 110<505.832 1155.23>
VStem: 156 122<399.053 1042.55> 468 132<565.672 900.674> 1060 136<566.933 592 862 899.337> 1386 130<399.715 1040.89>
LayerCount: 2
Fore
SplineSet
830 1310 m 0,0,1
 914 1310 914 1310 997.5 1301.5 c 128,-1,2
 1081 1293 1081 1293 1157 1275 c 128,-1,3
 1233 1257 1233 1257 1299 1229.5 c 128,-1,4
 1365 1202 1365 1202 1413 1163.5 c 128,-1,5
 1461 1125 1461 1125 1488.5 1076 c 128,-1,6
 1516 1027 1516 1027 1516 966 c 2,7,-1
 1516 462 l 2,8,9
 1516 408 1516 408 1488.5 363.5 c 128,-1,10
 1461 319 1461 319 1413 284 c 128,-1,11
 1365 249 1365 249 1299 223.5 c 128,-1,12
 1233 198 1233 198 1157 181 c 128,-1,13
 1081 164 1081 164 997.5 156 c 128,-1,14
 914 148 914 148 830 148 c 0,15,16
 749 148 749 148 667.5 156 c 128,-1,17
 586 164 586 164 511 181 c 128,-1,18
 436 198 436 198 371.5 223.5 c 128,-1,19
 307 249 307 249 259 284 c 128,-1,20
 211 319 211 319 183.5 363 c 128,-1,21
 156 407 156 407 156 462 c 2,22,-1
 156 966 l 2,23,24
 156 1027 156 1027 183.5 1076 c 128,-1,25
 211 1125 211 1125 259 1163.5 c 128,-1,26
 307 1202 307 1202 371.5 1229.5 c 128,-1,27
 436 1257 436 1257 511 1275 c 128,-1,28
 586 1293 586 1293 667.5 1301.5 c 128,-1,29
 749 1310 749 1310 830 1310 c 0,0,1
826 1200 m 0,30,31
 726 1200 726 1200 628 1184.5 c 128,-1,32
 530 1169 530 1169 452 1134.5 c 128,-1,33
 374 1100 374 1100 326 1046 c 128,-1,34
 278 992 278 992 278 916 c 2,35,-1
 278 514 l 2,36,37
 278 444 278 444 326 395 c 128,-1,38
 374 346 374 346 452 315 c 128,-1,39
 530 284 530 284 628 270 c 128,-1,40
 726 256 726 256 826 256 c 0,41,42
 930 256 930 256 1030.5 270 c 128,-1,43
 1131 284 1131 284 1210 315 c 128,-1,44
 1289 346 1289 346 1337.5 395 c 128,-1,45
 1386 444 1386 444 1386 514 c 2,46,-1
 1386 916 l 2,47,48
 1386 992 1386 992 1337.5 1046 c 128,-1,49
 1289 1100 1289 1100 1210 1134.5 c 128,-1,50
 1131 1169 1131 1169 1030.5 1184.5 c 128,-1,51
 930 1200 930 1200 826 1200 c 0,30,31
830 1042 m 0,52,53
 896 1042 896 1042 961.5 1032 c 128,-1,54
 1027 1022 1027 1022 1079 1000.5 c 128,-1,55
 1131 979 1131 979 1163.5 945 c 128,-1,56
 1196 911 1196 911 1196 862 c 1,57,-1
 1060 842 l 1,58,59
 1060 864 1060 864 1040.5 882 c 128,-1,60
 1021 900 1021 900 989 912.5 c 128,-1,61
 957 925 957 925 915.5 931.5 c 128,-1,62
 874 938 874 938 830 938 c 0,63,64
 788 938 788 938 747 932 c 128,-1,65
 706 926 706 926 673 914 c 128,-1,66
 640 902 640 902 620 884 c 128,-1,67
 600 866 600 866 600 842 c 2,68,-1
 600 626 l 2,69,70
 600 601 600 601 620 583 c 128,-1,71
 640 565 640 565 673 553 c 128,-1,72
 706 541 706 541 747 535.5 c 128,-1,73
 788 530 788 530 830 530 c 0,74,75
 874 530 874 530 915.5 536 c 128,-1,76
 957 542 957 542 989 554 c 128,-1,77
 1021 566 1021 566 1040.5 584 c 128,-1,78
 1060 602 1060 602 1060 626 c 1,79,-1
 1196 592 l 1,80,81
 1196 548 1196 548 1163.5 516 c 128,-1,82
 1131 484 1131 484 1079 463.5 c 128,-1,83
 1027 443 1027 443 961.5 433.5 c 128,-1,84
 896 424 896 424 830 424 c 0,85,86
 765 424 765 424 700.5 433.5 c 128,-1,87
 636 443 636 443 584.5 463.5 c 128,-1,88
 533 484 533 484 500.5 516 c 128,-1,89
 468 548 468 548 468 592 c 2,90,-1
 468 862 l 2,91,92
 468 911 468 911 500.5 945 c 128,-1,93
 533 979 533 979 584.5 1000.5 c 128,-1,94
 636 1022 636 1022 700.5 1032 c 128,-1,95
 765 1042 765 1042 830 1042 c 0,52,53
EndSplineSet
EndChar

StartChar: copyright
Encoding: 169 169 110
Width: 1640
Flags: W
HStem: 134 110<497.03 1173.16> 386 102<593.851 650 778 1082.03> 408 104<556 648.727 808.126 1084> 778 238<982.407 1101.89> 892 124<818.091 982> 1188 110<512.667 1157.07>
VStem: 156 126<386.565 1028.78> 650 128<500 868.159> 975 121<778 890.134> 1390 126<387.64 1027.11>
LayerCount: 2
Fore
SplineSet
830 1298 m 0,0,1
 914 1298 914 1298 997.5 1289.5 c 128,-1,2
 1081 1281 1081 1281 1157 1262.5 c 128,-1,3
 1233 1244 1233 1244 1299 1216.5 c 128,-1,4
 1365 1189 1365 1189 1413 1150.5 c 128,-1,5
 1461 1112 1461 1112 1488.5 1062.5 c 128,-1,6
 1516 1013 1516 1013 1516 952 c 2,7,-1
 1516 448 l 2,8,9
 1516 394 1516 394 1488.5 349.5 c 128,-1,10
 1461 305 1461 305 1413 270 c 128,-1,11
 1365 235 1365 235 1299 209.5 c 128,-1,12
 1233 184 1233 184 1157 167 c 128,-1,13
 1081 150 1081 150 997.5 142 c 128,-1,14
 914 134 914 134 830 134 c 0,15,16
 749 134 749 134 667.5 142 c 128,-1,17
 586 150 586 150 511 167 c 128,-1,18
 436 184 436 184 371.5 209.5 c 128,-1,19
 307 235 307 235 259 270 c 128,-1,20
 211 305 211 305 183.5 349 c 128,-1,21
 156 393 156 393 156 448 c 2,22,-1
 156 952 l 2,23,24
 156 1013 156 1013 183.5 1062.5 c 128,-1,25
 211 1112 211 1112 259 1150.5 c 128,-1,26
 307 1189 307 1189 371.5 1216.5 c 128,-1,27
 436 1244 436 1244 511 1262.5 c 128,-1,28
 586 1281 586 1281 667.5 1289.5 c 128,-1,29
 749 1298 749 1298 830 1298 c 0,0,1
830 1188 m 0,30,31
 730 1188 730 1188 632 1172 c 128,-1,32
 534 1156 534 1156 456 1121.5 c 128,-1,33
 378 1087 378 1087 330 1032.5 c 128,-1,34
 282 978 282 978 282 902 c 2,35,-1
 282 502 l 2,36,37
 282 432 282 432 330 383 c 128,-1,38
 378 334 378 334 456 303 c 128,-1,39
 534 272 534 272 632 258 c 128,-1,40
 730 244 730 244 830 244 c 0,41,42
 934 244 934 244 1034.5 258 c 128,-1,43
 1135 272 1135 272 1214 303 c 128,-1,44
 1293 334 1293 334 1341.5 383 c 128,-1,45
 1390 432 1390 432 1390 502 c 2,46,-1
 1390 902 l 2,47,48
 1390 978 1390 978 1341.5 1032.5 c 128,-1,49
 1293 1087 1293 1087 1214 1121.5 c 128,-1,50
 1135 1156 1135 1156 1034.5 1172 c 128,-1,51
 934 1188 934 1188 830 1188 c 0,30,31
1114 1016 m 1,52,53
 1114 962 1114 962 1109.5 901.5 c 128,-1,54
 1105 841 1105 841 1096 778 c 1,55,-1
 968 778 l 1,56,57
 971 790 971 790 975 808 c 1,58,59
 977 822 977 822 979.5 843.5 c 128,-1,60
 982 865 982 865 982 892 c 1,61,62
 935 892 935 892 901 887 c 128,-1,63
 867 882 867 882 843 875 c 128,-1,64
 819 868 819 868 803.5 860 c 128,-1,65
 788 852 788 852 778 846 c 1,66,-1
 778 488 l 1,67,68
 847 488 847 488 903 491.5 c 128,-1,69
 959 495 959 495 1000 500 c 0,70,71
 1047 505 1047 505 1084 512 c 1,72,-1
 1084 408 l 1,73,74
 1021 393 1021 393 947.5 389.5 c 128,-1,75
 874 386 874 386 806 386 c 0,76,77
 735 386 735 386 672 392.5 c 128,-1,78
 609 399 609 399 556 414 c 1,79,-1
 556 512 l 1,80,-1
 650 500 l 1,81,-1
 650 848 l 1,82,83
 648 865 648 865 640 877 c 128,-1,84
 632 889 632 889 624 897 c 0,85,86
 613 907 613 907 602 914 c 1,87,-1
 648 1016 l 1,88,89
 668 1009 668 1009 687 998 c 0,90,91
 704 988 704 988 722 972.5 c 128,-1,92
 740 957 740 957 754 934 c 1,93,94
 797 962 797 962 832.5 978 c 128,-1,95
 868 994 868 994 907.5 1002 c 128,-1,96
 947 1010 947 1010 996 1012.5 c 128,-1,97
 1045 1015 1045 1015 1114 1016 c 1,52,53
EndSplineSet
EndChar

StartChar: ampersand
Encoding: 38 38 111
Width: 1754
Flags: W
HStem: 0 210<446.461 930> 666 232<442 1082 1314 1584> 1318 210<446.255 936>
VStem: 210 232<237.645 666 898 1291.06> 1082 232<236 666 898 1508>
DStem2: 600 224 210 52 0.990229 -0.13945<-159.245 327.537> 1314 236 1327 21 0.989138 0.146991<0 246.544>
LayerCount: 2
Fore
SplineSet
936 1528 m 1,0,-1
 936 1318 l 1,1,2
 898 1318 898 1318 855.5 1318 c 128,-1,3
 813 1318 813 1318 778 1316 c 0,4,5
 674 1311 674 1311 592 1303.5 c 128,-1,6
 510 1296 510 1296 442 1284 c 1,7,-1
 442 898 l 1,8,-1
 1082 898 l 1,9,-1
 1082 1524 l 1,10,11
 1120 1522 1120 1522 1150.5 1520.5 c 128,-1,12
 1181 1519 1181 1519 1208 1517.5 c 128,-1,13
 1235 1516 1235 1516 1260.5 1513.5 c 128,-1,14
 1286 1511 1286 1511 1314 1508 c 1,15,-1
 1314 898 l 1,16,-1
 1584 898 l 1,17,-1
 1584 666 l 1,18,-1
 1314 666 l 1,19,-1
 1314 236 l 1,20,21
 1380 245 1380 245 1431 255.5 c 128,-1,22
 1482 266 1482 266 1517 276 c 0,23,24
 1558 287 1558 287 1590 298 c 1,25,-1
 1590 56 l 1,26,27
 1456 33 1456 33 1327 21 c 128,-1,28
 1198 9 1198 9 1082 4 c 1,29,-1
 1082 666 l 1,30,-1
 442 666 l 1,31,-1
 442 244 l 1,32,33
 514 233 514 233 600 224 c 128,-1,34
 686 215 686 215 778 212 c 0,35,36
 814 210 814 210 853 210 c 128,-1,37
 892 210 892 210 930 210 c 1,38,-1
 930 0 l 1,39,-1
 900 0 l 2,40,41
 746 0 746 0 573 10 c 128,-1,42
 400 20 400 20 210 52 c 1,43,-1
 210 1476 l 1,44,45
 400 1508 400 1508 572.5 1518 c 128,-1,46
 745 1528 745 1528 894 1528 c 2,47,-1
 936 1528 l 1,0,-1
EndSplineSet
EndChar

StartChar: braceright
Encoding: 125 125 112
Width: 1430
Flags: W
VStem: 474 262<66.3298 416 1048 1397.33>
LayerCount: 2
Fore
SplineSet
492 1628 m 1,0,1
 559 1605 559 1605 613 1563 c 0,2,3
 635 1545 635 1545 657 1521 c 128,-1,4
 679 1497 679 1497 696 1466.5 c 128,-1,5
 713 1436 713 1436 723.5 1398.5 c 128,-1,6
 734 1361 734 1361 734 1316 c 2,7,-1
 734 1048 l 1,8,-1
 1050 732 l 1,9,-1
 736 416 l 1,10,-1
 736 150 l 2,11,12
 736 105 736 105 725.5 67.5 c 128,-1,13
 715 30 715 30 698 -0.5 c 128,-1,14
 681 -31 681 -31 659 -55 c 128,-1,15
 637 -79 637 -79 615 -97 c 0,16,17
 561 -139 561 -139 494 -162 c 1,18,-1
 382 34 l 1,19,20
 405 44 405 44 424 61 c 0,21,22
 441 75 441 75 455.5 97.5 c 128,-1,23
 470 120 470 120 474 152 c 1,24,-1
 474 504 l 1,25,-1
 702 732 l 1,26,-1
 472 964 l 1,27,-1
 472 1314 l 1,28,29
 468 1346 468 1346 453.5 1368 c 128,-1,30
 439 1390 439 1390 422 1404 c 0,31,32
 403 1421 403 1421 380 1432 c 1,33,-1
 492 1628 l 1,0,1
EndSplineSet
EndChar

StartChar: braceleft
Encoding: 123 123 113
Width: 1430
Flags: W
VStem: 698 262<72.8398 426 1058 1410.84>
LayerCount: 2
Fore
SplineSet
1050 1442 m 1,0,1
 1026 1431 1026 1431 1008 1414 c 1,2,3
 991 1400 991 1400 977 1378 c 128,-1,4
 963 1356 963 1356 960 1324 c 1,5,-1
 960 972 l 1,6,-1
 730 740 l 1,7,-1
 958 512 l 1,8,-1
 958 162 l 1,9,10
 962 130 962 130 976.5 107.5 c 128,-1,11
 991 85 991 85 1007 71 c 0,12,13
 1025 54 1025 54 1048 44 c 1,14,-1
 936 -152 l 1,15,16
 869 -129 869 -129 816 -87 c 0,17,18
 793 -69 793 -69 771.5 -45 c 128,-1,19
 750 -21 750 -21 733.5 9.5 c 128,-1,20
 717 40 717 40 706.5 77.5 c 128,-1,21
 696 115 696 115 696 160 c 2,22,-1
 696 426 l 1,23,-1
 380 740 l 1,24,-1
 698 1058 l 1,25,-1
 698 1326 l 2,26,27
 698 1371 698 1371 708.5 1408.5 c 128,-1,28
 719 1446 719 1446 735.5 1476.5 c 128,-1,29
 752 1507 752 1507 773.5 1531 c 128,-1,30
 795 1555 795 1555 818 1573 c 0,31,32
 871 1615 871 1615 938 1638 c 1,33,-1
 1050 1442 l 1,0,1
EndSplineSet
EndChar

StartChar: at
Encoding: 64 64 114
Width: 2556
Flags: W
HStem: 42 180<930.938 1582 1804 2030.75> 448 170<969.004 1519.49> 768 184<1002.93 1529.65> 1112 194<889.221 1655.13>
VStem: 708 222<246 392.698 680 702.579> 1582 222<222 396.593 550 717.82> 2034 216<230.475 873.4>
DStem2: 958.5 242 708 90 0.988656 -0.150196<-28.6792 386.973>
LayerCount: 2
Fore
SplineSet
1260 1306 m 0,0,1
 1381 1306 1381 1306 1501.5 1293.5 c 128,-1,2
 1622 1281 1622 1281 1732 1254.5 c 128,-1,3
 1842 1228 1842 1228 1936.5 1187 c 128,-1,4
 2031 1146 2031 1146 2101 1089.5 c 128,-1,5
 2171 1033 2171 1033 2210.5 960.5 c 128,-1,6
 2250 888 2250 888 2250 798 c 2,7,-1
 2250 76 l 1,8,9
 2089 53 2089 53 1932.5 47.5 c 128,-1,10
 1776 42 1776 42 1616 42 c 2,11,-1
 1258 42 l 2,12,13
 1139 42 1139 42 1001 52.5 c 128,-1,14
 863 63 863 63 708 90 c 1,15,-1
 708 384 l 2,16,17
 708 456 708 456 755.5 501.5 c 128,-1,18
 803 547 803 547 879.5 573 c 128,-1,19
 956 599 956 599 1052 608.5 c 128,-1,20
 1148 618 1148 618 1246 618 c 0,21,22
 1317 618 1317 618 1377.5 607.5 c 128,-1,23
 1438 597 1438 597 1484 584 c 0,24,25
 1537 569 1537 569 1582 550 c 1,26,-1
 1582 644 l 2,27,28
 1582 672 1582 672 1567 691.5 c 128,-1,29
 1552 711 1552 711 1526.5 725 c 128,-1,30
 1501 739 1501 739 1467.5 747.5 c 128,-1,31
 1434 756 1434 756 1398.5 760.5 c 128,-1,32
 1363 765 1363 765 1327 766.5 c 128,-1,33
 1291 768 1291 768 1260 768 c 0,34,35
 1212 768 1212 768 1155.5 763.5 c 128,-1,36
 1099 759 1099 759 1050 743.5 c 128,-1,37
 1001 728 1001 728 968.5 698.5 c 128,-1,38
 936 669 936 669 936 620 c 1,39,-1
 708 680 l 1,40,41
 708 737 708 737 734 780 c 128,-1,42
 760 823 760 823 803 853 c 128,-1,43
 846 883 846 883 902.5 902.5 c 128,-1,44
 959 922 959 922 1020 933 c 128,-1,45
 1081 944 1081 944 1142.5 948 c 128,-1,46
 1204 952 1204 952 1258 952 c 0,47,48
 1297 952 1297 952 1353 948 c 128,-1,49
 1409 944 1409 944 1469.5 933.5 c 128,-1,50
 1530 923 1530 923 1590 905.5 c 128,-1,51
 1650 888 1650 888 1697.5 860 c 128,-1,52
 1745 832 1745 832 1774.5 792.5 c 128,-1,53
 1804 753 1804 753 1804 700 c 2,54,-1
 1804 222 l 1,55,56
 1861 224 1861 224 1919 226.5 c 128,-1,57
 1977 229 1977 229 2034 234 c 1,58,-1
 2034 728 l 2,59,60
 2034 796 2034 796 2003.5 851.5 c 128,-1,61
 1973 907 1973 907 1919 949.5 c 128,-1,62
 1865 992 1865 992 1791 1023 c 128,-1,63
 1717 1054 1717 1054 1631 1073.5 c 128,-1,64
 1545 1093 1545 1093 1450.5 1102.5 c 128,-1,65
 1356 1112 1356 1112 1260 1112 c 0,66,67
 1174 1112 1174 1112 1087.5 1103 c 128,-1,68
 1001 1094 1001 1094 921 1075.5 c 128,-1,69
 841 1057 841 1057 770 1028.5 c 128,-1,70
 699 1000 699 1000 643.5 960.5 c 128,-1,71
 588 921 588 921 551 870 c 128,-1,72
 514 819 514 819 502 756 c 1,73,-1
 284 814 l 1,74,75
 292 901 292 901 335.5 971.5 c 128,-1,76
 379 1042 379 1042 449.5 1096.5 c 128,-1,77
 520 1151 520 1151 613 1190.5 c 128,-1,78
 706 1230 706 1230 812 1255.5 c 128,-1,79
 918 1281 918 1281 1032 1293.5 c 128,-1,80
 1146 1306 1146 1306 1260 1306 c 0,0,1
1582 368 m 1,81,82
 1564 383 1564 383 1536 397.5 c 128,-1,83
 1508 412 1508 412 1467.5 423 c 128,-1,84
 1427 434 1427 434 1374 441 c 128,-1,85
 1321 448 1321 448 1254 448 c 0,86,87
 1189 448 1189 448 1130 445.5 c 128,-1,88
 1071 443 1071 443 1026.5 431 c 128,-1,89
 982 419 982 419 956 393.5 c 128,-1,90
 930 368 930 368 930 322 c 2,91,-1
 930 246 l 1,92,93
 933 246 933 246 958.5 242 c 128,-1,94
 984 238 984 238 1026 233.5 c 128,-1,95
 1068 229 1068 229 1123 225.5 c 128,-1,96
 1178 222 1178 222 1240 222 c 2,97,-1
 1582 222 l 1,98,-1
 1582 368 l 1,81,82
EndSplineSet
EndChar

StartChar: germandbls
Encoding: 223 223 115
Width: 1724
Flags: W
HStem: 0 194<641.194 1318.66> 486 154<552 1000.5 1330 1422> 1112 208<404.533 1052.67>
VStem: 158 244<0 1086.16> 1198 228<782.062 1003.44> 1422 230<273.609 486>
DStem2: 394.5 1295.5 402 1080 0.990624 0.136617<-22.0113 329.015> 631.5 242 649 36 0.970338 -0.241752<-36.333 369.143>
LayerCount: 2
Fore
SplineSet
726 1320 m 0,0,1
 812 1320 812 1320 897 1312 c 128,-1,2
 982 1304 982 1304 1060 1285.5 c 128,-1,3
 1138 1267 1138 1267 1204.5 1236 c 128,-1,4
 1271 1205 1271 1205 1320 1158.5 c 128,-1,5
 1369 1112 1369 1112 1397 1049 c 128,-1,6
 1425 986 1425 986 1426 904 c 1,7,-1
 1426 894 l 2,8,9
 1426 813 1426 813 1401.5 749 c 128,-1,10
 1377 685 1377 685 1330 640 c 1,11,-1
 1652 640 l 1,12,-1
 1652 304 l 2,13,14
 1652 245 1652 245 1626 199.5 c 128,-1,15
 1600 154 1600 154 1554 120.5 c 128,-1,16
 1508 87 1508 87 1446 63.5 c 128,-1,17
 1384 40 1384 40 1312 26 c 128,-1,18
 1240 12 1240 12 1160.5 6 c 128,-1,19
 1081 0 1081 0 1002 0 c 0,20,21
 931 0 931 0 869.5 3 c 128,-1,22
 808 6 808 6 753.5 14 c 128,-1,23
 699 22 699 22 649 36 c 128,-1,24
 599 50 599 50 550 72 c 1,25,-1
 550 284 l 1,26,27
 581 259 581 259 631.5 242 c 128,-1,28
 682 225 682 225 742.5 214.5 c 128,-1,29
 803 204 803 204 870 199 c 128,-1,30
 937 194 937 194 1002 194 c 0,31,32
 1082 194 1082 194 1158 201.5 c 128,-1,33
 1234 209 1234 209 1292.5 228.5 c 128,-1,34
 1351 248 1351 248 1386.5 281.5 c 128,-1,35
 1422 315 1422 315 1422 368 c 2,36,-1
 1422 486 l 1,37,-1
 552 486 l 1,38,-1
 552 650 l 1,39,40
 590 645 590 645 622 642.5 c 128,-1,41
 654 640 654 640 690 640 c 0,42,43
 702 640 702 640 716.5 640 c 128,-1,44
 731 640 731 640 746 642 c 1,45,46
 851 646 851 646 934.5 665.5 c 128,-1,47
 1018 685 1018 685 1076.5 718.5 c 128,-1,48
 1135 752 1135 752 1166.5 798.5 c 128,-1,49
 1198 845 1198 845 1198 902 c 0,50,51
 1198 955 1198 955 1163 994.5 c 128,-1,52
 1128 1034 1128 1034 1069.5 1060 c 128,-1,53
 1011 1086 1011 1086 934 1099 c 128,-1,54
 857 1112 857 1112 774 1112 c 2,55,-1
 746 1112 l 1,56,57
 657 1110 657 1110 570 1101 c 128,-1,58
 483 1092 483 1092 402 1080 c 1,59,-1
 402 0 l 1,60,-1
 158 0 l 1,61,-1
 158 1246 l 1,62,63
 198 1259 198 1259 259 1272 c 128,-1,64
 320 1285 320 1285 394.5 1295.5 c 128,-1,65
 469 1306 469 1306 553.5 1313 c 128,-1,66
 638 1320 638 1320 726 1320 c 0,0,1
EndSplineSet
EndChar

StartChar: asciitilde
Encoding: 126 126 116
Width: 1398
Flags: W
HStem: 450 242<723.407 1051.11> 550 240<378.956 699.352>
DStem2: 709.5 741 641.5 534.5 0.924913 -0.380179<-58.9543 169.505>
LayerCount: 2
Fore
SplineSet
538 790 m 0,0,1
 585 790 585 790 627 774.5 c 128,-1,2
 669 759 669 759 709.5 741 c 128,-1,3
 750 723 750 723 790 707.5 c 128,-1,4
 830 692 830 692 874 692 c 0,5,6
 920 692 920 692 960 702.5 c 128,-1,7
 1000 713 1000 713 1030 727 c 1,8,9
 1065 742 1065 742 1094 762 c 1,10,-1
 1094 512 l 1,11,12
 1067 494 1067 494 1034 481 c 0,13,14
 1005 469 1005 469 966.5 459.5 c 128,-1,15
 928 450 928 450 880 450 c 0,16,17
 830 450 830 450 789.5 465.5 c 128,-1,18
 749 481 749 481 713 500 c 128,-1,19
 677 519 677 519 641.5 534.5 c 128,-1,20
 606 550 606 550 566 550 c 0,21,22
 519 550 519 550 472.5 537 c 128,-1,23
 426 524 426 524 388 509 c 0,24,25
 344 491 344 491 304 468 c 1,26,-1
 304 716 l 1,27,28
 333 736 333 736 370 753 c 0,29,30
 401 767 401 767 444 778.5 c 128,-1,31
 487 790 487 790 538 790 c 0,0,1
EndSplineSet
EndChar

StartChar: cedilla
Encoding: 184 184 117
Width: 1582
Flags: W
HStem: -378 192<498 732.163>
VStem: 498 440<-449.812 -378>
LayerCount: 2
Fore
SplineSet
796 36 m 1,0,-1
 938 -144 l 1,1,2
 938 -188 938 -188 913.5 -230 c 128,-1,3
 889 -272 889 -272 836 -305 c 128,-1,4
 783 -338 783 -338 699.5 -358 c 128,-1,5
 616 -378 616 -378 498 -378 c 1,6,-1
 498 -186 l 1,7,8
 557 -186 557 -186 600 -181.5 c 128,-1,9
 643 -177 643 -177 672.5 -169.5 c 128,-1,10
 702 -162 702 -162 720 -151 c 128,-1,11
 738 -140 738 -140 748 -126 c 1,12,-1
 656 38 l 1,13,-1
 796 36 l 1,0,-1
EndSplineSet
EndChar

StartChar: ogonek
Encoding: 731 731 118
Width: 1582
Flags: W
HStem: -378 192<685.469 920>
VStem: 498 156<-150.278 35.407>
LayerCount: 2
Fore
SplineSet
666 38 m 1,0,1
 661 9 661 9 657.5 -19.5 c 128,-1,2
 654 -48 654 -48 654 -74 c 0,3,4
 654 -97 654 -97 664 -117.5 c 128,-1,5
 674 -138 674 -138 702.5 -153 c 128,-1,6
 731 -168 731 -168 783 -177 c 128,-1,7
 835 -186 835 -186 920 -186 c 1,8,-1
 920 -378 l 1,9,10
 802 -378 802 -378 721.5 -360.5 c 128,-1,11
 641 -343 641 -343 591.5 -310.5 c 128,-1,12
 542 -278 542 -278 520 -231.5 c 128,-1,13
 498 -185 498 -185 498 -126 c 0,14,15
 498 -88 498 -88 505 -48 c 128,-1,16
 512 -8 512 -8 526 36 c 1,17,-1
 666 38 l 1,0,1
EndSplineSet
EndChar

StartChar: j
Encoding: 106 106 119
Width: 674
Flags: W
HStem: -380 21G<230.571 274.5> 1120 20G<220 474> 1294 242<234.351 462.618>
VStem: 190 318<1315.66 1510.73> 220 254<-152.837 1140>
LayerCount: 2
Fore
SplineSet
474 -68 m 2,0,1
 474 -113 474 -113 464 -150.5 c 128,-1,2
 454 -188 454 -188 437.5 -218.5 c 128,-1,3
 421 -249 421 -249 400.5 -273 c 128,-1,4
 380 -297 380 -297 358 -315 c 0,5,6
 307 -357 307 -357 242 -380 c 1,7,-1
 130 -184 l 1,8,9
 153 -174 153 -174 171 -157 c 0,10,11
 187 -143 187 -143 201.5 -120.5 c 128,-1,12
 216 -98 216 -98 220 -66 c 1,13,-1
 220 1140 l 1,14,-1
 474 1140 l 1,15,-1
 474 -68 l 2,0,1
348 1536 m 256,16,17
 420 1536 420 1536 464 1511.5 c 128,-1,18
 508 1487 508 1487 508 1434 c 2,19,-1
 508 1384 l 2,20,21
 508 1336 508 1336 464 1315 c 128,-1,22
 420 1294 420 1294 348 1294 c 256,23,24
 276 1294 276 1294 233 1315 c 128,-1,25
 190 1336 190 1336 190 1384 c 2,26,-1
 190 1434 l 2,27,28
 190 1487 190 1487 233 1511.5 c 128,-1,29
 276 1536 276 1536 348 1536 c 256,16,17
EndSplineSet
EndChar

StartChar: l
Encoding: 108 108 120
Width: 630
Flags: W
HStem: 0 21G<208 436> 1482 20G<208 436>
VStem: 208 228<0 1502>
LayerCount: 2
Fore
SplineSet
436 0 m 1,0,-1
 208 0 l 1,1,-1
 208 1502 l 1,2,-1
 436 1502 l 1,3,-1
 436 0 l 1,0,-1
EndSplineSet
EndChar

StartChar: Eth
Encoding: 208 208 121
Width: 1716
Flags: W
HStem: -4 230<474.288 1168.43> 638 204<50 224 460 840> 1294 230<474.599 1168.43>
VStem: 224 236<261.353 638 842 1258.06> 1344 264<346.931 1173.07>
DStem2: 350 1476 591 1276.5 0.990669 0.136292<77.975 507.138> 591 243.5 508 19.5 0.993683 -0.112221<-133.198 290.417>
LayerCount: 2
Fore
SplineSet
858 1524 m 0,0,1
 961 1524 961 1524 1056.5 1512 c 128,-1,2
 1152 1500 1152 1500 1235.5 1477 c 128,-1,3
 1319 1454 1319 1454 1387.5 1422 c 128,-1,4
 1456 1390 1456 1390 1505 1349 c 128,-1,5
 1554 1308 1554 1308 1581 1260 c 128,-1,6
 1608 1212 1608 1212 1608 1158 c 2,7,-1
 1608 362 l 2,8,9
 1608 308 1608 308 1581 260 c 128,-1,10
 1554 212 1554 212 1505 171 c 128,-1,11
 1456 130 1456 130 1387.5 98 c 128,-1,12
 1319 66 1319 66 1235.5 43 c 128,-1,13
 1152 20 1152 20 1056.5 8 c 128,-1,14
 961 -4 961 -4 858 -4 c 0,15,16
 772 -4 772 -4 682 2.5 c 128,-1,17
 592 9 592 9 508 19.5 c 128,-1,18
 424 30 424 30 350 44 c 128,-1,19
 276 58 276 58 224 74 c 1,20,-1
 224 638 l 1,21,-1
 50 638 l 1,22,-1
 50 842 l 1,23,-1
 224 842 l 1,24,-1
 224 1446 l 1,25,26
 276 1462 276 1462 350 1476 c 128,-1,27
 424 1490 424 1490 508 1500.5 c 128,-1,28
 592 1511 592 1511 682 1517.5 c 128,-1,29
 772 1524 772 1524 858 1524 c 0,0,1
864 1294 m 2,30,31
 773 1294 773 1294 706 1289 c 128,-1,32
 639 1284 639 1284 591 1276.5 c 128,-1,33
 543 1269 543 1269 511 1260 c 128,-1,34
 479 1251 479 1251 460 1244 c 1,35,-1
 460 842 l 1,36,-1
 840 842 l 1,37,-1
 840 638 l 1,38,-1
 460 638 l 1,39,-1
 460 276 l 1,40,41
 479 268 479 268 511 259.5 c 128,-1,42
 543 251 543 251 591 243.5 c 128,-1,43
 639 236 639 236 706 231 c 128,-1,44
 773 226 773 226 864 226 c 2,45,-1
 872 226 l 2,46,47
 981 226 981 226 1068.5 243.5 c 128,-1,48
 1156 261 1156 261 1217.5 291 c 128,-1,49
 1279 321 1279 321 1311.5 359.5 c 128,-1,50
 1344 398 1344 398 1344 440 c 2,51,-1
 1344 1080 l 2,52,53
 1344 1122 1344 1122 1311.5 1160.5 c 128,-1,54
 1279 1199 1279 1199 1217.5 1229 c 128,-1,55
 1156 1259 1156 1259 1068.5 1276.5 c 128,-1,56
 981 1294 981 1294 872 1294 c 2,57,-1
 864 1294 l 2,30,31
EndSplineSet
EndChar

StartChar: eth
Encoding: 240 240 122
Width: 1772
Flags: W
HStem: -20 202<500.104 1094.24> 658 196<447.194 1101.9> 986 174<866 1266 1492 1642> 1348 174<1078 1226.54>
VStem: 106 254<277.744 590.224> 1234 258<278.066 555.191> 1266 226<736 986 1160 1308.47>
LayerCount: 2
Fore
SplineSet
798 854 m 0,0,1
 957 854 957 854 1071 821 c 128,-1,2
 1185 788 1185 788 1266 736 c 1,3,-1
 1266 986 l 1,4,-1
 866 986 l 1,5,-1
 866 1160 l 1,6,-1
 1266 1160 l 1,7,-1
 1266 1218 l 2,8,9
 1266 1250 1266 1250 1251.5 1274.5 c 128,-1,10
 1237 1299 1237 1299 1211.5 1315.5 c 128,-1,11
 1186 1332 1186 1332 1152 1340 c 128,-1,12
 1118 1348 1118 1348 1078 1348 c 1,13,-1
 1078 1522 l 1,14,15
 1184 1522 1184 1522 1262 1497 c 128,-1,16
 1340 1472 1340 1472 1391 1427.5 c 128,-1,17
 1442 1383 1442 1383 1467 1322 c 128,-1,18
 1492 1261 1492 1261 1492 1190 c 2,19,-1
 1492 1160 l 1,20,-1
 1642 1160 l 1,21,-1
 1642 986 l 1,22,-1
 1492 986 l 1,23,-1
 1492 298 l 2,24,25
 1492 244 1492 244 1464 199 c 128,-1,26
 1436 154 1436 154 1386.5 118.5 c 128,-1,27
 1337 83 1337 83 1270 57 c 128,-1,28
 1203 31 1203 31 1126 14 c 128,-1,29
 1049 -3 1049 -3 965 -11.5 c 128,-1,30
 881 -20 881 -20 798 -20 c 256,31,32
 715 -20 715 -20 631.5 -11.5 c 128,-1,33
 548 -3 548 -3 471 14 c 128,-1,34
 394 31 394 31 327.5 57 c 128,-1,35
 261 83 261 83 211.5 118.5 c 128,-1,36
 162 154 162 154 134 198.5 c 128,-1,37
 106 243 106 243 106 298 c 2,38,-1
 106 550 l 2,39,40
 106 611 106 611 134 657.5 c 128,-1,41
 162 704 162 704 211.5 738 c 128,-1,42
 261 772 261 772 327.5 794.5 c 128,-1,43
 394 817 394 817 471 830 c 128,-1,44
 548 843 548 843 631.5 848.5 c 128,-1,45
 715 854 715 854 798 854 c 0,0,1
360 362 m 2,46,47
 360 316 360 316 398.5 282.5 c 128,-1,48
 437 249 437 249 499.5 226.5 c 128,-1,49
 562 204 562 204 640 193 c 128,-1,50
 718 182 718 182 798 182 c 0,51,52
 882 182 882 182 960.5 194 c 128,-1,53
 1039 206 1039 206 1100 228.5 c 128,-1,54
 1161 251 1161 251 1197.5 284.5 c 128,-1,55
 1234 318 1234 318 1234 362 c 2,56,-1
 1234 436 l 2,57,58
 1234 503 1234 503 1197.5 546 c 128,-1,59
 1161 589 1161 589 1100 614 c 128,-1,60
 1039 639 1039 639 960.5 648.5 c 128,-1,61
 882 658 882 658 798 658 c 0,62,63
 718 658 718 658 640 652.5 c 128,-1,64
 562 647 562 647 499.5 631 c 128,-1,65
 437 615 437 615 398.5 586.5 c 128,-1,66
 360 558 360 558 360 512 c 2,67,-1
 360 362 l 2,46,47
EndSplineSet
EndChar

StartChar: section
Encoding: 167 167 123
Width: 1584
Flags: W
HStem: 0 194<472.155 1108.66> 426 194<436.613 1102.12> 882 192<500.09 1131.48> 1154 21G<1212 1284.5> 1330 192<478.845 1106.52>
VStem: 132 240<273.609 307.823 676.461 820.563 978 1248.25> 1212 240<273.609 512 678.359 817.875 1214.18 1247.39>
LayerCount: 2
Fore
SplineSet
792 1522 m 0,0,1
 912 1522 912 1522 1025 1507.5 c 128,-1,2
 1138 1493 1138 1493 1228 1458.5 c 128,-1,3
 1318 1424 1318 1424 1376 1365 c 128,-1,4
 1434 1306 1434 1306 1444 1218 c 1,5,-1
 1212 1154 l 1,6,7
 1212 1206 1212 1206 1176.5 1240.5 c 128,-1,8
 1141 1275 1141 1275 1082.5 1294.5 c 128,-1,9
 1024 1314 1024 1314 948 1322 c 128,-1,10
 872 1330 872 1330 792 1330 c 0,11,12
 715 1330 715 1330 640 1322.5 c 128,-1,13
 565 1315 565 1315 505.5 1295.5 c 128,-1,14
 446 1276 446 1276 409 1242 c 128,-1,15
 372 1208 372 1208 372 1154 c 2,16,-1
 372 978 l 1,17,18
 455 1020 455 1020 561 1047 c 128,-1,19
 667 1074 667 1074 792 1074 c 0,20,21
 943 1074 943 1074 1065.5 1053 c 128,-1,22
 1188 1032 1188 1032 1273.5 990 c 128,-1,23
 1359 948 1359 948 1405.5 885.5 c 128,-1,24
 1452 823 1452 823 1452 740 c 2,25,-1
 1452 304 l 2,26,27
 1452 245 1452 245 1425.5 199.5 c 128,-1,28
 1399 154 1399 154 1352 120.5 c 128,-1,29
 1305 87 1305 87 1242 63.5 c 128,-1,30
 1179 40 1179 40 1105.5 26 c 128,-1,31
 1032 12 1032 12 952 6 c 128,-1,32
 872 0 872 0 792 0 c 256,33,34
 712 0 712 0 634.5 6 c 128,-1,35
 557 12 557 12 487 26 c 128,-1,36
 417 40 417 40 356.5 63.5 c 128,-1,37
 296 87 296 87 250.5 120.5 c 128,-1,38
 205 154 205 154 176 199.5 c 128,-1,39
 147 245 147 245 140 304 c 1,40,-1
 372 368 l 1,41,42
 372 313 372 313 409 279 c 128,-1,43
 446 245 446 245 505.5 226 c 128,-1,44
 565 207 565 207 640 200.5 c 128,-1,45
 715 194 715 194 792 194 c 0,46,47
 872 194 872 194 948 201.5 c 128,-1,48
 1024 209 1024 209 1082.5 228.5 c 128,-1,49
 1141 248 1141 248 1176.5 281.5 c 128,-1,50
 1212 315 1212 315 1212 368 c 2,51,-1
 1212 512 l 1,52,53
 1129 474 1129 474 1024 450 c 128,-1,54
 919 426 919 426 792 426 c 0,55,56
 635 426 635 426 512.5 445 c 128,-1,57
 390 464 390 464 305.5 503 c 128,-1,58
 221 542 221 542 176.5 602 c 128,-1,59
 132 662 132 662 132 744 c 2,60,-1
 132 1218 l 2,61,62
 132 1277 132 1277 158.5 1322.5 c 128,-1,63
 185 1368 185 1368 232 1401.5 c 128,-1,64
 279 1435 279 1435 342 1458.5 c 128,-1,65
 405 1482 405 1482 478.5 1496 c 128,-1,66
 552 1510 552 1510 632 1516 c 128,-1,67
 712 1522 712 1522 792 1522 c 0,0,1
792 882 m 0,68,69
 747 882 747 882 698 880 c 128,-1,70
 649 878 649 878 602.5 872.5 c 128,-1,71
 556 867 556 867 514 857.5 c 128,-1,72
 472 848 472 848 440.5 833.5 c 128,-1,73
 409 819 409 819 390.5 797.5 c 128,-1,74
 372 776 372 776 372 748 c 0,75,76
 372 719 372 719 390.5 698 c 128,-1,77
 409 677 409 677 440.5 663 c 128,-1,78
 472 649 472 649 514 640.5 c 128,-1,79
 556 632 556 632 602.5 627.5 c 128,-1,80
 649 623 649 623 697.5 621.5 c 128,-1,81
 746 620 746 620 792 620 c 0,82,83
 863 620 863 620 937.5 624.5 c 128,-1,84
 1012 629 1012 629 1073 642.5 c 128,-1,85
 1134 656 1134 656 1173 681.5 c 128,-1,86
 1212 707 1212 707 1212 748 c 0,87,88
 1212 790 1212 790 1173 816 c 128,-1,89
 1134 842 1134 842 1073 857 c 128,-1,90
 1012 872 1012 872 937.5 877 c 128,-1,91
 863 882 863 882 792 882 c 0,68,69
EndSplineSet
EndChar

StartChar: z
Encoding: 122 122 124
Width: 1544
Flags: W
HStem: 7 171<463.002 1178.15> 722 372<179.288 376> 962 178<401.752 1152.72>
VStem: 148 228<722 923.094> 1202 230<218.891 412>
DStem2: 343 1115.5 400 924 0.991068 0.133361<17.7308 436.423> 695 575.5 816.5 425 0.783576 0.621297<-219.654 589.743> 907 189.5 1072 10 0.994595 0.103831<-144.059 274.484>
LayerCount: 2
Fore
SplineSet
782 1140 m 0,0,1
 909 1140 909 1140 1019 1132.5 c 128,-1,2
 1129 1125 1129 1125 1213 1117 c 1,3,4
 1310 1106 1310 1106 1392 1094 c 1,5,-1
 1392 922 l 1,6,7
 1353 875 1353 875 1291.5 816.5 c 128,-1,8
 1230 758 1230 758 1154.5 693 c 128,-1,9
 1079 628 1079 628 993 559.5 c 128,-1,10
 907 491 907 491 816.5 425 c 128,-1,11
 726 359 726 359 635.5 297 c 128,-1,12
 545 235 545 235 462 184 c 1,13,14
 494 181 494 181 534.5 179.5 c 128,-1,15
 575 178 575 178 610 178 c 0,16,17
 681 178 681 178 757 181 c 128,-1,18
 833 184 833 184 907 189.5 c 128,-1,19
 981 195 981 195 1051 202.5 c 128,-1,20
 1121 210 1121 210 1180 218 c 1,21,22
 1184 246 1184 246 1188 275 c 128,-1,23
 1192 304 1192 304 1195 329.5 c 128,-1,24
 1198 355 1198 355 1200 376.5 c 128,-1,25
 1202 398 1202 398 1202 412 c 1,26,-1
 1432 412 l 1,27,28
 1432 400 1432 400 1430.5 375 c 128,-1,29
 1429 350 1429 350 1426 317 c 128,-1,30
 1423 284 1423 284 1419.5 246 c 128,-1,31
 1416 208 1416 208 1411.5 171 c 128,-1,32
 1407 134 1407 134 1402 100.5 c 128,-1,33
 1397 67 1397 67 1392 44 c 1,34,35
 1315 32 1315 32 1233.5 23.5 c 128,-1,36
 1152 15 1152 15 1072 10 c 128,-1,37
 992 5 992 5 917 2.5 c 128,-1,38
 842 0 842 0 780 0 c 0,39,40
 654 0 654 0 544 7 c 128,-1,41
 434 14 434 14 350 22 c 0,42,43
 252 32 252 32 170 44 c 1,44,-1
 170 238 l 1,45,46
 298 312 298 312 432 398 c 128,-1,47
 566 484 566 484 695 575.5 c 128,-1,48
 824 667 824 667 942 762 c 128,-1,49
 1060 857 1060 857 1156 950 c 1,50,51
 1051 962 1051 962 932 962 c 0,52,53
 864 962 864 962 793.5 959 c 128,-1,54
 723 956 723 956 654 951 c 128,-1,55
 585 946 585 946 520.5 939 c 128,-1,56
 456 932 456 932 400 924 c 1,57,58
 395 895 395 895 391 865.5 c 128,-1,59
 387 836 387 836 383.5 809 c 128,-1,60
 380 782 380 782 378 759.5 c 128,-1,61
 376 737 376 737 376 722 c 1,62,-1
 148 722 l 1,63,64
 148 740 148 740 151.5 787 c 128,-1,65
 155 834 155 834 161 890.5 c 128,-1,66
 167 947 167 947 173.5 1003 c 128,-1,67
 180 1059 180 1059 186 1094 c 1,68,69
 263 1107 263 1107 343 1115.5 c 128,-1,70
 423 1124 423 1124 500 1129.5 c 128,-1,71
 577 1135 577 1135 648.5 1137.5 c 128,-1,72
 720 1140 720 1140 782 1140 c 0,0,1
EndSplineSet
EndChar

StartChar: A
Encoding: 65 65 125
Width: 1686
Flags: W
HStem: 0 21G<156 401 1310.5 1556> 678 226<602 1107.85> 1310 252<789.062 923.438>
VStem: 156 238<0 315.713>
DStem2: 328 874 602 896 0.356371 0.934345<118.201 556.176> 1519 316 1268 340 0.0923814 -0.995724<-303.594 290.685>
LayerCount: 2
Fore
SplineSet
854 1562 m 0,0,1
 916 1562 916 1562 980 1549.5 c 128,-1,2
 1044 1537 1044 1537 1094 1516 c 1,3,4
 1182 1362 1182 1362 1254.5 1202.5 c 128,-1,5
 1327 1043 1327 1043 1384 874 c 1,6,7
 1423 869 1423 869 1463 863.5 c 128,-1,8
 1503 858 1503 858 1544 852 c 1,9,-1
 1544 596 l 1,10,-1
 1458 620 l 1,11,12
 1494 471 1494 471 1519 316 c 128,-1,13
 1544 161 1544 161 1556 0 c 1,14,-1
 1318 0 l 1,15,16
 1303 172 1303 172 1268 340 c 128,-1,17
 1233 508 1233 508 1188 662 c 1,18,19
 1091 670 1091 670 1003.5 674 c 128,-1,20
 916 678 916 678 854 678 c 0,21,22
 771 678 771 678 689 675 c 128,-1,23
 607 672 607 672 524 664 c 1,24,25
 479 510 479 510 443.5 342 c 128,-1,26
 408 174 408 174 394 0 c 1,27,-1
 156 0 l 1,28,29
 167 161 167 161 191.5 315 c 128,-1,30
 216 469 216 469 252 618 c 1,31,-1
 174 596 l 1,32,-1
 174 852 l 1,33,-1
 328 874 l 1,34,35
 384 1043 384 1043 456.5 1202.5 c 128,-1,36
 529 1362 529 1362 618 1516 c 1,37,38
 668 1537 668 1537 731 1549.5 c 128,-1,39
 794 1562 794 1562 854 1562 c 0,0,1
854 904 m 0,40,41
 914 904 914 904 978 902.5 c 128,-1,42
 1042 901 1042 901 1110 896 c 1,43,44
 1059 1035 1059 1035 1009.5 1137.5 c 128,-1,45
 960 1240 960 1240 924 1296 c 1,46,47
 906 1304 906 1304 890 1307 c 128,-1,48
 874 1310 874 1310 854 1310 c 0,49,50
 822 1310 822 1310 788 1296 c 1,51,52
 752 1240 752 1240 702 1137.5 c 128,-1,53
 652 1035 652 1035 602 896 c 1,54,55
 668 901 668 901 731.5 902.5 c 128,-1,56
 795 904 795 904 854 904 c 0,40,41
EndSplineSet
EndChar

StartChar: M
Encoding: 77 77 126
Width: 2226
Flags: W
HStem: 1240 230<170 224.631 2000.64 2058>
VStem: 170 418<34.6406 290> 356 232<248 1096> 1640 418<33.9226 290> 1640 232<248 1094>
DStem2: 588 1516 588 1096 0.546582 -0.837405<351.71 961.288> 1118 714 1118 284 0.541701 0.840571<0 602.185>
LayerCount: 2
Fore
SplineSet
1118 714 m 1,0,-1
 1640 1514 l 1,1,2
 1725 1509 1725 1509 1801 1501.5 c 128,-1,3
 1877 1494 1877 1494 1934 1486 c 0,4,5
 2001 1477 2001 1477 2058 1468 c 1,6,-1
 2058 1238 l 1,7,-1
 1872 1280 l 1,8,-1
 1872 248 l 1,9,-1
 2058 290 l 1,10,-1
 2058 42 l 1,11,12
 1952 21 1952 21 1849 11 c 128,-1,13
 1746 1 1746 1 1640 -4 c 1,14,-1
 1640 1094 l 1,15,-1
 1118 284 l 1,16,-1
 588 1096 l 1,17,-1
 588 -4 l 1,18,19
 503 1 503 1 427 8 c 128,-1,20
 351 15 351 15 294 23 c 0,21,22
 227 32 227 32 170 42 c 1,23,-1
 170 290 l 1,24,-1
 356 248 l 1,25,-1
 356 1282 l 1,26,-1
 170 1240 l 1,27,-1
 170 1470 l 1,28,29
 227 1479 227 1479 294 1488 c 0,30,31
 351 1496 351 1496 427 1503.5 c 128,-1,32
 503 1511 503 1511 588 1516 c 1,33,-1
 1118 714 l 1,0,-1
EndSplineSet
EndChar

StartChar: N
Encoding: 78 78 127
Width: 1846
Flags: W
HStem: 1208 254<1497.24 1678>
VStem: 170 418<40.8906 302> 354 234<260 1114> 1258 236<394 1250>
DStem2: 588 1508 588 1114 0.5154 -0.856949<337.638 1299.96>
LayerCount: 2
Fore
SplineSet
1258 394 m 1,0,-1
 1258 1508 l 1,1,2
 1344 1505 1344 1505 1419.5 1497.5 c 128,-1,3
 1495 1490 1495 1490 1553 1482 c 0,4,5
 1620 1472 1620 1472 1678 1462 c 1,6,-1
 1678 1208 l 1,7,8
 1598 1232 1598 1232 1494 1250 c 1,9,-1
 1494 242 l 1,10,11
 1548 250 1548 250 1593.5 261 c 128,-1,12
 1639 272 1639 272 1678 284 c 1,13,-1
 1678 48 l 1,14,15
 1606 36 1606 36 1547 28 c 128,-1,16
 1488 20 1488 20 1437.5 15 c 128,-1,17
 1387 10 1387 10 1343 7 c 128,-1,18
 1299 4 1299 4 1258 2 c 1,19,-1
 588 1114 l 1,20,-1
 588 2 l 1,21,22
 547 4 547 4 503 7 c 128,-1,23
 459 10 459 10 409 15 c 128,-1,24
 359 20 359 20 300 28 c 128,-1,25
 241 36 241 36 170 48 c 1,26,-1
 170 302 l 1,27,28
 244 278 244 278 354 260 c 1,29,-1
 354 1270 l 1,30,31
 301 1261 301 1261 255 1250 c 128,-1,32
 209 1239 209 1239 170 1228 c 1,33,-1
 170 1462 l 1,34,35
 226 1472 226 1472 293 1482 c 0,36,37
 350 1490 350 1490 426 1497.5 c 128,-1,38
 502 1505 502 1505 588 1508 c 1,39,-1
 1258 394 l 1,0,-1
EndSplineSet
EndChar

StartChar: W
Encoding: 87 87 128
Width: 2108
Flags: W
VStem: 64 370<1248.28 1468> 200 234<917.42 1246> 944 220<609.648 986> 1672 370<1249.73 1477.06> 1672 244<913.509 1248>
LayerCount: 2
Fore
SplineSet
444 1512 m 1,0,1
 438 1467 438 1467 436 1420.5 c 128,-1,2
 434 1374 434 1374 434 1324 c 0,3,4
 434 1235 434 1235 443 1142.5 c 128,-1,5
 452 1050 452 1050 470 958 c 128,-1,6
 488 866 488 866 515 777.5 c 128,-1,7
 542 689 542 689 577.5 609 c 128,-1,8
 613 529 613 529 657.5 460 c 128,-1,9
 702 391 702 391 756 338 c 1,10,11
 815 399 815 399 851.5 478.5 c 128,-1,12
 888 558 888 558 908.5 644.5 c 128,-1,13
 929 731 929 731 936 819 c 128,-1,14
 943 907 943 907 944 986 c 1,15,-1
 1164 986 l 1,16,17
 1164 907 1164 907 1171 820 c 128,-1,18
 1178 733 1178 733 1198 647.5 c 128,-1,19
 1218 562 1218 562 1254 482.5 c 128,-1,20
 1290 403 1290 403 1348 340 c 1,21,22
 1432 431 1432 431 1493 546.5 c 128,-1,23
 1554 662 1554 662 1594 789 c 128,-1,24
 1634 916 1634 916 1653 1049 c 128,-1,25
 1672 1182 1672 1182 1672 1310 c 0,26,27
 1672 1417 1672 1417 1660 1516 c 1,28,29
 1748 1512 1748 1512 1817.5 1504 c 128,-1,30
 1887 1496 1887 1496 1938 1488 c 0,31,32
 1996 1478 1996 1478 2042 1468 c 1,33,-1
 2042 1216 l 1,34,35
 2009 1227 2009 1227 1977.5 1233.5 c 128,-1,36
 1946 1240 1946 1240 1916 1248 c 1,37,38
 1916 1033 1916 1033 1874.5 849.5 c 128,-1,39
 1833 666 1833 666 1759 507 c 128,-1,40
 1685 348 1685 348 1582 212 c 128,-1,41
 1479 76 1479 76 1356 -42 c 1,42,43
 1268 43 1268 43 1192.5 148 c 128,-1,44
 1117 253 1117 253 1054 386 c 1,45,46
 989 253 989 253 912.5 147 c 128,-1,47
 836 41 836 41 748 -44 c 1,48,49
 626 74 626 74 525 210 c 128,-1,50
 424 346 424 346 352 505 c 128,-1,51
 280 664 280 664 240 847.5 c 128,-1,52
 200 1031 200 1031 200 1246 c 1,53,54
 164 1238 164 1238 130.5 1231.5 c 128,-1,55
 97 1225 97 1225 64 1214 c 1,56,-1
 64 1468 l 2,57,58
 64 1467 64 1467 90.5 1472 c 128,-1,59
 117 1477 117 1477 166.5 1484.5 c 128,-1,60
 216 1492 216 1492 286 1499.5 c 128,-1,61
 356 1507 356 1507 444 1512 c 1,0,1
EndSplineSet
EndChar

StartChar: a
Encoding: 97 97 129
Width: 1682
Flags: W
HStem: 0 190<410.972 1296.1> 526 172<483.125 1168.59> 946 194<531.728 1188.47>
VStem: 164 242<215.712 448.868 824 852.25> 1300 242<220.552 440.438 600 859.624>
LayerCount: 2
Fore
SplineSet
1300 408 m 1,0,1
 1275 430 1275 430 1238 451 c 128,-1,2
 1201 472 1201 472 1147 488.5 c 128,-1,3
 1093 505 1093 505 1018.5 515.5 c 128,-1,4
 944 526 944 526 844 526 c 0,5,6
 755 526 755 526 675.5 522.5 c 128,-1,7
 596 519 596 519 536 502.5 c 128,-1,8
 476 486 476 486 441 450 c 128,-1,9
 406 414 406 414 406 350 c 2,10,-1
 406 222 l 1,11,12
 494 208 494 208 600 199 c 128,-1,13
 706 190 706 190 836 190 c 0,14,15
 940 190 940 190 1057.5 197.5 c 128,-1,16
 1175 205 1175 205 1300 228 c 1,17,-1
 1300 408 l 1,0,1
850 1140 m 0,18,19
 900 1140 900 1140 971 1135 c 128,-1,20
 1042 1130 1042 1130 1119 1117.5 c 128,-1,21
 1196 1105 1196 1105 1271.5 1083.5 c 128,-1,22
 1347 1062 1347 1062 1407.5 1027.5 c 128,-1,23
 1468 993 1468 993 1505 945 c 128,-1,24
 1542 897 1542 897 1542 832 c 2,25,-1
 1542 58 l 1,26,27
 1458 41 1458 41 1352 29 c 0,28,29
 1261 18 1261 18 1135 9 c 128,-1,30
 1009 0 1009 0 854 0 c 0,31,32
 700 0 700 0 526.5 13 c 128,-1,33
 353 26 353 26 164 58 c 1,34,-1
 164 418 l 2,35,36
 164 476 164 476 191.5 519.5 c 128,-1,37
 219 563 219 563 267 594 c 128,-1,38
 315 625 315 625 380 645 c 128,-1,39
 445 665 445 665 520 677 c 128,-1,40
 595 689 595 689 676 693.5 c 128,-1,41
 757 698 757 698 838 698 c 0,42,43
 961 698 961 698 1047.5 682.5 c 128,-1,44
 1134 667 1134 667 1191 649 c 0,45,46
 1257 627 1257 627 1300 600 c 1,47,-1
 1300 762 l 2,48,49
 1300 803 1300 803 1280 832.5 c 128,-1,50
 1260 862 1260 862 1226 882.5 c 128,-1,51
 1192 903 1192 903 1148 915.5 c 128,-1,52
 1104 928 1104 928 1056 935 c 128,-1,53
 1008 942 1008 942 958.5 944 c 128,-1,54
 909 946 909 946 866 946 c 0,55,56
 821 946 821 946 770 943.5 c 128,-1,57
 719 941 719 941 668.5 934 c 128,-1,58
 618 927 618 927 571.5 914.5 c 128,-1,59
 525 902 525 902 489 881 c 128,-1,60
 453 860 453 860 431.5 830.5 c 128,-1,61
 410 801 410 801 410 760 c 1,62,-1
 162 824 l 1,63,64
 162 891 162 891 195 940.5 c 128,-1,65
 228 990 228 990 282.5 1025 c 128,-1,66
 337 1060 337 1060 408 1082.5 c 128,-1,67
 479 1105 479 1105 555.5 1117.5 c 128,-1,68
 632 1130 632 1130 708 1135 c 128,-1,69
 784 1140 784 1140 850 1140 c 0,18,19
EndSplineSet
EndChar

StartChar: b
Encoding: 98 98 130
Width: 1590
Flags: W
HStem: 0 200<455.539 1099.06> 954 186<528.7 1084.11> 1502 20G<182 444>
VStem: 182 262<234.781 898.618 1068 1522> 1206 262<290.471 854.021>
DStem2: 506 230.5 182 78 0.975139 -0.221592<-282.152 237.592> 580.5 215 466 23.5 0.993683 -0.112221<-138.469 162.877>
LayerCount: 2
Fore
SplineSet
816 1140 m 0,0,1
 970 1140 970 1140 1091.5 1118.5 c 128,-1,2
 1213 1097 1213 1097 1296.5 1052 c 128,-1,3
 1380 1007 1380 1007 1424 938 c 128,-1,4
 1468 869 1468 869 1468 774 c 2,5,-1
 1468 366 l 2,6,7
 1468 271 1468 271 1424 202 c 128,-1,8
 1380 133 1380 133 1296.5 88 c 128,-1,9
 1213 43 1213 43 1091.5 21.5 c 128,-1,10
 970 0 970 0 816 0 c 0,11,12
 730 0 730 0 640 6.5 c 128,-1,13
 550 13 550 13 466 23.5 c 128,-1,14
 382 34 382 34 308 48 c 128,-1,15
 234 62 234 62 182 78 c 1,16,-1
 182 1522 l 1,17,-1
 444 1522 l 1,18,-1
 444 1068 l 1,19,20
 533 1100 533 1100 630.5 1120 c 128,-1,21
 728 1140 728 1140 816 1140 c 0,0,1
744 954 m 0,22,23
 692 954 692 954 649 947 c 128,-1,24
 606 940 606 940 569.5 929 c 128,-1,25
 533 918 533 918 502 904.5 c 128,-1,26
 471 891 471 891 444 878 c 1,27,-1
 444 248 l 1,28,29
 471 239 471 239 506 230.5 c 128,-1,30
 541 222 541 222 580.5 215 c 128,-1,31
 620 208 620 208 661.5 204 c 128,-1,32
 703 200 703 200 744 200 c 0,33,34
 806 200 806 200 865 201.5 c 128,-1,35
 924 203 924 203 975 210 c 128,-1,36
 1026 217 1026 217 1068.5 231 c 128,-1,37
 1111 245 1111 245 1141.5 270.5 c 128,-1,38
 1172 296 1172 296 1189 333.5 c 128,-1,39
 1206 371 1206 371 1206 426 c 2,40,-1
 1206 720 l 2,41,42
 1206 799 1206 799 1169 845.5 c 128,-1,43
 1132 892 1132 892 1069 916 c 128,-1,44
 1006 940 1006 940 922 947 c 128,-1,45
 838 954 838 954 744 954 c 0,22,23
EndSplineSet
EndChar

StartChar: c
Encoding: 99 99 131
Width: 1592
Flags: W
HStem: -20 202<534.512 1129.24> 962 196<538.999 1123.52>
VStem: 140 256<277.744 863.665>
LayerCount: 2
Fore
SplineSet
832 1158 m 256,0,1
 915 1158 915 1158 999 1150 c 128,-1,2
 1083 1142 1083 1142 1160 1124 c 128,-1,3
 1237 1106 1237 1106 1304 1079 c 128,-1,4
 1371 1052 1371 1052 1420.5 1014 c 128,-1,5
 1470 976 1470 976 1498 926.5 c 128,-1,6
 1526 877 1526 877 1526 816 c 1,7,-1
 1270 778 l 1,8,9
 1270 821 1270 821 1233 855.5 c 128,-1,10
 1196 890 1196 890 1135 913.5 c 128,-1,11
 1074 937 1074 937 995 949.5 c 128,-1,12
 916 962 916 962 832 962 c 0,13,14
 752 962 752 962 674 950.5 c 128,-1,15
 596 939 596 939 534.5 916 c 128,-1,16
 473 893 473 893 434.5 858.5 c 128,-1,17
 396 824 396 824 396 778 c 2,18,-1
 396 362 l 2,19,20
 396 316 396 316 434.5 282.5 c 128,-1,21
 473 249 473 249 534.5 226.5 c 128,-1,22
 596 204 596 204 674 193 c 128,-1,23
 752 182 752 182 832 182 c 0,24,25
 916 182 916 182 995 194 c 128,-1,26
 1074 206 1074 206 1135 228.5 c 128,-1,27
 1196 251 1196 251 1233 284.5 c 128,-1,28
 1270 318 1270 318 1270 362 c 1,29,-1
 1526 298 l 1,30,31
 1526 244 1526 244 1498 199 c 128,-1,32
 1470 154 1470 154 1420.5 118.5 c 128,-1,33
 1371 83 1371 83 1304 57 c 128,-1,34
 1237 31 1237 31 1160 14 c 128,-1,35
 1083 -3 1083 -3 999 -11.5 c 128,-1,36
 915 -20 915 -20 832 -20 c 256,37,38
 749 -20 749 -20 665.5 -11.5 c 128,-1,39
 582 -3 582 -3 505 14 c 128,-1,40
 428 31 428 31 361.5 57 c 128,-1,41
 295 83 295 83 245.5 118.5 c 128,-1,42
 196 154 196 154 168 198.5 c 128,-1,43
 140 243 140 243 140 298 c 2,44,-1
 140 816 l 2,45,46
 140 877 140 877 168 926.5 c 128,-1,47
 196 976 196 976 245.5 1014 c 128,-1,48
 295 1052 295 1052 361.5 1079 c 128,-1,49
 428 1106 428 1106 505 1124 c 128,-1,50
 582 1142 582 1142 665.5 1150 c 128,-1,51
 749 1158 749 1158 832 1158 c 256,0,1
EndSplineSet
EndChar

StartChar: e
Encoding: 101 101 132
Width: 1692
Flags: W
HStem: 0 200<417.779 1402.09> 486 160<414 1312> 944 196<534.946 1204.43>
VStem: 170 244<224.466 486 646 854.445> 1312 248<646 860.303>
DStem2: 414 230 361 28 0.993324 -0.115362<0 445.27> 1146.5 212 1193.5 13 0.989954 0.141387<-278.488 387.29>
LayerCount: 2
Fore
SplineSet
862 1140 m 0,0,1
 913 1140 913 1140 985 1135 c 128,-1,2
 1057 1130 1057 1130 1134.5 1117.5 c 128,-1,3
 1212 1105 1212 1105 1288 1082.5 c 128,-1,4
 1364 1060 1364 1060 1424.5 1025 c 128,-1,5
 1485 990 1485 990 1522.5 940.5 c 128,-1,6
 1560 891 1560 891 1560 824 c 2,7,-1
 1560 486 l 1,8,-1
 414 486 l 1,9,-1
 414 230 l 1,10,11
 535 213 535 213 647 206.5 c 128,-1,12
 759 200 759 200 862 200 c 0,13,14
 1019 200 1019 200 1146.5 212 c 128,-1,15
 1274 224 1274 224 1367 239 c 0,16,17
 1474 256 1474 256 1560 278 c 1,18,-1
 1560 56 l 1,19,20
 1370 26 1370 26 1193.5 13 c 128,-1,21
 1017 0 1017 0 862 0 c 0,22,23
 706 0 706 0 579 8.5 c 128,-1,24
 452 17 452 17 361 28 c 0,25,26
 255 40 255 40 170 56 c 1,27,-1
 170 824 l 2,28,29
 170 891 170 891 203 940.5 c 128,-1,30
 236 990 236 990 291 1025 c 128,-1,31
 346 1060 346 1060 417.5 1082.5 c 128,-1,32
 489 1105 489 1105 566 1117.5 c 128,-1,33
 643 1130 643 1130 719.5 1135 c 128,-1,34
 796 1140 796 1140 862 1140 c 0,0,1
414 646 m 1,35,-1
 1312 646 l 1,36,-1
 1312 762 l 2,37,38
 1312 803 1312 803 1292 832.5 c 128,-1,39
 1272 862 1272 862 1238.5 882 c 128,-1,40
 1205 902 1205 902 1160.5 914.5 c 128,-1,41
 1116 927 1116 927 1068 933.5 c 128,-1,42
 1020 940 1020 940 971.5 942 c 128,-1,43
 923 944 923 944 880 944 c 0,44,45
 835 944 835 944 783.5 942 c 128,-1,46
 732 940 732 940 680 933 c 128,-1,47
 628 926 628 926 580 913.5 c 128,-1,48
 532 901 532 901 495 880.5 c 128,-1,49
 458 860 458 860 436 830.5 c 128,-1,50
 414 801 414 801 414 760 c 2,51,-1
 414 646 l 1,35,-1
EndSplineSet
EndChar

StartChar: f
Encoding: 102 102 133
Width: 898
Flags: W
HStem: 0 21G<286 546> 986 168<124 286 546 804> 1346 174<584.225 734>
VStem: 286 260<0 986 1154 1306.54>
LayerCount: 2
Fore
SplineSet
734 1346 m 1,0,1
 693 1346 693 1346 659 1338 c 128,-1,2
 625 1330 625 1330 599.5 1313.5 c 128,-1,3
 574 1297 574 1297 560 1272.5 c 128,-1,4
 546 1248 546 1248 546 1216 c 2,5,-1
 546 1154 l 1,6,-1
 804 1154 l 1,7,-1
 804 986 l 1,8,-1
 546 986 l 1,9,-1
 546 0 l 1,10,-1
 286 0 l 1,11,-1
 286 986 l 1,12,-1
 124 986 l 1,13,-1
 124 1154 l 1,14,-1
 286 1154 l 1,15,-1
 286 1188 l 2,16,17
 286 1259 286 1259 316 1320 c 128,-1,18
 346 1381 346 1381 403.5 1425.5 c 128,-1,19
 461 1470 461 1470 544 1495 c 128,-1,20
 627 1520 627 1520 734 1520 c 1,21,-1
 734 1346 l 1,0,1
EndSplineSet
EndChar

StartChar: g
Encoding: 103 103 134
Width: 1566
Flags: W
HStem: -382 174<986 1134.83> 0 200<528.595 1081.38> 954 186<514.094 1146.12>
VStem: 144 262<299.237 862.5> 1174 258<-168.467 76 256.682 914.688>
DStem2: 969 1133.5 952 949.5 0.993317 -0.115416<-78.3345 229.703>
LayerCount: 2
Fore
SplineSet
796 1140 m 0,0,1
 881 1140 881 1140 969 1133.5 c 128,-1,2
 1057 1127 1057 1127 1138.5 1116.5 c 128,-1,3
 1220 1106 1220 1106 1291.5 1092 c 128,-1,4
 1363 1078 1363 1078 1416 1062 c 1,5,-1
 1432 1062 l 1,6,-1
 1432 -50 l 2,7,8
 1432 -121 1432 -121 1402 -182 c 128,-1,9
 1372 -243 1372 -243 1315 -287.5 c 128,-1,10
 1258 -332 1258 -332 1175 -357 c 128,-1,11
 1092 -382 1092 -382 986 -382 c 1,12,-1
 986 -208 l 1,13,14
 1026 -208 1026 -208 1060 -200 c 128,-1,15
 1094 -192 1094 -192 1119.5 -175.5 c 128,-1,16
 1145 -159 1145 -159 1159.5 -134.5 c 128,-1,17
 1174 -110 1174 -110 1174 -78 c 2,18,-1
 1174 76 l 1,19,20
 1083 41 1083 41 985.5 20.5 c 128,-1,21
 888 0 888 0 796 0 c 0,22,23
 642 0 642 0 521 21.5 c 128,-1,24
 400 43 400 43 316 88 c 128,-1,25
 232 133 232 133 188 202 c 128,-1,26
 144 271 144 271 144 366 c 2,27,-1
 144 774 l 2,28,29
 144 869 144 869 188 938 c 128,-1,30
 232 1007 232 1007 316 1052 c 128,-1,31
 400 1097 400 1097 521 1118.5 c 128,-1,32
 642 1140 642 1140 796 1140 c 0,0,1
868 200 m 0,33,34
 923 200 923 200 969 207.5 c 128,-1,35
 1015 215 1015 215 1052.5 227 c 128,-1,36
 1090 239 1090 239 1120.5 252.5 c 128,-1,37
 1151 266 1151 266 1174 278 c 1,38,-1
 1174 900 l 1,39,40
 1147 910 1147 910 1111.5 920 c 128,-1,41
 1076 930 1076 930 1035.5 937.5 c 128,-1,42
 995 945 995 945 952 949.5 c 128,-1,43
 909 954 909 954 868 954 c 0,44,45
 775 954 775 954 691 949 c 128,-1,46
 607 944 607 944 544 922 c 128,-1,47
 481 900 481 900 443.5 854.5 c 128,-1,48
 406 809 406 809 406 728 c 2,49,-1
 406 434 l 2,50,51
 406 381 406 381 423 343 c 128,-1,52
 440 305 440 305 470.5 279 c 128,-1,53
 501 253 501 253 544 237.5 c 128,-1,54
 587 222 587 222 638 213.5 c 128,-1,55
 689 205 689 205 747.5 202.5 c 128,-1,56
 806 200 806 200 868 200 c 0,33,34
EndSplineSet
EndChar

StartChar: i
Encoding: 105 105 135
Width: 670
Flags: W
HStem: 0 21G<208 462> 1120 20G<208 462> 1294 242<222.866 451.649>
VStem: 178 318<1315.66 1510.73> 208 254<0 1140>
LayerCount: 2
Fore
SplineSet
462 0 m 1,0,-1
 208 0 l 1,1,-1
 208 1140 l 1,2,-1
 462 1140 l 1,3,-1
 462 0 l 1,0,-1
336 1536 m 0,4,5
 410 1536 410 1536 453 1511.5 c 128,-1,6
 496 1487 496 1487 496 1434 c 2,7,-1
 496 1384 l 2,8,9
 496 1336 496 1336 453 1315 c 128,-1,10
 410 1294 410 1294 336 1294 c 0,11,12
 265 1294 265 1294 221.5 1315 c 128,-1,13
 178 1336 178 1336 178 1384 c 2,14,-1
 178 1434 l 2,15,16
 178 1487 178 1487 221.5 1511.5 c 128,-1,17
 265 1536 265 1536 336 1536 c 0,4,5
EndSplineSet
EndChar

StartChar: m
Encoding: 109 109 136
Width: 2024
Flags: W
HStem: 0 21G<244 506 930 1172 1590 1852> 954 194<1172 1444>
VStem: 244 262<0 851.998> 930 242<0 954> 1590 262<0 829.595>
LayerCount: 2
Fore
SplineSet
1182 1148 m 0,0,1
 1336 1148 1336 1148 1460 1122.5 c 128,-1,2
 1584 1097 1584 1097 1671 1046 c 128,-1,3
 1758 995 1758 995 1805 919.5 c 128,-1,4
 1852 844 1852 844 1852 744 c 2,5,-1
 1852 0 l 1,6,-1
 1590 0 l 1,7,-1
 1590 684 l 2,8,9
 1590 767 1590 767 1554 819.5 c 128,-1,10
 1518 872 1518 872 1459 902 c 128,-1,11
 1400 932 1400 932 1325 943 c 128,-1,12
 1250 954 1250 954 1172 954 c 1,13,-1
 1172 0 l 1,14,-1
 930 0 l 1,15,-1
 930 954 l 1,16,17
 865 954 865 954 805.5 943.5 c 128,-1,18
 746 933 746 933 693 915 c 128,-1,19
 640 897 640 897 593 874 c 128,-1,20
 546 851 546 851 506 826 c 1,21,-1
 506 0 l 1,22,-1
 244 0 l 1,23,-1
 244 826 l 1,24,25
 240 858 240 858 225.5 880 c 128,-1,26
 211 902 211 902 194 916 c 0,27,28
 175 933 175 933 152 944 c 1,29,-1
 264 1140 l 1,30,31
 301 1127 301 1127 337 1106 c 0,32,33
 368 1088 368 1088 402 1059 c 128,-1,34
 436 1030 436 1030 462 988 c 1,35,36
 543 1037 543 1037 618 1068.5 c 128,-1,37
 693 1100 693 1100 776 1117.5 c 128,-1,38
 859 1135 859 1135 957 1141.5 c 128,-1,39
 1055 1148 1055 1148 1182 1148 c 0,0,1
EndSplineSet
EndChar

StartChar: r
Encoding: 114 114 137
Width: 1148
Flags: W
HStem: 0 21G<218 474> 942 193.5<626.394 820> 1120 20G<223.184 252.5 1018.5 1062>
VStem: 218 256<0 852.947> 814.5 240.5<695.717 942>
DStem2: 803 766 1028 692 0.144591 0.989491<-40.6893 175.033>
LayerCount: 2
Fore
SplineSet
1062 1140 m 1,0,1
 1062 1036 1062 1036 1055 923.5 c 128,-1,2
 1048 811 1048 811 1028 692 c 1,3,-1
 786 692 l 1,4,5
 795 726 795 726 803 766 c 0,6,7
 809 800 809 800 814.5 845.5 c 128,-1,8
 820 891 820 891 820 942 c 1,9,10
 732 940 732 940 674.5 925.5 c 128,-1,11
 617 911 617 911 579 891.5 c 128,-1,12
 541 872 541 872 517 852 c 128,-1,13
 493 832 493 832 474 820 c 1,14,-1
 474 0 l 1,15,-1
 218 0 l 1,16,-1
 218 826 l 1,17,18
 214 858 214 858 199.5 880 c 128,-1,19
 185 902 185 902 169 916 c 0,20,21
 151 933 151 933 128 944 c 1,22,-1
 234 1140 l 1,23,24
 271 1127 271 1127 307 1105 c 0,25,26
 338 1086 338 1086 372.5 1056.5 c 128,-1,27
 407 1027 407 1027 434 984 c 1,28,29
 485 1019 485 1019 528 1043.5 c 128,-1,30
 571 1068 571 1068 611.5 1085 c 128,-1,31
 652 1102 652 1102 695.5 1111.5 c 128,-1,32
 739 1121 739 1121 791.5 1127 c 128,-1,33
 844 1133 844 1133 909.5 1135.5 c 128,-1,34
 975 1138 975 1138 1062 1140 c 1,0,1
EndSplineSet
EndChar

StartChar: t
Encoding: 116 116 138
Width: 816
Flags: W
HStem: 0 21G<264 502> 986 168<76 264 502 756> 1482 20G<264 502>
VStem: 264 238<0 986 1154 1502>
LayerCount: 2
Fore
SplineSet
502 1154 m 1,0,-1
 756 1154 l 1,1,-1
 756 986 l 1,2,-1
 502 986 l 1,3,-1
 502 0 l 1,4,-1
 264 0 l 1,5,-1
 264 986 l 1,6,-1
 76 986 l 1,7,-1
 76 1154 l 1,8,-1
 264 1154 l 1,9,-1
 264 1502 l 1,10,-1
 502 1502 l 1,11,-1
 502 1154 l 1,0,-1
EndSplineSet
EndChar

StartChar: v
Encoding: 118 118 139
Width: 1548
Flags: W
HStem: 1124 20G<399.5 441 1093 1134.5>
VStem: 68 368<904.711 1103.72> 208 228<576.695 902> 1100 366<904.711 1103.72> 1100 226<579.933 902>
LayerCount: 2
Fore
SplineSet
444 1144 m 1,0,1
 438 1097 438 1097 437 1046.5 c 128,-1,2
 436 996 436 996 436 946 c 0,3,4
 436 812 436 812 452.5 702 c 128,-1,5
 469 592 469 592 508 502 c 128,-1,6
 547 412 547 412 610.5 339.5 c 128,-1,7
 674 267 674 267 768 208 c 1,8,9
 861 267 861 267 924.5 339.5 c 128,-1,10
 988 412 988 412 1027 502 c 128,-1,11
 1066 592 1066 592 1083 702 c 128,-1,12
 1100 812 1100 812 1100 946 c 0,13,14
 1100 996 1100 996 1098 1046.5 c 128,-1,15
 1096 1097 1096 1097 1090 1144 c 1,16,17
 1179 1139 1179 1139 1248 1131 c 128,-1,18
 1317 1123 1317 1123 1366 1115 c 0,19,20
 1422 1105 1422 1105 1466 1096 c 1,21,-1
 1466 864 l 1,22,23
 1436 877 1436 877 1410.5 884.5 c 128,-1,24
 1385 892 1385 892 1366 896 c 0,25,26
 1344 900 1344 900 1326 902 c 1,27,28
 1322 773 1322 773 1308.5 666.5 c 128,-1,29
 1295 560 1295 560 1267.5 472 c 128,-1,30
 1240 384 1240 384 1197 311.5 c 128,-1,31
 1154 239 1154 239 1093.5 176 c 128,-1,32
 1033 113 1033 113 952 57.5 c 128,-1,33
 871 2 871 2 768 -52 c 1,34,35
 665 2 665 2 584 57.5 c 128,-1,36
 503 113 503 113 442 176 c 128,-1,37
 381 239 381 239 338 311.5 c 128,-1,38
 295 384 295 384 267.5 472 c 128,-1,39
 240 560 240 560 225.5 666 c 128,-1,40
 211 772 211 772 208 902 c 1,41,42
 190 900 190 900 168 896 c 0,43,44
 149 892 149 892 123.5 884.5 c 128,-1,45
 98 877 98 877 68 864 c 1,46,-1
 68 1096 l 1,47,48
 110 1105 110 1105 167 1115 c 0,49,50
 215 1123 215 1123 285 1131 c 128,-1,51
 355 1139 355 1139 444 1144 c 1,0,1
EndSplineSet
EndChar

StartChar: w
Encoding: 119 119 140
Width: 1908
Flags: W
HStem: 1124 20G<403.5 443.5 1443.5 1483.5>
VStem: 68 380<903.885 1105.16> 202 224<493.102 901.539> 844 200<356.999 830> 1438 380<903.885 1105.45> 1462 226<496.17 901.539>
LayerCount: 2
Fore
SplineSet
448 1144 m 1,0,1
 439 1073 439 1073 432.5 1002 c 128,-1,2
 426 931 426 931 426 854 c 0,3,4
 426 762 426 762 434 672 c 128,-1,5
 442 582 442 582 468.5 499.5 c 128,-1,6
 495 417 495 417 545.5 343 c 128,-1,7
 596 269 596 269 682 208 c 1,8,9
 731 239 731 239 760.5 283.5 c 128,-1,10
 790 328 790 328 807 379 c 128,-1,11
 824 430 824 430 831.5 483 c 128,-1,12
 839 536 839 536 844 586 c 1,13,-1
 844 830 l 1,14,-1
 1044 830 l 1,15,-1
 1044 586 l 1,16,17
 1048 536 1048 536 1056 483 c 128,-1,18
 1064 430 1064 430 1081 379 c 128,-1,19
 1098 328 1098 328 1127.5 283.5 c 128,-1,20
 1157 239 1157 239 1204 208 c 1,21,22
 1290 269 1290 269 1341 343 c 128,-1,23
 1392 417 1392 417 1419 499.5 c 128,-1,24
 1446 582 1446 582 1454 672 c 128,-1,25
 1462 762 1462 762 1462 854 c 0,26,27
 1462 931 1462 931 1455.5 1002 c 128,-1,28
 1449 1073 1449 1073 1438 1144 c 1,29,30
 1529 1139 1529 1139 1599 1131 c 128,-1,31
 1669 1123 1669 1123 1718 1115 c 0,32,33
 1775 1106 1775 1106 1818 1096 c 1,34,-1
 1818 864 l 1,35,36
 1792 878 1792 878 1768.5 885.5 c 128,-1,37
 1745 893 1745 893 1727 897 c 0,38,39
 1706 901 1706 901 1688 902 c 1,40,41
 1688 757 1688 757 1675 642.5 c 128,-1,42
 1662 528 1662 528 1636 437 c 128,-1,43
 1610 346 1610 346 1570.5 275 c 128,-1,44
 1531 204 1531 204 1477 146.5 c 128,-1,45
 1423 89 1423 89 1355 41 c 128,-1,46
 1287 -7 1287 -7 1204 -52 c 1,47,48
 1109 2 1109 2 1047 69 c 128,-1,49
 985 136 985 136 944 222 c 1,50,51
 905 136 905 136 842.5 69 c 128,-1,52
 780 2 780 2 682 -52 c 1,53,54
 600 -7 600 -7 532.5 41 c 128,-1,55
 465 89 465 89 411.5 146.5 c 128,-1,56
 358 204 358 204 319 275 c 128,-1,57
 280 346 280 346 254 437 c 128,-1,58
 228 528 228 528 215 642.5 c 128,-1,59
 202 757 202 757 202 902 c 1,60,61
 183 901 183 901 162 897 c 0,62,63
 143 893 143 893 119 885.5 c 128,-1,64
 95 878 95 878 68 864 c 1,65,-1
 68 1096 l 1,66,67
 111 1106 111 1106 169 1115 c 0,68,69
 218 1123 218 1123 288.5 1131 c 128,-1,70
 359 1139 359 1139 448 1144 c 1,0,1
EndSplineSet
EndChar

StartChar: asterisk
Encoding: 42 42 141
Width: 1466
Flags: W
VStem: 630 208<770 1125.56>
LayerCount: 2
Fore
SplineSet
862 1128 m 1,0,1
 856 1094 856 1094 851.5 1050.5 c 128,-1,2
 847 1007 847 1007 844 959 c 128,-1,3
 841 911 841 911 839.5 862 c 128,-1,4
 838 813 838 813 838 770 c 1,5,6
 848 770 848 770 872 777.5 c 128,-1,7
 896 785 896 785 927 797.5 c 128,-1,8
 958 810 958 810 993 825 c 128,-1,9
 1028 840 1028 840 1060 854.5 c 128,-1,10
 1092 869 1092 869 1118.5 881.5 c 128,-1,11
 1145 894 1145 894 1160 902 c 1,12,-1
 1238 658 l 1,13,14
 1206 653 1206 653 1164.5 646 c 128,-1,15
 1123 639 1123 639 1077 630 c 128,-1,16
 1031 621 1031 621 984.5 610 c 128,-1,17
 938 599 938 599 898 586 c 1,18,19
 960 501 960 501 1026.5 421.5 c 128,-1,20
 1093 342 1093 342 1152 286 c 1,21,-1
 942 134 l 1,22,23
 927 165 927 165 904.5 205.5 c 128,-1,24
 882 246 882 246 854.5 291 c 128,-1,25
 827 336 827 336 796 382 c 128,-1,26
 765 428 765 428 734 472 c 1,27,28
 665 372 665 372 614.5 287.5 c 128,-1,29
 564 203 564 203 528 134 c 1,30,-1
 320 286 l 1,31,32
 345 311 345 311 376.5 345.5 c 128,-1,33
 408 380 408 380 441 420.5 c 128,-1,34
 474 461 474 461 507.5 504 c 128,-1,35
 541 547 541 547 570 588 c 1,36,37
 487 614 487 614 401.5 627.5 c 128,-1,38
 316 641 316 641 228 656 c 1,39,-1
 310 902 l 1,40,41
 339 885 339 885 377.5 867.5 c 128,-1,42
 416 850 416 850 458 832.5 c 128,-1,43
 500 815 500 815 544.5 799 c 128,-1,44
 589 783 589 783 630 770 c 1,45,46
 630 860 630 860 624.5 955 c 128,-1,47
 619 1050 619 1050 604 1128 c 1,48,-1
 862 1128 l 1,0,1
EndSplineSet
EndChar

StartChar: numbersign
Encoding: 35 35 142
Width: 1564
Flags: W
HStem: 426 164<688 878> 762 172<332 516.503 1127.47 1298> 808 164<728 920>
DStem2: 444 100 632 80 0.107303 0.994226<0.288376 311.644 511.364 695.945 897.439 1192.89> 844 100 1032 80 0.105645 0.994404<0 327.768 500.219 712.067 884.766 1192.65> 1084 578 1068 414 0.985328 -0.170669<12.2244 193.962> 1126 960 1108 796 0.985139 -0.17176<10.4362 191.642>
LayerCount: 2
Fore
SplineSet
760 1266 m 1,0,-1
 728 972 l 1,1,-1
 816 972 l 2,2,3
 845 972 845 972 874.5 972 c 128,-1,4
 904 972 904 972 936 970 c 1,5,-1
 970 1286 l 1,6,-1
 1158 1266 l 1,7,-1
 1126 960 l 1,8,9
 1173 955 1173 955 1220.5 949 c 128,-1,10
 1268 943 1268 943 1316 934 c 1,11,-1
 1298 762 l 1,12,13
 1296 762 1296 762 1294.5 763 c 128,-1,14
 1293 764 1293 764 1290 764 c 0,15,16
 1263 770 1263 770 1217 778.5 c 128,-1,17
 1171 787 1171 787 1108 796 c 1,18,-1
 1084 578 l 1,19,20
 1131 573 1131 573 1178.5 566 c 128,-1,21
 1226 559 1226 559 1276 550 c 1,22,-1
 1258 380 l 1,23,24
 1235 386 1235 386 1186 395.5 c 128,-1,25
 1137 405 1137 405 1068 414 c 1,26,-1
 1032 80 l 1,27,-1
 844 100 l 1,28,-1
 878 426 l 1,29,-1
 668 426 l 1,30,-1
 632 80 l 1,31,-1
 444 100 l 1,32,-1
 476 410 l 1,33,34
 388 399 388 399 335.5 388 c 128,-1,35
 283 377 283 377 272 374 c 1,36,-1
 292 554 l 1,37,38
 343 563 343 563 394.5 569 c 128,-1,39
 446 575 446 575 496 580 c 1,40,-1
 518 792 l 1,41,42
 470 787 470 787 432.5 780.5 c 128,-1,43
 395 774 395 774 369 769 c 0,44,45
 338 763 338 763 314 756 c 1,46,-1
 332 936 l 1,47,48
 385 945 385 945 435.5 951 c 128,-1,49
 486 957 486 957 536 962 c 1,50,-1
 572 1286 l 1,51,-1
 760 1266 l 1,0,-1
730 808 m 1,52,-1
 710 806 l 1,53,-1
 688 588 l 1,54,55
 708 590 708 590 728.5 590 c 128,-1,56
 749 590 749 590 770 590 c 0,57,58
 800 590 800 590 831 590 c 128,-1,59
 862 590 862 590 894 588 c 1,60,-1
 920 808 l 1,61,-1
 730 808 l 1,52,-1
EndSplineSet
EndChar

StartChar: Oslash
Encoding: 216 216 143
Width: 1842
Flags: W
HStem: -30 222<824.125 1272.39> 1326 222<670.153 1118>
VStem: 236 260<312.667 1206.77> 1448 260<313.676 1206.06>
DStem2: 624 256 822 202 0.421763 0.906706<34.547 1169.46>
LayerCount: 2
Fore
SplineSet
970 1548 m 0,0,1
 1071 1548 1071 1548 1165 1536 c 128,-1,2
 1259 1524 1259 1524 1341 1501.5 c 128,-1,3
 1423 1479 1423 1479 1490.5 1447.5 c 128,-1,4
 1558 1416 1558 1416 1606.5 1376 c 128,-1,5
 1655 1336 1655 1336 1681.5 1288.5 c 128,-1,6
 1708 1241 1708 1241 1708 1188 c 2,7,-1
 1708 330 l 2,8,9
 1708 277 1708 277 1681.5 229.5 c 128,-1,10
 1655 182 1655 182 1606.5 142 c 128,-1,11
 1558 102 1558 102 1490.5 70.5 c 128,-1,12
 1423 39 1423 39 1341 16.5 c 128,-1,13
 1259 -6 1259 -6 1165 -18 c 128,-1,14
 1071 -30 1071 -30 970 -30 c 0,15,16
 820 -30 820 -30 686.5 -3.5 c 128,-1,17
 553 23 553 23 453 70.5 c 128,-1,18
 353 118 353 118 294.5 184 c 128,-1,19
 236 250 236 250 236 330 c 2,20,-1
 236 1188 l 2,21,22
 236 1267 236 1267 294.5 1333.5 c 128,-1,23
 353 1400 353 1400 453 1447.5 c 128,-1,24
 553 1495 553 1495 686.5 1521.5 c 128,-1,25
 820 1548 820 1548 970 1548 c 0,0,1
1448 1112 m 2,26,27
 1448 1154 1448 1154 1414.5 1194 c 128,-1,28
 1381 1234 1381 1234 1316 1264 c 1,29,-1
 822 202 l 1,30,31
 857 196 857 196 894 194 c 128,-1,32
 931 192 931 192 970 192 c 0,33,34
 1082 192 1082 192 1170.5 209.5 c 128,-1,35
 1259 227 1259 227 1320.5 257 c 128,-1,36
 1382 287 1382 287 1415 325.5 c 128,-1,37
 1448 364 1448 364 1448 406 c 2,38,-1
 1448 1112 l 2,26,27
970 1326 m 0,39,40
 863 1326 863 1326 776 1309.5 c 128,-1,41
 689 1293 689 1293 626.5 1264 c 128,-1,42
 564 1235 564 1235 530 1196 c 128,-1,43
 496 1157 496 1157 496 1112 c 2,44,-1
 496 406 l 2,45,46
 496 362 496 362 529 323.5 c 128,-1,47
 562 285 562 285 624 256 c 1,48,-1
 1118 1316 l 1,49,50
 1083 1321 1083 1321 1047 1323.5 c 128,-1,51
 1011 1326 1011 1326 970 1326 c 0,39,40
EndSplineSet
EndChar

StartChar: oslash
Encoding: 248 248 144
Width: 1648
Flags: W
HStem: -20 202<766 1134.24> 962 196<543.421 902.996>
VStem: 146 254<276.507 863.665> 1274 258<278.066 861.901>
DStem2: 560 218 766 184 0.419677 0.907674<55.5926 819.678>
LayerCount: 2
Fore
SplineSet
838 1158 m 256,0,1
 921 1158 921 1158 1005 1150 c 128,-1,2
 1089 1142 1089 1142 1166 1124 c 128,-1,3
 1243 1106 1243 1106 1310 1079 c 128,-1,4
 1377 1052 1377 1052 1426.5 1014 c 128,-1,5
 1476 976 1476 976 1504 926.5 c 128,-1,6
 1532 877 1532 877 1532 816 c 2,7,-1
 1532 298 l 2,8,9
 1532 244 1532 244 1504 199 c 128,-1,10
 1476 154 1476 154 1426.5 118.5 c 128,-1,11
 1377 83 1377 83 1310 57 c 128,-1,12
 1243 31 1243 31 1166 14 c 128,-1,13
 1089 -3 1089 -3 1005 -11.5 c 128,-1,14
 921 -20 921 -20 838 -20 c 256,15,16
 755 -20 755 -20 671.5 -11.5 c 128,-1,17
 588 -3 588 -3 511 14 c 128,-1,18
 434 31 434 31 367.5 57 c 128,-1,19
 301 83 301 83 251.5 118.5 c 128,-1,20
 202 154 202 154 174 198.5 c 128,-1,21
 146 243 146 243 146 298 c 2,22,-1
 146 816 l 2,23,24
 146 877 146 877 174 926.5 c 128,-1,25
 202 976 202 976 251.5 1014 c 128,-1,26
 301 1052 301 1052 367.5 1079 c 128,-1,27
 434 1106 434 1106 511 1124 c 128,-1,28
 588 1142 588 1142 671.5 1150 c 128,-1,29
 755 1158 755 1158 838 1158 c 256,0,1
1274 778 m 2,30,31
 1274 826 1274 826 1229 863 c 128,-1,32
 1184 900 1184 900 1112 924 c 1,33,-1
 766 184 l 1,34,35
 784 182 784 182 802 182 c 128,-1,36
 820 182 820 182 838 182 c 0,37,38
 922 182 922 182 1000.5 194 c 128,-1,39
 1079 206 1079 206 1140 228.5 c 128,-1,40
 1201 251 1201 251 1237.5 284.5 c 128,-1,41
 1274 318 1274 318 1274 362 c 2,42,-1
 1274 778 l 2,30,31
838 962 m 2,43,44
 758 962 758 962 680 950.5 c 128,-1,45
 602 939 602 939 539.5 916 c 128,-1,46
 477 893 477 893 438.5 858.5 c 128,-1,47
 400 824 400 824 400 778 c 2,48,-1
 400 362 l 2,49,50
 400 312 400 312 444.5 276.5 c 128,-1,51
 489 241 489 241 560 218 c 1,52,-1
 904 962 l 1,53,-1
 838 962 l 2,43,44
EndSplineSet
EndChar

StartChar: B
Encoding: 66 66 145
Width: 1668
Flags: W
HStem: -20 228<437.35 1116.68> 664 228<415.942 1120.71> 1312 226<437.35 1088.48>
VStem: 178 236<245.945 648.051 904.695 1274.06> 1220 244<963.848 1209.23> 1298 264<331.388 590.371>
DStem2: 305 1490.5 545 1293 0.990931 0.134374<77.6899 481.549> 545 227 463.5 4 0.993226 -0.116197<-133.298 270.54>
LayerCount: 2
Fore
SplineSet
814 1538 m 0,0,1
 968 1538 968 1538 1088.5 1511 c 128,-1,2
 1209 1484 1209 1484 1292.5 1436 c 128,-1,3
 1376 1388 1376 1388 1420 1320.5 c 128,-1,4
 1464 1253 1464 1253 1464 1172 c 2,5,-1
 1464 1026 l 2,6,7
 1464 940 1464 940 1430.5 887 c 128,-1,8
 1397 834 1397 834 1338 802 c 1,9,10
 1387 788 1387 788 1428.5 766 c 128,-1,11
 1470 744 1470 744 1499.5 712.5 c 128,-1,12
 1529 681 1529 681 1545.5 639.5 c 128,-1,13
 1562 598 1562 598 1562 544 c 2,14,-1
 1562 348 l 2,15,16
 1562 267 1562 267 1503 199.5 c 128,-1,17
 1444 132 1444 132 1342 83 c 128,-1,18
 1240 34 1240 34 1104 7 c 128,-1,19
 968 -20 968 -20 814 -20 c 0,20,21
 728 -20 728 -20 638 -13.5 c 128,-1,22
 548 -7 548 -7 463.5 4 c 128,-1,23
 379 15 379 15 305 29 c 128,-1,24
 231 43 231 43 178 58 c 1,25,-1
 178 1462 l 1,26,27
 231 1477 231 1477 305 1490.5 c 128,-1,28
 379 1504 379 1504 463.5 1514.5 c 128,-1,29
 548 1525 548 1525 638 1531.5 c 128,-1,30
 728 1538 728 1538 814 1538 c 0,0,1
806 664 m 0,31,32
 752 664 752 664 698 663.5 c 128,-1,33
 644 663 644 663 593.5 660.5 c 128,-1,34
 543 658 543 658 497 653 c 128,-1,35
 451 648 451 648 414 640 c 1,36,-1
 414 260 l 1,37,38
 434 253 434 253 465.5 244 c 128,-1,39
 497 235 497 235 545 227 c 128,-1,40
 593 219 593 219 660 213.5 c 128,-1,41
 727 208 727 208 818 208 c 0,42,43
 930 208 930 208 1019.5 226 c 128,-1,44
 1109 244 1109 244 1170.5 274 c 128,-1,45
 1232 304 1232 304 1265 343.5 c 128,-1,46
 1298 383 1298 383 1298 426 c 2,47,-1
 1298 512 l 2,48,49
 1298 559 1298 559 1256 589 c 128,-1,50
 1214 619 1214 619 1145 635.5 c 128,-1,51
 1076 652 1076 652 987.5 658 c 128,-1,52
 899 664 899 664 806 664 c 0,31,32
414 912 m 1,53,54
 476 900 476 900 555.5 896 c 128,-1,55
 635 892 635 892 736 892 c 0,56,57
 823 892 823 892 909 898.5 c 128,-1,58
 995 905 995 905 1064 920.5 c 128,-1,59
 1133 936 1133 936 1176 962.5 c 128,-1,60
 1219 989 1219 989 1220 1030 c 1,61,-1
 1220 1094 l 2,62,63
 1220 1137 1220 1137 1199.5 1176.5 c 128,-1,64
 1179 1216 1179 1216 1131.5 1246 c 128,-1,65
 1084 1276 1084 1276 1007 1294 c 128,-1,66
 930 1312 930 1312 818 1312 c 0,67,68
 727 1312 727 1312 660 1306.5 c 128,-1,69
 593 1301 593 1301 545 1293 c 128,-1,70
 497 1285 497 1285 465.5 1276 c 128,-1,71
 434 1267 434 1267 414 1260 c 1,72,-1
 414 912 l 1,53,54
EndSplineSet
EndChar

StartChar: D
Encoding: 68 68 146
Width: 1624
Flags: W
HStem: -4 226<401.942 1078.68> 1298 226<404.539 1078.68>
VStem: 140 236<260.957 1258.45> 1260 264<345.388 1174.61>
DStem2: 425.5 1500.5 507 1278.5 0.990756 0.135655<-83.1862 320.941> 507 241.5 425.5 19.5 0.99374 -0.111715<-133.382 270.649>
LayerCount: 2
Fore
SplineSet
776 1524 m 0,0,1
 930 1524 930 1524 1066 1497 c 128,-1,2
 1202 1470 1202 1470 1304 1422 c 128,-1,3
 1406 1374 1406 1374 1465 1306.5 c 128,-1,4
 1524 1239 1524 1239 1524 1158 c 2,5,-1
 1524 362 l 2,6,7
 1524 281 1524 281 1465 213.5 c 128,-1,8
 1406 146 1406 146 1304 98 c 128,-1,9
 1202 50 1202 50 1066 23 c 128,-1,10
 930 -4 930 -4 776 -4 c 0,11,12
 690 -4 690 -4 600 2.5 c 128,-1,13
 510 9 510 9 425.5 19.5 c 128,-1,14
 341 30 341 30 267 44 c 128,-1,15
 193 58 193 58 140 74 c 1,16,-1
 140 1446 l 1,17,18
 193 1462 193 1462 267 1476 c 128,-1,19
 341 1490 341 1490 425.5 1500.5 c 128,-1,20
 510 1511 510 1511 600 1517.5 c 128,-1,21
 690 1524 690 1524 776 1524 c 0,0,1
780 1298 m 0,22,23
 689 1298 689 1298 622 1292.5 c 128,-1,24
 555 1287 555 1287 507 1278.5 c 128,-1,25
 459 1270 459 1270 427.5 1260.5 c 128,-1,26
 396 1251 396 1251 376 1244 c 1,27,-1
 376 276 l 1,28,29
 396 268 396 268 427.5 259 c 128,-1,30
 459 250 459 250 507 241.5 c 128,-1,31
 555 233 555 233 622 227.5 c 128,-1,32
 689 222 689 222 780 222 c 0,33,34
 892 222 892 222 981.5 240 c 128,-1,35
 1071 258 1071 258 1132.5 288 c 128,-1,36
 1194 318 1194 318 1227 357.5 c 128,-1,37
 1260 397 1260 397 1260 440 c 2,38,-1
 1260 1080 l 2,39,40
 1260 1123 1260 1123 1227 1162.5 c 128,-1,41
 1194 1202 1194 1202 1132.5 1232 c 128,-1,42
 1071 1262 1071 1262 981.5 1280 c 128,-1,43
 892 1298 892 1298 780 1298 c 0,22,23
EndSplineSet
EndChar

StartChar: circumflex
Encoding: 710 710 147
Width: 1582
Flags: W
HStem: 1286 460
LayerCount: 2
Fore
SplineSet
1154 1440 m 1,0,-1
 998 1286 l 1,1,-1
 790 1508 l 1,2,-1
 586 1286 l 1,3,-1
 430 1442 l 1,4,-1
 790 1746 l 1,5,-1
 1154 1440 l 1,0,-1
EndSplineSet
EndChar

StartChar: tilde
Encoding: 732 732 148
Width: 1582
Flags: W
HStem: 1360 212<815.688 1142.18> 1460 210<470.936 790.344>
DStem2: 800.5 1621 733.5 1444.5 0.925727 -0.378193<-69.8694 170.466>
LayerCount: 2
Fore
SplineSet
628 1670 m 0,0,1
 675 1670 675 1670 717.5 1654.5 c 128,-1,2
 760 1639 760 1639 800.5 1621 c 128,-1,3
 841 1603 841 1603 881.5 1587.5 c 128,-1,4
 922 1572 922 1572 966 1572 c 0,5,6
 1011 1572 1011 1572 1051 1582.5 c 128,-1,7
 1091 1593 1091 1593 1121 1607 c 1,8,9
 1156 1622 1156 1622 1186 1642 c 1,10,-1
 1186 1424 l 1,11,12
 1158 1406 1158 1406 1125 1392 c 0,13,14
 1096 1380 1096 1380 1057 1370 c 128,-1,15
 1018 1360 1018 1360 970 1360 c 0,16,17
 920 1360 920 1360 880.5 1375.5 c 128,-1,18
 841 1391 841 1391 805 1410 c 128,-1,19
 769 1429 769 1429 733.5 1444.5 c 128,-1,20
 698 1460 698 1460 658 1460 c 0,21,22
 611 1460 611 1460 564.5 1447 c 128,-1,23
 518 1434 518 1434 480 1419 c 0,24,25
 436 1401 436 1401 396 1378 c 1,26,-1
 396 1596 l 1,27,28
 426 1616 426 1616 462 1633 c 0,29,30
 493 1647 493 1647 535 1658.5 c 128,-1,31
 577 1670 577 1670 628 1670 c 0,0,1
EndSplineSet
EndChar

StartChar: macron
Encoding: 175 175 149
Width: 1582
Flags: W
HStem: 1404 210<342 1240>
LayerCount: 2
Fore
SplineSet
342 1614 m 1,0,-1
 1240 1614 l 1,1,-1
 1240 1404 l 1,2,-1
 342 1404 l 1,3,-1
 342 1614 l 1,0,-1
EndSplineSet
EndChar

StartChar: breve
Encoding: 728 728 150
Width: 1582
Flags: W
HStem: 1360 194<600.193 981.378>
LayerCount: 2
Fore
SplineSet
790 1554 m 0,0,1
 841 1554 841 1554 883.5 1563.5 c 128,-1,2
 926 1573 926 1573 962.5 1589.5 c 128,-1,3
 999 1606 999 1606 1030 1627.5 c 128,-1,4
 1061 1649 1061 1649 1090 1672 c 1,5,-1
 1186 1522 l 1,6,7
 1157 1488 1157 1488 1116.5 1458.5 c 128,-1,8
 1076 1429 1076 1429 1025.5 1407 c 128,-1,9
 975 1385 975 1385 916 1372.5 c 128,-1,10
 857 1360 857 1360 790 1360 c 0,11,12
 724 1360 724 1360 665 1372.5 c 128,-1,13
 606 1385 606 1385 556.5 1407 c 128,-1,14
 507 1429 507 1429 466.5 1458.5 c 128,-1,15
 426 1488 426 1488 398 1522 c 1,16,-1
 492 1672 l 1,17,18
 520 1649 520 1649 551.5 1627.5 c 128,-1,19
 583 1606 583 1606 619 1589.5 c 128,-1,20
 655 1573 655 1573 697.5 1563.5 c 128,-1,21
 740 1554 740 1554 790 1554 c 0,0,1
EndSplineSet
EndChar

StartChar: caron
Encoding: 711 711 151
Width: 1582
Flags: W
HStem: 1286 460
LayerCount: 2
Fore
SplineSet
1154 1592 m 1,0,-1
 790 1286 l 1,1,-1
 430 1590 l 1,2,-1
 586 1746 l 1,3,-1
 790 1524 l 1,4,-1
 998 1746 l 1,5,-1
 1154 1592 l 1,0,-1
EndSplineSet
EndChar

StartChar: grave
Encoding: 96 96 152
Width: 1582
Flags: W
HStem: 1258 508
VStem: 588 408
LayerCount: 2
Fore
SplineSet
996 1398 m 1,0,-1
 854 1258 l 1,1,2
 797 1321 797 1321 748 1379.5 c 128,-1,3
 699 1438 699 1438 664 1485 c 0,4,5
 622 1540 622 1540 588 1588 c 1,6,-1
 764 1766 l 1,7,-1
 996 1398 l 1,0,-1
EndSplineSet
EndChar

StartChar: acute
Encoding: 180 180 153
Width: 1582
Flags: W
HStem: 1258 508
VStem: 588 408
LayerCount: 2
Fore
SplineSet
818 1766 m 1,0,-1
 996 1588 l 1,1,2
 961 1540 961 1540 919 1485 c 0,3,4
 883 1438 883 1438 834 1379.5 c 128,-1,5
 785 1321 785 1321 728 1258 c 1,6,-1
 588 1398 l 1,7,-1
 818 1766 l 1,0,-1
EndSplineSet
EndChar

StartChar: dieresis
Encoding: 168 168 154
Width: 1582
Flags: W
HStem: 1466 242<436.351 663.649 918.351 1146.62>
VStem: 392 316<1488.18 1683.76> 874 318<1486.18 1681.76>
LayerCount: 2
Fore
SplineSet
550 1708 m 256,0,1
 622 1708 622 1708 665 1684.5 c 128,-1,2
 708 1661 708 1661 708 1608 c 2,3,-1
 708 1556 l 2,4,5
 708 1509 708 1509 665 1487.5 c 128,-1,6
 622 1466 622 1466 550 1466 c 256,7,8
 478 1466 478 1466 435 1487.5 c 128,-1,9
 392 1509 392 1509 392 1556 c 2,10,-1
 392 1608 l 2,11,12
 392 1661 392 1661 435 1684.5 c 128,-1,13
 478 1708 478 1708 550 1708 c 256,0,1
1032 1706 m 256,14,15
 1104 1706 1104 1706 1148 1682.5 c 128,-1,16
 1192 1659 1192 1659 1192 1606 c 2,17,-1
 1192 1554 l 2,18,19
 1192 1507 1192 1507 1148 1485.5 c 128,-1,20
 1104 1464 1104 1464 1032 1464 c 256,21,22
 960 1464 960 1464 917 1485.5 c 128,-1,23
 874 1507 874 1507 874 1554 c 2,24,-1
 874 1606 l 2,25,26
 874 1659 874 1659 917 1682.5 c 128,-1,27
 960 1706 960 1706 1032 1706 c 256,14,15
EndSplineSet
EndChar

StartChar: ring
Encoding: 730 730 155
Width: 900
Flags: W
HStem: 1316 126<335.432 562.488> 1618 128<336.826 561.063>
VStem: 190 144<1451.47 1608.25> 564 146<1451.47 1608.25>
LayerCount: 2
Fore
SplineSet
448 1746 m 0,0,1
 499 1746 499 1746 546.5 1738 c 128,-1,2
 594 1730 594 1730 630 1713.5 c 128,-1,3
 666 1697 666 1697 688 1671 c 128,-1,4
 710 1645 710 1645 710 1608 c 2,5,-1
 710 1442 l 2,6,7
 710 1409 710 1409 688 1385 c 128,-1,8
 666 1361 666 1361 630 1346 c 128,-1,9
 594 1331 594 1331 546.5 1323.5 c 128,-1,10
 499 1316 499 1316 448 1316 c 0,11,12
 399 1316 399 1316 352.5 1323.5 c 128,-1,13
 306 1331 306 1331 270 1346 c 128,-1,14
 234 1361 234 1361 212 1385 c 128,-1,15
 190 1409 190 1409 190 1442 c 2,16,-1
 190 1608 l 2,17,18
 190 1645 190 1645 212 1671 c 128,-1,19
 234 1697 234 1697 270 1713.5 c 128,-1,20
 306 1730 306 1730 352.5 1738 c 128,-1,21
 399 1746 399 1746 448 1746 c 0,0,1
448 1618 m 0,22,23
 428 1618 428 1618 407.5 1615 c 128,-1,24
 387 1612 387 1612 370.5 1605 c 128,-1,25
 354 1598 354 1598 344 1587 c 128,-1,26
 334 1576 334 1576 334 1560 c 2,27,-1
 334 1496 l 2,28,29
 334 1482 334 1482 344 1471.5 c 128,-1,30
 354 1461 354 1461 370.5 1454.5 c 128,-1,31
 387 1448 387 1448 407.5 1445 c 128,-1,32
 428 1442 428 1442 448 1442 c 0,33,34
 470 1442 470 1442 490.5 1445 c 128,-1,35
 511 1448 511 1448 527.5 1454.5 c 128,-1,36
 544 1461 544 1461 554 1471.5 c 128,-1,37
 564 1482 564 1482 564 1496 c 2,38,-1
 564 1560 l 2,39,40
 564 1576 564 1576 554 1587 c 128,-1,41
 544 1598 544 1598 527.5 1605 c 128,-1,42
 511 1612 511 1612 490.5 1615 c 128,-1,43
 470 1618 470 1618 448 1618 c 0,22,23
EndSplineSet
EndChar

StartChar: ordmasculine
Encoding: 186 186 156
Width: 1236
Flags: W
HStem: 788 150<464.751 771.676> 1370 150<464 771.676>
VStem: 284 180<941.077 1365.53> 774 178<941.342 1364.71>
LayerCount: 2
Fore
SplineSet
618 1520 m 0,0,1
 684 1520 684 1520 766.5 1514.5 c 128,-1,2
 849 1509 849 1509 952 1492 c 1,3,-1
 952 816 l 1,4,5
 849 801 849 801 766.5 794.5 c 128,-1,6
 684 788 684 788 616 788 c 256,7,8
 548 788 548 788 466 794.5 c 128,-1,9
 384 801 384 801 284 816 c 1,10,-1
 284 1492 l 1,11,12
 384 1509 384 1509 466.5 1514.5 c 128,-1,13
 549 1520 549 1520 618 1520 c 0,0,1
570 1370 m 2,14,15
 541 1370 541 1370 515.5 1366.5 c 128,-1,16
 490 1363 490 1363 464 1360 c 1,17,-1
 464 948 l 1,18,19
 488 943 488 943 514.5 940.5 c 128,-1,20
 541 938 541 938 570 938 c 2,21,-1
 666 938 l 2,22,23
 695 938 695 938 721.5 940.5 c 128,-1,24
 748 943 748 943 774 948 c 1,25,-1
 774 1360 l 1,26,27
 748 1363 748 1363 720.5 1365.5 c 128,-1,28
 693 1368 693 1368 666 1370 c 1,29,-1
 570 1370 l 2,14,15
EndSplineSet
EndChar

StartChar: ordfeminine
Encoding: 170 170 157
Width: 1236
Flags: W
HStem: 788 142<450.467 779.516> 1102 128<448 782> 1378 142<296.432 779.516>
VStem: 284 164<936.094 1102> 782 170<933.713 1102 1230 1373.02>
DStem2: 284 1492 463.5 1370.5 0.98882 0.149115<0 332.305>
LayerCount: 2
Fore
SplineSet
618 1520 m 0,0,1
 684 1520 684 1520 766.5 1514.5 c 128,-1,2
 849 1509 849 1509 952 1492 c 1,3,-1
 952 816 l 1,4,5
 849 801 849 801 766.5 794.5 c 128,-1,6
 684 788 684 788 616 788 c 256,7,8
 548 788 548 788 466 794.5 c 128,-1,9
 384 801 384 801 284 816 c 1,10,-1
 284 1230 l 1,11,-1
 782 1230 l 1,12,-1
 782 1366 l 1,13,14
 755 1371 755 1371 725.5 1374.5 c 128,-1,15
 696 1378 696 1378 666 1378 c 2,16,-1
 570 1378 l 2,17,18
 515 1378 515 1378 463.5 1370.5 c 128,-1,19
 412 1363 412 1363 372 1354 c 0,20,21
 325 1343 325 1343 284 1330 c 1,22,-1
 284 1492 l 1,23,24
 384 1509 384 1509 466.5 1514.5 c 128,-1,25
 549 1520 549 1520 618 1520 c 0,0,1
666 930 m 2,26,27
 698 930 698 930 725.5 932.5 c 128,-1,28
 753 935 753 935 782 940 c 1,29,-1
 782 1102 l 1,30,-1
 448 1102 l 1,31,-1
 448 942 l 1,32,33
 505 933 505 933 570 930 c 1,34,-1
 666 930 l 2,26,27
EndSplineSet
EndChar

